999
dxfrw 0.6.3
  0
SECTION
  2
HEADER
  9
$ACADVER
  1
AC1021
  9
$DWGCODEPAGE
  3
ANSI_1252
  9
$INSBASE
 10
0
 20
0
 30
0
  9
$EXTMIN
 10
-28.60555127546399
 20
-9.83333333333338
 30
0
  9
$EXTMAX
 10
36.56164833143048
 20
47.95833333333338
 30
0
  9
$LIMMIN
 10
0
 20
0
  9
$LIMMAX
 10
420
 20
297
  9
$ORTHOMODE
 70
    0
  9
$REGENMODE
 70
    1
  9
$FILLMODE
 70
    1
  9
$QTEXTMODE
 70
    0
  9
$MIRRTEXT
 70
    0
  9
$LTSCALE
 40
1
  9
$ATTMODE
 70
    0
  9
$TEXTSIZE
 40
2.5
  9
$TRACEWID
 40
15.68
  9
$TEXTSTYLE
  7
STANDARD
  9
$CLAYER
  8
Parameters_side_height+
  9
$CELTYPE
  6
BYLAYER
  9
$CECOLOR
 62
  256
  9
$CELTSCALE
 40
1
  9
$DISPSILH
 70
    0
  9
$DIMSCALE
 40
1
  9
$DIMASZ
 40
1
  9
$DIMEXO
 40
0.625
  9
$DIMDLI
 40
3.75
  9
$DIMRND
 40
0
  9
$DIMDLE
 40
0
  9
$DIMEXE
 40
1.25
  9
$DIMTP
 40
0
  9
$DIMTM
 40
0
  9
$DIMTXT
 40
1
  9
$DIMCEN
 40
2.5
  9
$DIMTSZ
 40
0
  9
$DIMTOL
 70
    0
  9
$DIMLIM
 70
    0
  9
$DIMTIH
 70
    0
  9
$DIMTOH
 70
    0
  9
$DIMSE1
 70
    0
  9
$DIMSE2
 70
    0
  9
$DIMTAD
 70
    1
  9
$DIMZIN
 70
    1
  9
$DIMBLK
  1

  9
$DIMASO
 70
    1
  9
$DIMSHO
 70
    1
  9
$DIMPOST
  1

  9
$DIMAPOST
  1

  9
$DIMALT
 70
    0
  9
$DIMALTD
 70
    3
  9
$DIMALTF
 40
0.03937
  9
$DIMLFAC
 40
1
  9
$DIMTOFL
 70
    1
  9
$DIMTVP
 40
0
  9
$DIMTIX
 70
    0
  9
$DIMSOXD
 70
    0
  9
$DIMSAH
 70
    0
  9
$DIMBLK1
  1

  9
$DIMBLK2
  1

  9
$DIMSTYLE
  2
STANDARD
  9
$DIMCLRD
 70
    0
  9
$DIMCLRE
 70
    0
  9
$DIMCLRT
 70
    0
  9
$DIMTFAC
 40
1
  9
$DIMGAP
 40
0.625
  9
$DIMJUST
 70
    0
  9
$DIMSD1
 70
    0
  9
$DIMSD2
 70
    0
  9
$DIMTOLJ
 70
    0
  9
$DIMTZIN
 70
    8
  9
$DIMALTZ
 70
    0
  9
$DIMALTTZ
 70
    0
  9
$DIMUPT
 70
    0
  9
$DIMDEC
 70
    4
  9
$DIMTDEC
 70
    2
  9
$DIMALTU
 70
    2
  9
$DIMALTTD
 70
    3
  9
$DIMTXSTY
  7
standard
  9
$DIMAUNIT
 70
    0
  9
$DIMADEC
 70
    2
  9
$DIMALTRND
 40
0
  9
$DIMAZIN
 70
    0
  9
$DIMDSEP
 70
    0
  9
$DIMATFIT
 70
    3
  9
$DIMFRAC
 70
    0
  9
$DIMLDRBLK
  1
STANDARD
  9
$DIMLUNIT
 70
    2
  9
$DIMLWD
 70
    8
  9
$DIMLWE
 70
   -2
  9
$DIMTMOVE
 70
    0
  9
$DIMFXL
 40
1
  9
$DIMFXLON
 70
    0
  9
$DIMJOGANG
 40
0.7854
  9
$DIMTFILL
 70
    0
  9
$DIMTFILLCLR
 70
    0
  9
$DIMARCSYM
 70
    0
  9
$DIMLTYPE
  6

  9
$DIMLTEX1
  6

  9
$DIMLTEX2
  6

  9
$LUNITS
 70
    2
  9
$LUPREC
 70
    4
  9
$SKETCHINC
 40
1
  9
$FILLETRAD
 40
0
  9
$AUNITS
 70
    0
  9
$AUPREC
 70
    2
  9
$MENU
  1
.
  9
$ELEVATION
 40
0
  9
$PELEVATION
 40
0
  9
$THICKNESS
 40
0
  9
$LIMCHECK
 70
    0
  9
$CHAMFERA
 40
0
  9
$CHAMFERB
 40
0
  9
$CHAMFERC
 40
0
  9
$CHAMFERD
 40
0
  9
$SKPOLY
 70
    0
  9
$USRTIMER
 70
    1
  9
$ANGBASE
 50
0
  9
$ANGDIR
 70
    0
  9
$PDMODE
 70
   96
  9
$PDSIZE
 40
-2
  9
$PLINEWID
 40
0
  9
$SPLFRAME
 70
    0
  9
$SPLINETYPE
 70
    2
  9
$SPLINESEGS
 70
    8
  9
$HANDSEED
  5
20000
  9
$SURFTAB1
 70
    6
  9
$SURFTAB2
 70
    6
  9
$SURFTYPE
 70
    6
  9
$SURFU
 70
    6
  9
$SURFV
 70
    6
  9
$UCSBASE
  2

  9
$UCSNAME
  2

  9
$UCSORG
 10
0
 20
0
 30
0
  9
$UCSXDIR
 10
1
 20
0
 30
0
  9
$UCSYDIR
 10
0
 20
1
 30
0
  9
$UCSORTHOREF
  2

  9
$UCSORTHOVIEW
 70
    0
  9
$UCSORGTOP
 10
0
 20
0
 30
0
  9
$UCSORGBOTTOM
 10
0
 20
0
 30
0
  9
$UCSORGLEFT
 10
0
 20
0
 30
0
  9
$UCSORGRIGHT
 10
0
 20
0
 30
0
  9
$UCSORGFRONT
 10
0
 20
0
 30
0
  9
$UCSORGBACK
 10
0
 20
0
 30
0
  9
$PUCSBASE
  2

  9
$PUCSNAME
  2

  9
$PUCSORG
 10
0
 20
0
 30
0
  9
$PUCSXDIR
 10
1
 20
0
 30
0
  9
$PUCSYDIR
 10
0
 20
1
 30
0
  9
$PUCSORTHOREF
  2

  9
$PUCSORTHOVIEW
 70
    0
  9
$PUCSORGTOP
 10
0
 20
0
 30
0
  9
$PUCSORGBOTTOM
 10
0
 20
0
 30
0
  9
$PUCSORGLEFT
 10
0
 20
0
 30
0
  9
$PUCSORGRIGHT
 10
0
 20
0
 30
0
  9
$PUCSORGFRONT
 10
0
 20
0
 30
0
  9
$PUCSORGBACK
 10
0
 20
0
 30
0
  9
$USERI1
 70
    0
  9
$USERI2
 70
    0
  9
$USERI3
 70
    0
  9
$USERI4
 70
    0
  9
$USERI5
 70
    0
  9
$USERR1
 40
0
  9
$USERR2
 40
0
  9
$USERR3
 40
0
  9
$USERR4
 40
0
  9
$USERR5
 40
0
  9
$WORLDVIEW
 70
    1
  9
$SHADEDGE
 70
    3
  9
$SHADEDIF
 70
   70
  9
$TILEMODE
 70
    1
  9
$MAXACTVP
 70
   64
  9
$PINSBASE
 10
6
 20
0
 30
0
  9
$PLIMCHECK
 70
    0
  9
$PEXTMIN
 10
0
 20
0
 30
0
  9
$PEXTMAX
 10
0
 20
0
 30
0
  9
$GRIDMODE
 70
    1
  9
$SNAPSTYLE
 70
    0
  9
$GRIDUNIT
 10
0
 20
0
  9
$PLIMMIN
 10
0
 20
0
  9
$PLIMMAX
 10
210
 20
297
  9
$UNITMODE
 70
    0
  9
$VISRETAIN
 70
    1
  9
$PLINEGEN
 70
    0
  9
$PSLTSCALE
 70
    1
  9
$TREEDEPTH
 70
 3020
  9
$CMLSTYLE
  2
Standard
  9
$CMLJUST
 70
    0
  9
$CMLSCALE
 40
20
  9
$PROXYGRAPHICS
 70
    1
  9
$MEASUREMENT
 70
    1
  9
$CELWEIGHT
370
   -1
  9
$ENDCAPS
280
    0
  9
$JOINSTYLE
280
    0
  9
$LWDISPLAY
290
    0
  9
$INSUNITS
 70
    4
  9
$HYPERLINKBASE
  1

  9
$STYLESHEET
  1

  9
$XEDIT
290
    1
  9
$CEPSNTYPE
380
    0
  9
$PSTYLEMODE
290
    1
  9
$EXTNAMES
290
    1
  9
$PSVPSCALE
 40
19.8
  9
$OLESTARTUP
290
    0
  9
$SORTENTS
280
  127
  9
$INDEXCTL
280
    0
  9
$HIDETEXT
280
    1
  9
$XCLIPFRAME
290
    0
  9
$HALOGAP
280
    0
  9
$OBSCOLOR
 70
  257
  9
$OBSLTYPE
280
    0
  9
$INTERSECTIONDISPLAY
280
    0
  9
$INTERSECTIONCOLOR
 70
  257
  9
$DIMASSOC
280
    1
  9
$PROJECTNAME
  1

  9
$CAMERADISPLAY
290
    0
  9
$LENSLENGTH
 40
50
  9
$CAMERAHEIGHT
 40
0
  9
$STEPSPERSEC
 40
2
  9
$STEPSIZE
 40
50
  9
$3DDWFPREC
 40
2
  9
$PSOLWIDTH
 40
5
  9
$PSOLHEIGHT
 40
80
  9
$LOFTANG1
 40
1.570796326794897
  9
$LOFTANG2
 40
1.570796326794897
  9
$LOFTMAG1
 40
0
  9
$LOFTMAG2
 40
0
  9
$LOFTPARAM
 70
    7
  9
$LOFTNORMALS
280
    1
  9
$LATITUDE
 40
1
  9
$LONGITUDE
 40
1
  9
$NORTHDIRECTION
 40
0
  9
$TIMEZONE
 70
-8000
  9
$LIGHTGLYPHDISPLAY
280
    1
  9
$TILEMODELIGHTSYNCH
280
    1
  9
$SOLIDHIST
280
    1
  9
$SHOWHIST
280
    1
  9
$DWFFRAME
280
    2
  9
$DGNFRAME
280
    0
  9
$REALWORLDSCALE
290
    1
  9
$INTERFERECOLOR
 62
    1
  9
$CSHADOW
280
    0
  9
$SHADOWPLANELOCATION
 40
0
  0
ENDSEC
  0
SECTION
  2
CLASSES
  0
ENDSEC
  0
SECTION
  2
TABLES
  0
TABLE
  2
VPORT
  5
8
330
0
100
AcDbSymbolTable
 70
    1
  0
VPORT
  5
31
330
2
100
AcDbSymbolTableRecord
100
AcDbViewportTableRecord
  2
*ACTIVE
 70
    0
 10
0
 20
0
 11
1
 21
1
 12
24.11411127451841
 22
28.63861462705692
 13
0
 23
0
 14
10
 24
10
 15
10
 25
10
 16
0
 26
0
 36
1
 17
0
 27
0
 37
0
 40
71.09933839703368
 41
1.843356643356643
 42
50
 43
0
 44
0
 50
0
 51
0
 71
    0
 72
  100
 73
    1
 74
    3
 75
    0
 76
    1
 77
    0
 78
    0
281
    0
 65
    1
110
0
120
0
130
0
111
1
121
0
131
0
112
0
122
1
132
0
 79
    0
146
0
348
10020
 60
    7
 61
    5
292
1
282
    1
141
0
142
0
 63
  250
421
3358443
  0
ENDTAB
  0
TABLE
  2
LTYPE
  5
5
330
0
100
AcDbSymbolTable
 70
    4
  0
LTYPE
  5
14
330
5
100
AcDbSymbolTableRecord
100
AcDbLinetypeTableRecord
  2
ByBlock
 70
    0
  3

 72
   65
 73
    0
 40
0
  0
LTYPE
  5
15
330
5
100
AcDbSymbolTableRecord
100
AcDbLinetypeTableRecord
  2
ByLayer
 70
    0
  3

 72
   65
 73
    0
 40
0
  0
LTYPE
  5
16
330
5
100
AcDbSymbolTableRecord
100
AcDbLinetypeTableRecord
  2
Continuous
 70
    0
  3
Solid line
 72
   65
 73
    0
 40
0
  0
LTYPE
  5
32
330
5
100
AcDbSymbolTableRecord
100
AcDbLinetypeTableRecord
  2
DOT
 70
    0
  3
Dot . . . . . . . . . . . . . . . . . . . . . .
 72
   65
 73
    2
 40
6.35
 49
0
 74
    0
 49
-6.35
 74
    0
  0
LTYPE
  5
33
330
5
100
AcDbSymbolTableRecord
100
AcDbLinetypeTableRecord
  2
DOTTINY
 70
    0
  3
Dot (.15x) .....................................
 72
   65
 73
    2
 40
0.9525
 49
0
 74
    0
 49
-0.9525
 74
    0
  0
LTYPE
  5
34
330
5
100
AcDbSymbolTableRecord
100
AcDbLinetypeTableRecord
  2
DOT2
 70
    0
  3
Dot (.5x) .....................................
 72
   65
 73
    2
 40
3.175
 49
0
 74
    0
 49
-3.175
 74
    0
  0
LTYPE
  5
35
330
5
100
AcDbSymbolTableRecord
100
AcDbLinetypeTableRecord
  2
DOTX2
 70
    0
  3
Dot (2x) .  .  .  .  .  .  .  .  .  .  .  .  .
 72
   65
 73
    2
 40
12.7
 49
0
 74
    0
 49
-12.7
 74
    0
  0
LTYPE
  5
36
330
5
100
AcDbSymbolTableRecord
100
AcDbLinetypeTableRecord
  2
DASHED
 70
    0
  3
Dashed _ _ _ _ _ _ _ _ _ _ _ _ _ _ _ _ _
 72
   65
 73
    2
 40
19.05
 49
12.7
 74
    0
 49
-6.35
 74
    0
  0
LTYPE
  5
37
330
5
100
AcDbSymbolTableRecord
100
AcDbLinetypeTableRecord
  2
DASHEDTINY
 70
    0
  3
Dashed (.15x) _ _ _ _ _ _ _ _ _ _ _ _ _ _ _ _ _
 72
   65
 73
    2
 40
2.8575
 49
1.905
 74
    0
 49
-0.9525
 74
    0
  0
LTYPE
  5
38
330
5
100
AcDbSymbolTableRecord
100
AcDbLinetypeTableRecord
  2
DASHED2
 70
    0
  3
Dashed (.5x) _ _ _ _ _ _ _ _ _ _ _ _ _ _ _ _ _
 72
   65
 73
    2
 40
9.524999999999999
 49
6.35
 74
    0
 49
-3.175
 74
    0
  0
LTYPE
  5
39
330
5
100
AcDbSymbolTableRecord
100
AcDbLinetypeTableRecord
  2
DASHEDX2
 70
    0
  3
Dashed (2x) ____  ____  ____  ____  ____  ___
 72
   65
 73
    2
 40
38.09999999999999
 49
25.4
 74
    0
 49
-12.7
 74
    0
  0
LTYPE
  5
3A
330
5
100
AcDbSymbolTableRecord
100
AcDbLinetypeTableRecord
  2
DASHDOT
 70
    0
  3
Dash dot __ . __ . __ . __ . __ . __ . __ . __
 72
   65
 73
    4
 40
25.4
 49
12.7
 74
    0
 49
-6.35
 74
    0
 49
0
 74
    0
 49
-6.35
 74
    0
  0
LTYPE
  5
3B
330
5
100
AcDbSymbolTableRecord
100
AcDbLinetypeTableRecord
  2
DASHDOTTINY
 70
    0
  3
Dash dot (.15x) _._._._._._._._._._._._._._._.
 72
   65
 73
    4
 40
3.81
 49
1.905
 74
    0
 49
-0.9525
 74
    0
 49
0
 74
    0
 49
-0.9525
 74
    0
  0
LTYPE
  5
3C
330
5
100
AcDbSymbolTableRecord
100
AcDbLinetypeTableRecord
  2
DASHDOT2
 70
    0
  3
Dash dot (.5x) _._._._._._._._._._._._._._._.
 72
   65
 73
    4
 40
12.7
 49
6.35
 74
    0
 49
-3.175
 74
    0
 49
0
 74
    0
 49
-3.175
 74
    0
  0
LTYPE
  5
3D
330
5
100
AcDbSymbolTableRecord
100
AcDbLinetypeTableRecord
  2
DASHDOTX2
 70
    0
  3
Dash dot (2x) ____  .  ____  .  ____  .  ___
 72
   65
 73
    4
 40
50.8
 49
25.4
 74
    0
 49
-12.7
 74
    0
 49
0
 74
    0
 49
-12.7
 74
    0
  0
LTYPE
  5
3E
330
5
100
AcDbSymbolTableRecord
100
AcDbLinetypeTableRecord
  2
DIVIDE
 70
    0
  3
Divide ____ . . ____ . . ____ . . ____ . . ____
 72
   65
 73
    6
 40
31.75
 49
12.7
 74
    0
 49
-6.35
 74
    0
 49
0
 74
    0
 49
-6.35
 74
    0
 49
0
 74
    0
 49
-6.35
 74
    0
  0
LTYPE
  5
3F
330
5
100
AcDbSymbolTableRecord
100
AcDbLinetypeTableRecord
  2
DIVIDETINY
 70
    0
  3
Divide (.15x) __..__..__..__..__..__..__..__.._
 72
   65
 73
    6
 40
4.7625
 49
1.905
 74
    0
 49
-0.9525
 74
    0
 49
0
 74
    0
 49
-0.9525
 74
    0
 49
0
 74
    0
 49
-0.9525
 74
    0
  0
LTYPE
  5
40
330
5
100
AcDbSymbolTableRecord
100
AcDbLinetypeTableRecord
  2
DIVIDE2
 70
    0
  3
Divide (.5x) __..__..__..__..__..__..__..__.._
 72
   65
 73
    6
 40
15.875
 49
6.35
 74
    0
 49
-3.175
 74
    0
 49
0
 74
    0
 49
-3.175
 74
    0
 49
0
 74
    0
 49
-3.175
 74
    0
  0
LTYPE
  5
41
330
5
100
AcDbSymbolTableRecord
100
AcDbLinetypeTableRecord
  2
DIVIDEX2
 70
    0
  3
Divide (2x) ________  .  .  ________  .  .  _
 72
   65
 73
    6
 40
63.5
 49
25.4
 74
    0
 49
-12.7
 74
    0
 49
0
 74
    0
 49
-12.7
 74
    0
 49
0
 74
    0
 49
-12.7
 74
    0
  0
LTYPE
  5
42
330
5
100
AcDbSymbolTableRecord
100
AcDbLinetypeTableRecord
  2
BORDER
 70
    0
  3
Border __ __ . __ __ . __ __ . __ __ . __ __ .
 72
   65
 73
    6
 40
44.45
 49
12.7
 74
    0
 49
-6.35
 74
    0
 49
12.7
 74
    0
 49
-6.35
 74
    0
 49
0
 74
    0
 49
-6.35
 74
    0
  0
LTYPE
  5
43
330
5
100
AcDbSymbolTableRecord
100
AcDbLinetypeTableRecord
  2
BORDERTINY
 70
    0
  3
Border (.15x) __.__.__.__.__.__.__.__.__.__.__.
 72
   65
 73
    6
 40
6.6675
 49
1.905
 74
    0
 49
-0.9525
 74
    0
 49
1.905
 74
    0
 49
-0.9525
 74
    0
 49
0
 74
    0
 49
-0.9525
 74
    0
  0
LTYPE
  5
44
330
5
100
AcDbSymbolTableRecord
100
AcDbLinetypeTableRecord
  2
BORDER2
 70
    0
  3
Border (.5x) __.__.__.__.__.__.__.__.__.__.__.
 72
   65
 73
    6
 40
22.225
 49
6.35
 74
    0
 49
-3.175
 74
    0
 49
6.35
 74
    0
 49
-3.175
 74
    0
 49
0
 74
    0
 49
-3.175
 74
    0
  0
LTYPE
  5
45
330
5
100
AcDbSymbolTableRecord
100
AcDbLinetypeTableRecord
  2
BORDERX2
 70
    0
  3
Border (2x) ____  ____  .  ____  ____  .  ___
 72
   65
 73
    6
 40
88.89999999999999
 49
25.4
 74
    0
 49
-12.7
 74
    0
 49
25.4
 74
    0
 49
-12.7
 74
    0
 49
0
 74
    0
 49
-12.7
 74
    0
  0
LTYPE
  5
46
330
5
100
AcDbSymbolTableRecord
100
AcDbLinetypeTableRecord
  2
CENTER
 70
    0
  3
Center ____ _ ____ _ ____ _ ____ _ ____ _ ____
 72
   65
 73
    4
 40
50.8
 49
31.75
 74
    0
 49
-6.35
 74
    0
 49
6.35
 74
    0
 49
-6.35
 74
    0
  0
LTYPE
  5
47
330
5
100
AcDbSymbolTableRecord
100
AcDbLinetypeTableRecord
  2
CENTERTINY
 70
    0
  3
Center (.15x) ___ _ ___ _ ___ _ ___ _ ___ _ ___
 72
   65
 73
    4
 40
7.619999999999999
 49
4.7625
 74
    0
 49
-0.9525
 74
    0
 49
0.9525
 74
    0
 49
-0.9525
 74
    0
  0
LTYPE
  5
48
330
5
100
AcDbSymbolTableRecord
100
AcDbLinetypeTableRecord
  2
CENTER2
 70
    0
  3
Center (.5x) ___ _ ___ _ ___ _ ___ _ ___ _ ___
 72
   65
 73
    4
 40
28.575
 49
19.05
 74
    0
 49
-3.175
 74
    0
 49
3.175
 74
    0
 49
-3.175
 74
    0
  0
LTYPE
  5
49
330
5
100
AcDbSymbolTableRecord
100
AcDbLinetypeTableRecord
  2
CENTERX2
 70
    0
  3
Center (2x) ________  __  ________  __  _____
 72
   65
 73
    4
 40
101.6
 49
63.5
 74
    0
 49
-12.7
 74
    0
 49
12.7
 74
    0
 49
-12.7
 74
    0
  0
ENDTAB
  0
TABLE
  2
LAYER
  5
2
330
0
100
AcDbSymbolTable
 70
    1
  0
LAYER
  5
10
330
2
100
AcDbSymbolTableRecord
100
AcDbLayerTableRecord
  2
0
 70
    0
 62
    7
  6
CONTINUOUS
370
    5
390
F
  0
LAYER
  5
4A
330
2
100
AcDbSymbolTableRecord
100
AcDbLayerTableRecord
  2
Coordinate_System
 70
    0
 62
    1
  6
CONTINUOUS
370
   15
390
F
  0
LAYER
  5
4B
330
2
100
AcDbSymbolTableRecord
100
AcDbLayerTableRecord
  2
Parameters_side_height+
 70
    0
 62
    5
  6
CONTINUOUS
370
    5
390
F
  0
ENDTAB
  0
TABLE
  2
STYLE
  5
3
330
0
100
AcDbSymbolTable
 70
    3
  0
STYLE
  5
4C
330
2
100
AcDbSymbolTableRecord
100
AcDbTextStyleTableRecord
  2
STANDARD
 70
    0
 40
0
 41
1
 50
0
 71
    0
 42
1
  3
STANDARD
  4

  0
STYLE
  5
4D
330
2
100
AcDbSymbolTableRecord
100
AcDbTextStyleTableRecord
  2
standard
 70
    0
 40
0
 41
1
 50
0
 71
    0
 42
1
  3
standard
  4

  0
ENDTAB
  0
TABLE
  2
VIEW
  5
6
330
0
100
AcDbSymbolTable
 70
    0
  0
ENDTAB
  0
TABLE
  2
UCS
  5
7
330
0
100
AcDbSymbolTable
 70
    0
  0
ENDTAB
  0
TABLE
  2
APPID
  5
9
330
0
100
AcDbSymbolTable
 70
    1
  0
APPID
  5
12
330
9
100
AcDbSymbolTableRecord
100
AcDbRegAppTableRecord
  2
ACAD
 70
    0
  0
APPID
  5
4E
330
9
100
AcDbSymbolTableRecord
100
AcDbRegAppTableRecord
  2
LibreCad
 70
    0
  0
ENDTAB
  0
TABLE
  2
DIMSTYLE
  5
A
330
0
100
AcDbSymbolTable
 70
    1
100
AcDbDimStyleTable
 71
    1
  0
DIMSTYLE
105
4F
330
A
100
AcDbSymbolTableRecord
100
AcDbDimStyleTableRecord
  2
Standard
 70
    0
 40
1
 41
1
 42
0.625
 43
0.38
 44
1.25
 45
0
 46
0
 47
0
 48
0
 49
1
140
1
141
0.09
142
0
143
25.4
144
1
145
0
146
1
147
0.625
148
0
 71
    0
 72
    0
 73
    0
 74
    1
 75
    0
 76
    0
 77
    0
 78
    1
 79
    0
170
    0
171
    2
172
    0
173
    0
174
    0
175
    0
176
    0
177
    0
178
    0
179
    2
271
    4
272
    4
273
    2
274
    2
275
    0
276
    0
277
    2
278
    0
279
    0
280
    0
281
    0
282
    0
283
    1
284
    0
285
    0
286
    0
288
    0
289
    3
340
standard
341

371
    8
372
   -2
  0
ENDTAB
  0
TABLE
  2
BLOCK_RECORD
  5
1
330
0
100
AcDbSymbolTable
 70
    2
  0
BLOCK_RECORD
  5
1F
330
1
100
AcDbSymbolTableRecord
100
AcDbBlockTableRecord
  2
*Model_Space
 70
    0
280
    1
281
    0
  0
BLOCK_RECORD
  5
1E
330
1
100
AcDbSymbolTableRecord
100
AcDbBlockTableRecord
  2
*Paper_Space
 70
    0
280
    1
281
    0
  0
BLOCK_RECORD
  5
50
330
1
100
AcDbSymbolTableRecord
100
AcDbBlockTableRecord
  2
*D3
 70
    0
280
    1
281
    0
  0
BLOCK_RECORD
  5
53
330
1
100
AcDbSymbolTableRecord
100
AcDbBlockTableRecord
  2
*D13
 70
    0
280
    1
281
    0
  0
BLOCK_RECORD
  5
56
330
1
100
AcDbSymbolTableRecord
100
AcDbBlockTableRecord
  2
*D6
 70
    0
280
    1
281
    0
  0
BLOCK_RECORD
  5
59
330
1
100
AcDbSymbolTableRecord
100
AcDbBlockTableRecord
  2
*D8
 70
    0
280
    1
281
    0
  0
BLOCK_RECORD
  5
5C
330
1
100
AcDbSymbolTableRecord
100
AcDbBlockTableRecord
  2
*D12
 70
    0
280
    1
281
    0
  0
BLOCK_RECORD
  5
5F
330
1
100
AcDbSymbolTableRecord
100
AcDbBlockTableRecord
  2
*D2
 70
    0
280
    1
281
    0
  0
BLOCK_RECORD
  5
62
330
1
100
AcDbSymbolTableRecord
100
AcDbBlockTableRecord
  2
*D9
 70
    0
280
    1
281
    0
  0
BLOCK_RECORD
  5
65
330
1
100
AcDbSymbolTableRecord
100
AcDbBlockTableRecord
  2
*D14
 70
    0
280
    1
281
    0
  0
BLOCK_RECORD
  5
68
330
1
100
AcDbSymbolTableRecord
100
AcDbBlockTableRecord
  2
*D1
 70
    0
280
    1
281
    0
  0
BLOCK_RECORD
  5
6B
330
1
100
AcDbSymbolTableRecord
100
AcDbBlockTableRecord
  2
*D7
 70
    0
280
    1
281
    0
  0
BLOCK_RECORD
  5
6E
330
1
100
AcDbSymbolTableRecord
100
AcDbBlockTableRecord
  2
*D10
 70
    0
280
    1
281
    0
  0
BLOCK_RECORD
  5
71
330
1
100
AcDbSymbolTableRecord
100
AcDbBlockTableRecord
  2
*D4
 70
    0
280
    1
281
    0
  0
BLOCK_RECORD
  5
74
330
1
100
AcDbSymbolTableRecord
100
AcDbBlockTableRecord
  2
*D11
 70
    0
280
    1
281
    0
  0
BLOCK_RECORD
  5
77
330
1
100
AcDbSymbolTableRecord
100
AcDbBlockTableRecord
  2
*D5
 70
    0
280
    1
281
    0
  0
ENDTAB
  0
ENDSEC
  0
SECTION
  2
BLOCKS
  0
BLOCK
  5
20
330
1F
100
AcDbEntity
  8
0
100
AcDbBlockBegin
  2
*Model_Space
 70
    0
 10
0
 20
0
 30
0
  3
*Model_Space
  1

  0
ENDBLK
  5
21
330
1F
100
AcDbEntity
  8
0
100
AcDbBlockEnd
  0
BLOCK
  5
1C
330
1B
100
AcDbEntity
  8
0
100
AcDbBlockBegin
  2
*Paper_Space
 70
    0
 10
0
 20
0
 30
0
  3
*Paper_Space
  1

  0
ENDBLK
  5
1D
330
1F
100
AcDbEntity
  8
0
100
AcDbBlockEnd
  0
BLOCK
  5
51
330
50
100
AcDbEntity
  8
0
100
AcDbBlockBegin
  2
*D3
 70
    1
 10
0
 20
0
  3
*D3
  1

  0
LINE
  5
7A
100
AcDbEntity
  8
Parameters_side_height+
  6
ByBlock
 62
    0
370
    9
100
AcDbLine
 10
20
 20
0
 11
20
 21
30
  0
MTEXT
  5
7B
100
AcDbEntity
  8
Parameters_side_height+
  6
CONTINUOUS
 62
    0
370
   -2
100
AcDbMText
 10
22
 20
15
 30
0
 40
1
 41
3.777777777777917
 71
    5
 72
    1
  1
height
  7
standard
210
0
220
0
230
1
 50
90
 73
    2
 44
1
  0
SOLID
  5
7C
100
AcDbEntity
  8
Parameters_side_height+
  6
ByBlock
 62
    0
370
    9
100
AcDbTrace
 10
20
 20
0
 30
0
 11
19.83348613689086
 21
1
 31
0
 12
20.16651386310913
 22
1
 32
0
 13
20.16651386310913
 23
1
 33
0
  0
SOLID
  5
7D
100
AcDbEntity
  8
Parameters_side_height+
  6
ByBlock
 62
    0
370
    9
100
AcDbTrace
 10
20
 20
30
 30
0
 11
20.16651386310913
 21
29
 31
0
 12
19.83348613689087
 22
29
 32
0
 13
19.83348613689087
 23
29
 33
0
  0
LINE
  5
7E
100
AcDbEntity
  8
Parameters_side_height+
  6
ByBlock
 62
    0
370
   -2
100
AcDbLine
 10
8.625
 20
0
 11
21.25
 21
0
  0
LINE
  5
7F
100
AcDbEntity
  8
Parameters_side_height+
  6
ByBlock
 62
    0
370
   -2
100
AcDbLine
 10
12.625
 20
30
 11
21.25
 21
30
  0
ENDBLK
  5
52
330
50
100
AcDbEntity
  8
0
100
AcDbBlockEnd
  0
BLOCK
  5
54
330
53
100
AcDbEntity
  8
0
100
AcDbBlockBegin
  2
*D13
 70
    1
 10
0
 20
0
  3
*D13
  1

  0
ARC
  5
80
100
AcDbEntity
  8
Parameters_side_height+
  6
ByBlock
 62
    0
370
    9
100
AcDbCircle
 10
15.99999001142547
 20
24.00003949594578
 40
4.472144684247881
100
AcDbArc
 50
123.6902678718775
 51
251.5651009252666
  0
SOLID
  5
81
100
AcDbEntity
  8
Parameters_side_height+
  6
ByBlock
 62
    0
370
    9
100
AcDbTrace
 10
13.51927746616416
 20
27.72108012252186
 30
0
 11
12.86155931261815
 21
26.9496310334022
 31
0
 12
12.64706554371153
 22
27.20438560064358
 32
0
 13
12.64706554371153
 23
27.20438560064358
 33
0
  0
SOLID
  5
82
100
AcDbEntity
  8
Parameters_side_height+
  6
ByBlock
 62
    0
370
    9
100
AcDbTrace
 10
14.58577737238572
 20
19.75738929961486
 30
0
 11
13.60834636882727
 21
20.02637907616826
 31
0
 12
13.74825051694361
 22
20.32859472065073
 32
0
 13
13.74825051694361
 23
20.32859472065073
 33
0
  0
MTEXT
  5
83
100
AcDbEntity
  8
Parameters_side_height+
  6
CONTINUOUS
 62
    0
370
   -2
100
AcDbMText
 10
12.18688670848511
 20
23.48938753752199
 30
0
 40
1
 41
0
 71
    8
 72
    1
  1

  7
standard
210
0
220
0
230
1
 50
-82.37231560142789
 73
    2
 44
1
  0
ENDBLK
  5
55
330
53
100
AcDbEntity
  8
0
100
AcDbBlockEnd
  0
BLOCK
  5
57
330
56
100
AcDbEntity
  8
0
100
AcDbBlockBegin
  2
*D6
 70
    1
 10
0
 20
0
  3
*D6
  1

  0
LINE
  5
84
100
AcDbEntity
  8
Coordinate_System
  6
ByLayer
 62
  256
370
   -1
100
AcDbLine
 10
24
 20
0
 11
0
 21
0
  0
SOLID
  5
85
100
AcDbEntity
  8
Coordinate_System
  6
ByLayer
 62
  256
370
   -1
100
AcDbTrace
 10
24
 20
0
 30
0
 11
23
 21
-0.1665138631091362
 31
0
 12
23
 22
0.1665138631091362
 32
0
 13
23
 23
0.1665138631091362
 33
0
  0
ENDBLK
  5
58
330
56
100
AcDbEntity
  8
0
100
AcDbBlockEnd
  0
BLOCK
  5
5A
330
59
100
AcDbEntity
  8
0
100
AcDbBlockBegin
  2
*D8
 70
    1
 10
0
 20
0
  3
*D8
  1

  0
LINE
  5
86
100
AcDbEntity
  8
Parameters_side_height+
  6
ByBlock
 62
    0
370
    9
100
AcDbLine
 10
-20
 20
24
 11
-20
 21
30
  0
MTEXT
  5
87
100
AcDbEntity
  8
Parameters_side_height+
  6
CONTINUOUS
 62
    0
370
   -2
100
AcDbMText
 10
-23
 20
27.62500000000012
 30
0
 40
1
 41
10.00000000000023
 71
    5
 72
    1
  1
bottom_height
  7
standard
210
0
220
0
230
1
 50
90
 73
    2
 44
1
  0
SOLID
  5
88
100
AcDbEntity
  8
Parameters_side_height+
  6
ByBlock
 62
    0
370
    9
100
AcDbTrace
 10
-20
 20
24
 30
0
 11
-20.16651386310913
 21
25
 31
0
 12
-19.83348613689086
 22
25
 32
0
 13
-19.83348613689086
 23
25
 33
0
  0
SOLID
  5
89
100
AcDbEntity
  8
Parameters_side_height+
  6
ByBlock
 62
    0
370
    9
100
AcDbTrace
 10
-20
 20
30
 30
0
 11
-19.83348613689087
 21
29
 31
0
 12
-20.16651386310913
 22
29
 32
0
 13
-20.16651386310913
 23
29
 33
0
  0
LINE
  5
8A
100
AcDbEntity
  8
Parameters_side_height+
  6
ByBlock
 62
    0
370
   -2
100
AcDbLine
 10
-16.625
 20
24
 11
-21.25
 21
24
  0
LINE
  5
8B
100
AcDbEntity
  8
Parameters_side_height+
  6
ByBlock
 62
    0
370
   -2
100
AcDbLine
 10
-12.625
 20
30
 11
-21.25
 21
30
  0
ENDBLK
  5
5B
330
59
100
AcDbEntity
  8
0
100
AcDbBlockEnd
  0
BLOCK
  5
5D
330
5C
100
AcDbEntity
  8
0
100
AcDbBlockBegin
  2
*D12
 70
    1
 10
0
 20
0
  3
*D12
  1

  0
ARC
  5
8C
100
AcDbEntity
  8
Parameters_side_height+
  6
ByBlock
 62
    0
370
    9
100
AcDbCircle
 10
-11.99998603740028
 20
30
 40
3.605539657887101
100
AcDbArc
 50
236.3097321268351
 51
0
  0
SOLID
  5
8D
100
AcDbEntity
  8
Parameters_side_height+
  6
ByBlock
 62
    0
370
    9
100
AcDbTrace
 10
-13.99999008323616
 20
27.00001665984013
 30
0
 11
-13.0269246105588
 21
26.71563935327241
 31
0
 12
-13.17157942668489
 22
26.41566860369565
 32
0
 13
-13.17157942668489
 23
26.41566860369565
 33
0
  0
SOLID
  5
8E
100
AcDbEntity
  8
Parameters_side_height+
  6
ByBlock
 62
    0
370
    9
100
AcDbTrace
 10
-8.394446379513179
 20
30
 30
0
 11
-8.367762504781226
 21
28.98658259466456
 31
0
 12
-8.69759314918031
 22
29.03261749930655
 32
0
 13
-8.69759314918031
 23
29.03261749930655
 33
0
  0
MTEXT
  5
8F
100
AcDbEntity
  8
Parameters_side_height+
  6
CONTINUOUS
 62
    0
370
   -2
100
AcDbMText
 10
-10.59359937191929
 20
27.37213143414763
 30
0
 40
1
 41
0
 71
    8
 72
    1
  1

  7
standard
210
0
220
0
230
1
 50
28.15486606341752
 73
    2
 44
1
  0
ENDBLK
  5
5E
330
5C
100
AcDbEntity
  8
0
100
AcDbBlockEnd
  0
BLOCK
  5
60
330
5F
100
AcDbEntity
  8
0
100
AcDbBlockBegin
  2
*D2
 70
    1
 10
0
 20
0
  3
*D2
  1

  0
LINE
  5
90
100
AcDbEntity
  8
Parameters_side_height+
  6
ByBlock
 62
    0
370
    9
100
AcDbLine
 10
-12
 20
38
 11
12
 21
38
  0
MTEXT
  5
91
100
AcDbEntity
  8
Parameters_side_height+
  6
CONTINUOUS
 62
    0
370
   -2
100
AcDbMText
 10
1.377682148050174e-16
 20
40.25
 30
0
 40
1
 41
9.444444444444581
 71
    5
 72
    1
  1
bottom_width
  7
standard
210
0
220
0
230
1
 50
0
 73
    2
 44
1
  0
SOLID
  5
92
100
AcDbEntity
  8
Parameters_side_height+
  6
ByBlock
 62
    0
370
    9
100
AcDbTrace
 10
-12
 20
38
 30
0
 11
-11
 21
38.16651386310914
 31
0
 12
-11
 22
37.83348613689086
 32
0
 13
-11
 23
37.83348613689086
 33
0
  0
SOLID
  5
93
100
AcDbEntity
  8
Parameters_side_height+
  6
ByBlock
 62
    0
370
    9
100
AcDbTrace
 10
12
 20
38
 30
0
 11
11
 21
37.83348613689086
 31
0
 12
11
 22
38.16651386310914
 32
0
 13
11
 23
38.16651386310914
 33
0
  0
LINE
  5
94
100
AcDbEntity
  8
Parameters_side_height+
  6
ByBlock
 62
    0
370
   -2
100
AcDbLine
 10
-12
 20
30.625
 11
-12
 21
39.25
  0
LINE
  5
95
100
AcDbEntity
  8
Parameters_side_height+
  6
ByBlock
 62
    0
370
   -2
100
AcDbLine
 10
12
 20
30.625
 11
12
 21
39.25
  0
ENDBLK
  5
61
330
5F
100
AcDbEntity
  8
0
100
AcDbBlockEnd
  0
BLOCK
  5
63
330
62
100
AcDbEntity
  8
0
100
AcDbBlockBegin
  2
*D9
 70
    1
 10
0
 20
0
  3
*D9
  1

  0
LINE
  5
96
100
AcDbEntity
  8
Parameters_side_height+
  6
ByBlock
 62
    0
370
    9
100
AcDbLine
 10
-20
 20
6.000000000000002
 11
-20
 21
8.526512829121202e-16
  0
MTEXT
  5
97
100
AcDbEntity
  8
Parameters_side_height+
  6
CONTINUOUS
 62
    0
370
   -2
100
AcDbMText
 10
-23
 20
2.791666666666805
 30
0
 40
1
 41
10.33333333333361
 71
    5
 72
    1
  1
opening_height
  7
standard
210
0
220
0
230
1
 50
90
 73
    2
 44
1
  0
SOLID
  5
98
100
AcDbEntity
  8
Parameters_side_height+
  6
ByBlock
 62
    0
370
    9
100
AcDbTrace
 10
-20
 20
6.000000000000002
 30
0
 11
-19.83348613689087
 21
5.000000000000002
 31
0
 12
-20.16651386310913
 22
5.000000000000002
 32
0
 13
-20.16651386310913
 23
5.000000000000002
 33
0
  0
SOLID
  5
99
100
AcDbEntity
  8
Parameters_side_height+
  6
ByBlock
 62
    0
370
    9
100
AcDbTrace
 10
-20
 20
8.526512829121202e-16
 30
0
 11
-20.16651386310913
 21
1.000000000000001
 31
0
 12
-19.83348613689086
 22
1.000000000000001
 32
0
 13
-19.83348613689086
 23
1.000000000000001
 33
0
  0
LINE
  5
9A
100
AcDbEntity
  8
Parameters_side_height+
  6
ByBlock
 62
    0
370
   -2
100
AcDbLine
 10
-10.625
 20
6
 11
-21.25
 21
6.000000000000002
  0
LINE
  5
9B
100
AcDbEntity
  8
Parameters_side_height+
  6
ByBlock
 62
    0
370
   -2
100
AcDbLine
 10
-8.625
 20
7.654042494670958e-17
 11
-21.25
 21
1.005732132805539e-15
  0
ENDBLK
  5
64
330
62
100
AcDbEntity
  8
0
100
AcDbBlockEnd
  0
BLOCK
  5
66
330
65
100
AcDbEntity
  8
0
100
AcDbBlockBegin
  2
*D14
 70
    1
 10
0
 20
0
  3
*D14
  1

  0
LINE
  5
9C
100
AcDbEntity
  8
Parameters_side_height+
  6
ByBlock
 62
    0
370
   -2
100
AcDbLine
 10
16.19764235376052
 20
24.59292706128157
 11
22.5312283286997
 21
43.59368498609911
  0
LINE
  5
9D
100
AcDbEntity
  8
Parameters_side_height+
  6
ByBlock
 62
    0
370
   -2
100
AcDbLine
 10
-16.19764235376052
 20
24.59292706128157
 11
-22.53122832869971
 21
43.59368498609911
  0
ARC
  5
9E
100
AcDbEntity
  8
Parameters_side_height+
  6
ByBlock
 62
    0
370
    9
100
AcDbCircle
 10
0
 20
-24
 40
70
100
AcDbArc
 50
71.56505117707799
 51
108.434948822922
  0
SOLID
  5
9F
100
AcDbEntity
  8
Parameters_side_height+
  6
ByBlock
 62
    0
370
    9
100
AcDbTrace
 10
22.13594362117865
 20
42.40783086353596
 30
0
 11
21.13349914974497
 21
42.55893330659887
 31
0
 12
21.23655239741443
 22
42.87561531520512
 32
0
 13
21.23655239741443
 23
42.87561531520512
 33
0
  0
SOLID
  5
A0
100
AcDbEntity
  8
Parameters_side_height+
  6
ByBlock
 62
    0
370
    9
100
AcDbTrace
 10
-22.13594362117867
 20
42.40783086353596
 30
0
 11
-21.23655239741444
 21
42.87561531520512
 31
0
 12
-21.13349914974498
 22
42.55893330659887
 32
0
 13
-21.13349914974498
 23
42.55893330659887
 33
0
  0
MTEXT
  5
A1
100
AcDbEntity
  8
Parameters_side_height+
  6
CONTINUOUS
 62
    0
370
   -2
100
AcDbMText
 10
4.324534009489091e-15
 20
46.625
 30
0
 40
1
 41
7.444825416469195
 71
    8
 72
    1
  1
slot_angle
  7
standard
210
0
220
0
230
1
 50
360
 73
    2
 44
1
  0
ENDBLK
  5
67
330
65
100
AcDbEntity
  8
0
100
AcDbBlockEnd
  0
BLOCK
  5
69
330
68
100
AcDbEntity
  8
0
100
AcDbBlockBegin
  2
*D1
 70
    1
 10
0
 20
0
  3
*D1
  1

  0
LINE
  5
A2
100
AcDbEntity
  8
Coordinate_System
  6
ByLayer
 62
  256
370
   -1
100
AcDbLine
 10
0
 20
24
 11
0
 21
0
  0
SOLID
  5
A3
100
AcDbEntity
  8
Coordinate_System
  6
ByLayer
 62
  256
370
   -1
100
AcDbTrace
 10
0
 20
24
 30
0
 11
0.1665138631091361
 21
23
 31
0
 12
-0.1665138631091362
 22
23
 32
0
 13
-0.1665138631091362
 23
23
 33
0
  0
ENDBLK
  5
6A
330
68
100
AcDbEntity
  8
0
100
AcDbBlockEnd
  0
BLOCK
  5
6C
330
6B
100
AcDbEntity
  8
0
100
AcDbBlockBegin
  2
*D7
 70
    1
 10
0
 20
0
  3
*D7
  1

  0
LINE
  5
A4
100
AcDbEntity
  8
Parameters_side_height+
  6
ByBlock
 62
    0
370
    9
100
AcDbLine
 10
-20
 20
6
 11
-20
 21
24
  0
MTEXT
  5
A5
100
AcDbEntity
  8
Parameters_side_height+
  6
CONTINUOUS
 62
    0
370
   -2
100
AcDbMText
 10
-23
 20
15
 30
0
 40
1
 41
8.00038097202475
 71
    5
 72
    1
  1
side_height
  7
standard
210
0
220
0
230
1
 50
90
 73
    2
 44
1
  0
SOLID
  5
A6
100
AcDbEntity
  8
Parameters_side_height+
  6
ByBlock
 62
    0
370
    9
100
AcDbTrace
 10
-20
 20
6
 30
0
 11
-20.16651386310913
 21
7
 31
0
 12
-19.83348613689086
 22
7
 32
0
 13
-19.83348613689086
 23
7
 33
0
  0
SOLID
  5
A7
100
AcDbEntity
  8
Parameters_side_height+
  6
ByBlock
 62
    0
370
    9
100
AcDbTrace
 10
-20
 20
24
 30
0
 11
-19.83348613689087
 21
23
 31
0
 12
-20.16651386310913
 22
23
 32
0
 13
-20.16651386310913
 23
23
 33
0
  0
LINE
  5
A8
100
AcDbEntity
  8
Parameters_side_height+
  6
ByBlock
 62
    0
370
   -2
100
AcDbLine
 10
-10.625
 20
6
 11
-21.25
 21
6
  0
LINE
  5
A9
100
AcDbEntity
  8
Parameters_side_height+
  6
ByBlock
 62
    0
370
   -2
100
AcDbLine
 10
-16.625
 20
24
 11
-21.25
 21
24
  0
ENDBLK
  5
6D
330
6B
100
AcDbEntity
  8
0
100
AcDbBlockEnd
  0
BLOCK
  5
6F
330
6E
100
AcDbEntity
  8
0
100
AcDbBlockBegin
  2
*D10
 70
    1
 10
0
 20
0
  3
*D10
  1

  0
SOLID
  5
AA
100
AcDbEntity
  8
Parameters_side_height+
  6
ByBlock
 62
    0
370
    9
100
AcDbTrace
 10
15.15097559905237
 20
23.4143530542858
 30
0
 11
16.13577878413132
 21
23.65495553404419
 31
0
 12
16.1606066683589
 22
23.32285458162927
 32
0
 13
16.1606066683589
 23
23.32285458162927
 33
0
  0
LINE
  5
AB
100
AcDbEntity
  8
Parameters_side_height+
  6
ByBlock
 62
    0
370
    9
100
AcDbLine
 10
7.173238581510446
 20
22.81793702587838
 11
32.21484908903444
 21
24.69004911117056
  0
MTEXT
  5
AC
100
AcDbEntity
  8
Parameters_side_height+
  6
CONTINUOUS
 62
    0
370
   -2
100
AcDbMText
 10
29
 20
26
 30
0
 40
1
 41
15.11149259742306
 71
    5
 72
    1
  1
slope_bottom_radius
  7
standard
210
0
220
0
230
1
 50
4.27548193480434
 73
    2
 44
1
  0
ENDBLK
  5
70
330
6E
100
AcDbEntity
  8
0
100
AcDbBlockEnd
  0
BLOCK
  5
72
330
71
100
AcDbEntity
  8
0
100
AcDbBlockBegin
  2
*D4
 70
    1
 10
0
 20
0
  3
*D4
  1

  0
SOLID
  5
AD
100
AcDbEntity
  8
Parameters_side_height+
  6
ByBlock
 62
    0
370
    9
100
AcDbTrace
 10
-12.25436066081396
 20
29.20367236354056
 30
0
 11
-12.98649854985273
 21
29.90488629526282
 31
0
 12
-12.71977061915817
 22
30.10429461358859
 32
0
 13
-12.71977061915817
 23
30.10429461358859
 33
0
  0
LINE
  5
AE
100
AcDbEntity
  8
Parameters_side_height+
  6
ByBlock
 62
    0
370
    9
100
AcDbLine
 10
-9.859264966048013
 20
26
 11
-19.43964805305367
 21
38.81468986606428
  0
MTEXT
  5
AF
100
AcDbEntity
  8
Parameters_side_height+
  6
CONTINUOUS
 62
    0
370
   -2
100
AcDbMText
 10
-16
 20
37
 30
0
 40
1
 41
10.00000051428734
 71
    5
 72
    1
  1
bottom_radius
  7
standard
210
0
220
0
230
1
 50
306.7821367734995
 73
    2
 44
1
  0
ENDBLK
  5
73
330
71
100
AcDbEntity
  8
0
100
AcDbBlockEnd
  0
BLOCK
  5
75
330
74
100
AcDbEntity
  8
0
100
AcDbBlockBegin
  2
*D11
 70
    1
 10
0
 20
0
  3
*D11
  1

  0
LINE
  5
B0
100
AcDbEntity
  8
Parameters_side_height+
  6
ByBlock
 62
    0
370
    9
100
AcDbLine
 10
-16
 20
42
 11
16
 21
42
  0
MTEXT
  5
B1
100
AcDbEntity
  8
Parameters_side_height+
  6
CONTINUOUS
 62
    0
370
   -2
100
AcDbMText
 10
6.888638245203862e-17
 20
43.125
 30
0
 40
1
 41
13.666667180954
 71
    5
 72
    1
  1
bottom_side_width
  7
standard
210
0
220
0
230
1
 50
0
 73
    2
 44
1
  0
SOLID
  5
B2
100
AcDbEntity
  8
Parameters_side_height+
  6
ByBlock
 62
    0
370
    9
100
AcDbTrace
 10
-16
 20
42
 30
0
 11
-15
 21
42.16651386310914
 31
0
 12
-15
 22
41.83348613689086
 32
0
 13
-15
 23
41.83348613689086
 33
0
  0
SOLID
  5
B3
100
AcDbEntity
  8
Parameters_side_height+
  6
ByBlock
 62
    0
370
    9
100
AcDbTrace
 10
16
 20
42
 30
0
 11
15
 21
41.83348613689086
 31
0
 12
15
 22
42.16651386310914
 32
0
 13
15
 23
42.16651386310914
 33
0
  0
LINE
  5
B4
100
AcDbEntity
  8
Parameters_side_height+
  6
ByBlock
 62
    0
370
   -2
100
AcDbLine
 10
-16
 20
24.625
 11
-16
 21
43.25
  0
LINE
  5
B5
100
AcDbEntity
  8
Parameters_side_height+
  6
ByBlock
 62
    0
370
   -2
100
AcDbLine
 10
16
 20
24.625
 11
16
 21
43.25
  0
ENDBLK
  5
76
330
74
100
AcDbEntity
  8
0
100
AcDbBlockEnd
  0
BLOCK
  5
78
330
77
100
AcDbEntity
  8
0
100
AcDbBlockBegin
  2
*D5
 70
    1
 10
0
 20
0
  3
*D5
  1

  0
LINE
  5
B6
100
AcDbEntity
  8
Parameters_side_height+
  6
ByBlock
 62
    0
370
    9
100
AcDbLine
 10
-8
 20
-8
 11
8
 21
-8
  0
MTEXT
  5
B7
100
AcDbEntity
  8
Parameters_side_height+
  6
CONTINUOUS
 62
    0
370
   -2
100
AcDbMText
 10
0
 20
-9
 30
0
 40
1
 41
9.777777777777963
 71
    5
 72
    1
  1
opening_width
  7
standard
210
0
220
0
230
1
 50
0
 73
    2
 44
1
  0
SOLID
  5
B8
100
AcDbEntity
  8
Parameters_side_height+
  6
ByBlock
 62
    0
370
    9
100
AcDbTrace
 10
-8
 20
-8
 30
0
 11
-7
 21
-7.833486136890864
 31
0
 12
-7
 22
-8.166513863109136
 32
0
 13
-7
 23
-8.166513863109136
 33
0
  0
SOLID
  5
B9
100
AcDbEntity
  8
Parameters_side_height+
  6
ByBlock
 62
    0
370
    9
100
AcDbTrace
 10
8
 20
-8
 30
0
 11
7
 21
-8.166513863109136
 31
0
 12
7
 22
-7.833486136890864
 32
0
 13
7
 23
-7.833486136890864
 33
0
  0
LINE
  5
BA
100
AcDbEntity
  8
Parameters_side_height+
  6
ByBlock
 62
    0
370
   -2
100
AcDbLine
 10
-8
 20
-0.625
 11
-8
 21
-9.25
  0
LINE
  5
BB
100
AcDbEntity
  8
Parameters_side_height+
  6
ByBlock
 62
    0
370
   -2
100
AcDbLine
 10
8
 20
-0.625
 11
8
 21
-9.25
  0
ENDBLK
  5
79
330
77
100
AcDbEntity
  8
0
100
AcDbBlockEnd
  0
ENDSEC
  0
SECTION
  2
ENTITIES
  0
HATCH
  5
BC
100
AcDbEntity
  8
0
  6
ByLayer
 62
  256
370
    9
100
AcDbHatch
 10
0
 20
0
 30
0
210
0
220
0
230
1
  2
angle
 70
    0
 71
    0
 91
    1
 92
    0
 93
    1
 72
    2
 10
-25
 20
18
 40
3.605551275463989
 50
0
 51
360
 73
    1
 97
    0
 75
    0
 76
    1
 52
0.03490658503988659
 41
1
 77
    0
 78
    0
 98
    0
  0
MTEXT
  5
BD
100
AcDbEntity
  8
Coordinate_System
  6
ByLayer
 62
  256
370
   -1
100
AcDbMText
 10
24
 20
0
 30
0
 40
1
 41
0.4444444444444444
 71
    1
 72
    1
  1
x
  7
STANDARD
210
0
220
0
230
1
 50
0
 73
    2
 44
1
  0
MTEXT
  5
BE
100
AcDbEntity
  8
Coordinate_System
  6
ByLayer
 62
  256
370
   -1
100
AcDbMText
 10
-1
 20
25
 30
0
 40
1
 41
0.4444444444444444
 71
    1
 72
    1
  1
y
  7
STANDARD
210
0
220
0
230
1
 50
0
 73
    2
 44
1
  0
LEADER
  5
BF
100
AcDbEntity
  8
Coordinate_System
  6
ByLayer
 62
  256
370
   -1
100
AcDbLeader
  3
Standard
 71
    1
 72
    0
 73
    3
 74
    0
 75
    0
 40
1
 41
10
 76
2
 76
2
 10
0
 20
24
 30
0
 10
0
 20
0
 30
0
  0
ARC
  5
C0
100
AcDbEntity
  8
0
  6
CONTINUOUS
 62
  256
370
    9
100
AcDbCircle
 10
-9.859260000000001
 20
26
 40
4
100
AcDbArc
 50
90
 51
146.31
  0
ARC
  5
C1
100
AcDbEntity
  8
0
  6
CONTINUOUS
 62
  256
370
    9
100
AcDbCircle
 10
9.859260000000001
 20
26
 40
4
100
AcDbArc
 50
33.69010000000001
 51
90
  0
ARC
  5
C2
100
AcDbEntity
  8
0
  6
CONTINUOUS
 62
  256
370
    9
100
AcDbCircle
 10
7.17324
 20
22.818
 40
8
100
AcDbArc
 50
341.565
 51
33.69010000000001
  0
LINE
  5
C3
100
AcDbEntity
  8
0
  6
ByLayer
 62
  256
370
    9
100
AcDbLine
 10
-8
 20
0
 11
-14.76270412474242
 21
20.28817109289034
  0
ARC
  5
C4
100
AcDbEntity
  8
0
  6
CONTINUOUS
 62
  256
370
    9
100
AcDbCircle
 10
-7.17324
 20
22.818
 40
8
100
AcDbArc
 50
146.31
 51
198.435
  0
LINE
  5
C5
100
AcDbEntity
  8
0
  6
ByLayer
 62
  256
370
    9
100
AcDbLine
 10
-13.84294579234203
 20
27.23558131148696
 11
-13.18746379231823
 21
28.21879686244562
  0
LINE
  5
C6
100
AcDbEntity
  8
0
  6
ByLayer
 62
  256
370
    9
100
AcDbLine
 10
-9.859260667541317
 20
30
 11
0
 21
30
  0
LINE
  5
C7
100
AcDbEntity
  8
0
  6
DOTTINY
 62
  256
370
    5
100
AcDbLine
 10
-16
 20
24
 11
-14.76272
 21
20.2882
  0
LINE
  5
C8
100
AcDbEntity
  8
0
  6
DOTTINY
 62
  256
370
    5
100
AcDbLine
 10
-13.18744
 20
28.2188
 11
-12
 21
30
  0
LINE
  5
C9
100
AcDbEntity
  8
0
  6
ByLayer
 62
  256
370
    9
100
AcDbLine
 10
9.859260551309148
 20
30
 11
0
 21
30
  0
LINE
  5
CA
100
AcDbEntity
  8
0
  6
DOTTINY
 62
  256
370
    5
100
AcDbLine
 10
-16
 20
24
 11
-13.84294
 21
27.2356
  0
LINE
  5
CB
100
AcDbEntity
  8
0
  6
ByLayer
 62
  256
370
    9
100
AcDbLine
 10
8
 20
0
 11
14.76270412474242
 21
20.28817109289032
  0
LINE
  5
CC
100
AcDbEntity
  8
0
  6
ByLayer
 62
  256
370
    9
100
AcDbLine
 10
13.84294579234203
 20
27.23558131148696
 11
13.1874599197821
 21
28.21880267125368
  0
LINE
  5
CD
100
AcDbEntity
  8
0
  6
DOTTINY
 62
  256
370
    5
100
AcDbLine
 10
9.859260000000001
 20
30
 11
12
 21
30
  0
LINE
  5
CE
100
AcDbEntity
  8
0
  6
DOTTINY
 62
  256
370
    5
100
AcDbLine
 10
12
 20
30
 11
13.18746
 21
28.2188
  0
LINE
  5
CF
100
AcDbEntity
  8
0
  6
DOTTINY
 62
  256
370
    5
100
AcDbLine
 10
13.84294
 20
27.2356
 11
16
 21
24
  0
LINE
  5
D0
100
AcDbEntity
  8
0
  6
DOTTINY
 62
  256
370
    5
100
AcDbLine
 10
16
 20
24
 11
14.76272
 21
20.2882
  0
LINE
  5
D1
100
AcDbEntity
  8
0
  6
DOT2
 62
  256
370
    5
100
AcDbLine
 10
-10
 20
6
 11
10
 21
6
  0
LINE
  5
D2
100
AcDbEntity
  8
0
  6
DOTTINY
 62
  256
370
    5
100
AcDbLine
 10
-12
 20
30
 11
-9.859260000000001
 21
30
  0
DIMENSION
  5
D3
100
AcDbEntity
  8
Parameters_side_height+
  6
ByLayer
 62
  256
370
    5
100
AcDbDimension
  2
*D2
 10
12
 20
38
 30
0
 11
1.377682148050174e-16
 21
40.25
 31
0
 70
   32
  1
bottom_width
 71
    5
  3
Standard
 53
0
210
0
220
0
230
1
100
AcDbAlignedDimension
 13
-12
 23
30
 33
0
 14
12
 24
30
 34
0
100
AcDbRotatedDimension
  0
DIMENSION
  5
D4
100
AcDbEntity
  8
Parameters_side_height+
  6
ByLayer
 62
  256
370
    5
100
AcDbDimension
  2
*D3
 10
20
 20
30
 30
0
 11
22
 21
15
 31
0
 70
   32
  1
height
 71
    5
  3
Standard
 53
0
210
0
220
0
230
1
100
AcDbAlignedDimension
 13
8
 23
0
 33
0
 14
12
 24
30
 34
0
 50
90
100
AcDbRotatedDimension
  0
DIMENSION
  5
D5
100
AcDbEntity
  8
Parameters_side_height+
  6
ByLayer
 62
  256
370
    5
100
AcDbDimension
  2
*D4
 10
-9.859264966048013
 20
26
 30
0
 11
-16
 21
37
 31
0
 70
   36
  1
bottom_radius
 71
    5
  3
Standard
 53
0
210
0
220
0
230
1
100
AcDbRadialDimension
 15
-12.25436066081396
 25
29.20367236354056
 35
0
 40
0
  0
DIMENSION
  5
D6
100
AcDbEntity
  8
Parameters_side_height+
  6
ByLayer
 62
  256
370
    5
100
AcDbDimension
  2
*D5
 10
8
 20
-8
 30
0
 11
0
 21
-9
 31
0
 70
   32
  1
opening_width
 71
    5
  3
Standard
 53
0
210
0
220
0
230
1
100
AcDbAlignedDimension
 13
-8
 23
0
 33
0
 14
8
 24
0
 34
0
100
AcDbRotatedDimension
  0
LEADER
  5
D7
100
AcDbEntity
  8
Coordinate_System
  6
ByLayer
 62
  256
370
   -1
100
AcDbLeader
  3
Standard
 71
    1
 72
    0
 73
    3
 74
    0
 75
    0
 40
1
 41
10
 76
2
 76
2
 10
24
 20
0
 30
0
 10
0
 20
0
 30
0
  0
MTEXT
  5
D8
100
AcDbEntity
  8
0
  6
ByLayer
 62
  256
370
   -1
100
AcDbMText
 10
1
 20
3
 30
0
 40
1
 41
8.194444232442434
 71
    5
 72
    1
  1
Slot opening
  7
standard
210
0
220
0
230
1
 50
0
 73
    2
 44
1
  0
MTEXT
  5
D9
100
AcDbEntity
  8
0
  6
ByLayer
 62
  256
370
   -1
100
AcDbMText
 10
-1
 20
16
 30
0
 40
1
 41
8.416666666666895
 71
    5
 72
    1
  1
Winding area
  7
standard
210
0
220
0
230
1
 50
0
 73
    2
 44
1
  0
DIMENSION
  5
DA
100
AcDbEntity
  8
Parameters_side_height+
  6
ByLayer
 62
  256
370
   -1
100
AcDbDimension
  2
*D7
 10
-20
 20
24
 30
0
 11
-23
 21
15
 31
0
 70
   32
  1
side_height
 71
    5
  3
Standard
 53
0
210
0
220
0
230
1
100
AcDbAlignedDimension
 13
-10
 23
6
 33
0
 14
-16
 24
24
 34
0
 50
90
100
AcDbRotatedDimension
  0
DIMENSION
  5
DB
100
AcDbEntity
  8
Parameters_side_height+
  6
ByLayer
 62
  256
370
   -1
100
AcDbDimension
  2
*D8
 10
-20
 20
30
 30
0
 11
-23
 21
19
 31
0
 70
   32
  1
bottom_height
 71
    5
  3
Standard
 53
0
210
0
220
0
230
1
100
AcDbAlignedDimension
 13
-16
 23
24
 33
0
 14
-12
 24
30
 34
0
 50
90
100
AcDbRotatedDimension
  0
DIMENSION
  5
DC
100
AcDbEntity
  8
Parameters_side_height+
  6
ByLayer
 62
  256
370
    5
100
AcDbDimension
  2
*D9
 10
-20
 20
0
 30
0
 11
-23
 21
-6
 31
0
 70
   32
  1
opening_height
 71
    5
  3
Standard
 53
0
210
0
220
0
230
1
100
AcDbAlignedDimension
 13
-10
 23
6
 33
0
 14
-8
 24
0
 34
0
 50
90
100
AcDbRotatedDimension
  0
DIMENSION
  5
DD
100
AcDbEntity
  8
Parameters_side_height+
  6
ByLayer
 62
  256
370
    5
100
AcDbDimension
  2
*D10
 10
7.173238581510446
 20
22.81793702587838
 30
0
 11
29
 21
26
 31
0
 70
   36
  1
slope_bottom_radius
 71
    5
  3
Standard
 53
0
210
0
220
0
230
1
100
AcDbRadialDimension
 15
15.15097559905237
 25
23.4143530542858
 35
0
 40
0
  0
DIMENSION
  5
DE
100
AcDbEntity
  8
Parameters_side_height+
  6
ByLayer
 62
  256
370
   -1
100
AcDbDimension
  2
*D11
 10
16
 20
42
 30
0
 11
6.888638245203862e-17
 21
43.125
 31
0
 70
   32
  1
bottom_side_width
 71
    5
  3
Standard
 53
0
210
0
220
0
230
1
100
AcDbAlignedDimension
 13
-16
 23
24
 33
0
 14
16
 24
24
 34
0
100
AcDbRotatedDimension
  0
DIMENSION
  5
DF
100
AcDbEntity
  8
Parameters_side_height+
  6
ByLayer
 62
  256
370
   -1
100
AcDbDimension
  2
*D12
 10
0
 20
30
 30
0
 11
0
 21
0
 31
0
 70
   34
  1
 
 71
    5
  3
Standard
 53
0
210
0
220
0
230
1
100
AcDb2LineAngularDimension
 13
-13.18746379231823
 23
28.21879686244562
 33
0
 14
-13.84294579234203
 24
27.23558131148696
 34
0
 15
-9.859260667541317
 25
30
 35
0
 16
-9
 26
28
 36
0
  0
DIMENSION
  5
E0
100
AcDbEntity
  8
Parameters_side_height+
  6
ByLayer
 62
  256
370
   -1
100
AcDbDimension
  2
*D13
 10
8
 20
0
 30
0
 11
0
 21
0
 31
0
 70
   34
  1
 
 71
    5
  3
Standard
 53
0
210
0
220
0
230
1
100
AcDb2LineAngularDimension
 13
13.84294579234203
 23
27.23558131148696
 33
0
 14
13.1874599197821
 24
28.21880267125368
 34
0
 15
14.76270412474242
 25
20.28817109289032
 35
0
 16
12
 26
22
 36
0
  0
DIMENSION
  5
E1
100
AcDbEntity
  8
Parameters_side_height+
  6
ByLayer
 62
  256
370
    5
100
AcDbDimension
  2
*D14
 10
-16
 20
24
 30
0
 11
0
 21
0
 31
0
 70
   34
  1
slot_angle
 71
    5
  3
Standard
 53
0
210
0
220
0
230
1
100
AcDb2LineAngularDimension
 13
8
 23
0
 33
0
 14
16
 24
24
 34
0
 15
-8
 25
0
 35
0
 16
0
 26
46
 36
0
  0
TEXT
  5
E2
100
AcDbEntity
  8
Parameters_side_height+
  6
ByLayer
 62
  256
370
   -1
100
AcDbText
 10
-13
 20
25
 30
0
 40
1
  1
bottom_angle
 50
0
 41
1
 51
0
  7

 71
    0
210
0
220
0
230
1
100
AcDbText
  0
TEXT
  5
E3
100
AcDbEntity
  8
Parameters_side_height+
  6
ByLayer
 62
  256
370
   -1
100
AcDbText
 10
-2
 20
27
 30
0
 40
1
  1
bottom_side_angle
 50
0
 41
1
 51
0
  7

 71
    0
210
0
220
0
230
1
100
AcDbText
  0
ENDSEC
  0
SECTION
  2
OBJECTS
  0
DICTIONARY
  5
C
330
0
100
AcDbDictionary
281
    1
  3
ACAD_GROUP
350
D
  0
DICTIONARY
  5
D
330
C
100
AcDbDictionary
281
    1
  0
PLOTSETTINGS
  5
E4
100
AcDbPlotSettings
  6
1x1
 40
0
 41
0
 42
0
 43
0
  0
ENDSEC
  0
EOF
