<?xml version="1.0" encoding="UTF-8" standalone="no"?>
<svg width="171.45mm" height="152.4mm"
 viewBox="0 0 486 432"
 xmlns="http://www.w3.org/2000/svg" xmlns:xlink="http://www.w3.org/1999/xlink"  version="1.2" baseProfile="tiny">
<title>Qt SVG Document</title>
<desc>Generated with Qt</desc>
<defs>
</defs>
<g fill="none" stroke="black" stroke-width="1" fill-rule="evenodd" stroke-linecap="square" stroke-linejoin="bevel" >

<g fill="#ffffff" fill-opacity="1" stroke="none" transform="matrix(1,0,0,1,0,0)"
font-family="Ubuntu Sans" font-size="11" font-weight="400" font-style="normal" 
>
<rect x="0" y="0" width="486" height="432"/>
</g>

<g fill="none" stroke="#ff0000" stroke-opacity="1" stroke-width="1" stroke-linecap="round" stroke-linejoin="round" transform="matrix(1,0,0,1,0,0)"
font-family="Ubuntu Sans" font-size="11" font-weight="400" font-style="normal" 
>
<polyline fill="none" vector-effect="non-scaling-stroke" points="475,308 480,301 " />
<polyline fill="none" vector-effect="non-scaling-stroke" points="475,301 480,308 " />
<polyline fill="none" vector-effect="non-scaling-stroke" points="236,57 232,67 " />
<polyline fill="none" vector-effect="non-scaling-stroke" points="232,67 231,67 " />
<polyline fill="none" vector-effect="non-scaling-stroke" points="231,57 233,64 " />
<polyline fill="none" vector-effect="non-scaling-stroke" points="241,64 241,298 " />
</g>

<g fill="#ff0000" fill-opacity="1" stroke="#ff0000" stroke-opacity="1" stroke-width="1" stroke-linecap="round" stroke-linejoin="round" transform="matrix(1,0,0,1,0,0)"
font-family="Ubuntu Sans" font-size="11" font-weight="400" font-style="normal" 
>
<path vector-effect="non-scaling-stroke" fill-rule="evenodd" d="M241,64 L243,74 L239,74 L241,64"/>
</g>

<g fill="none" stroke="#000000" stroke-opacity="1" stroke-width="1" stroke-linecap="round" stroke-linejoin="round" transform="matrix(1,0,0,1,0,0)"
font-family="Ubuntu Sans" font-size="11" font-weight="400" font-style="normal" 
>
<polyline fill="none" vector-effect="non-scaling-stroke" points="182,298 182,210 " />
<polyline fill="none" vector-effect="non-scaling-stroke" points="182,210 124,210 " />
<polyline fill="none" vector-effect="non-scaling-stroke" points="124,210 124,5 " />
<polyline fill="none" vector-effect="non-scaling-stroke" points="124,5 358,5 " />
<polyline fill="none" vector-effect="non-scaling-stroke" points="358,5 358,210 " />
<polyline fill="none" vector-effect="non-scaling-stroke" points="358,210 300,210 " />
<polyline fill="none" vector-effect="non-scaling-stroke" points="300,210 300,298 " />
</g>

<g fill="none" stroke="#0000ff" stroke-opacity="1" stroke-width="1" stroke-linecap="round" stroke-linejoin="round" transform="matrix(1,0,0,1,0,0)"
font-family="Ubuntu Sans" font-size="11" font-weight="400" font-style="normal" 
>
<polyline fill="none" vector-effect="non-scaling-stroke" points="80,298 80,210 " />
<polyline fill="none" vector-effect="non-scaling-stroke" points="68,204 69,204 70,203 70,202 70,201 69,200 68,200 " />
<polyline fill="none" vector-effect="non-scaling-stroke" points="68,204 66,204 " />
<polyline fill="none" vector-effect="non-scaling-stroke" points="66,200 65,200 64,201 64,202 64,203 65,204 66,204 " />
<polyline fill="none" vector-effect="non-scaling-stroke" points="66,200 68,200 " />
<polyline fill="none" vector-effect="non-scaling-stroke" points="74,196 64,196 " />
<polyline fill="none" vector-effect="non-scaling-stroke" points="64,196 64,194 " />
<polyline fill="none" vector-effect="non-scaling-stroke" points="65,192 65,192 64,193 64,194 " />
<polyline fill="none" vector-effect="non-scaling-stroke" points="65,192 69,192 " />
<polyline fill="none" vector-effect="non-scaling-stroke" points="70,194 70,193 70,192 69,192 " />
<polyline fill="none" vector-effect="non-scaling-stroke" points="70,194 70,196 " />
<polyline fill="none" vector-effect="non-scaling-stroke" points="70,185 70,187 " />
<polyline fill="none" vector-effect="non-scaling-stroke" points="69,189 69,189 70,188 70,187 " />
<polyline fill="none" vector-effect="non-scaling-stroke" points="69,189 66,189 " />
<polyline fill="none" vector-effect="non-scaling-stroke" points="66,185 65,185 64,186 64,187 64,188 65,188 66,189 " />
<polyline fill="none" vector-effect="non-scaling-stroke" points="66,185 67,185 " />
<polyline fill="none" vector-effect="non-scaling-stroke" points="67,185 67,189 " />
<polyline fill="none" vector-effect="non-scaling-stroke" points="70,181 64,181 " />
<polyline fill="none" vector-effect="non-scaling-stroke" points="64,181 64,179 " />
<polyline fill="none" vector-effect="non-scaling-stroke" points="65,177 65,177 64,178 64,178 64,179 " />
<polyline fill="none" vector-effect="non-scaling-stroke" points="65,177 70,177 " />
<polyline fill="none" vector-effect="non-scaling-stroke" points="70,174 64,174 " />
<polyline fill="none" vector-effect="non-scaling-stroke" points="61,174 60,174 " />
<polyline fill="none" vector-effect="non-scaling-stroke" points="70,170 64,170 " />
<polyline fill="none" vector-effect="non-scaling-stroke" points="64,170 64,168 " />
<polyline fill="none" vector-effect="non-scaling-stroke" points="65,166 65,166 64,167 64,168 " />
<polyline fill="none" vector-effect="non-scaling-stroke" points="65,166 70,166 " />
<polyline fill="none" vector-effect="non-scaling-stroke" points="74,162 74,160 " />
<polyline fill="none" vector-effect="non-scaling-stroke" points="74,160 73,159 73,159 72,159 " />
<polyline fill="none" vector-effect="non-scaling-stroke" points="72,159 64,159 " />
<polyline fill="none" vector-effect="non-scaling-stroke" points="64,159 64,161 " />
<polyline fill="none" vector-effect="non-scaling-stroke" points="64,161 64,162 64,163 65,163 " />
<polyline fill="none" vector-effect="non-scaling-stroke" points="65,163 69,163 " />
<polyline fill="none" vector-effect="non-scaling-stroke" points="69,163 69,163 70,162 70,161 " />
<polyline fill="none" vector-effect="non-scaling-stroke" points="70,161 70,159 " />
<polyline fill="none" vector-effect="non-scaling-stroke" points="74,155 74,143 " />
<polyline fill="none" vector-effect="non-scaling-stroke" points="70,140 60,140 " />
<polyline fill="none" vector-effect="non-scaling-stroke" points="64,140 64,137 " />
<polyline fill="none" vector-effect="non-scaling-stroke" points="65,136 65,136 64,137 64,137 " />
<polyline fill="none" vector-effect="non-scaling-stroke" points="65,136 70,136 " />
<polyline fill="none" vector-effect="non-scaling-stroke" points="70,128 70,131 " />
<polyline fill="none" vector-effect="non-scaling-stroke" points="69,133 69,132 70,132 70,131 " />
<polyline fill="none" vector-effect="non-scaling-stroke" points="69,133 66,133 " />
<polyline fill="none" vector-effect="non-scaling-stroke" points="66,128 65,128 64,129 64,130 64,131 65,132 66,133 " />
<polyline fill="none" vector-effect="non-scaling-stroke" points="66,128 67,128 " />
<polyline fill="none" vector-effect="non-scaling-stroke" points="67,128 67,133 " />
<polyline fill="none" vector-effect="non-scaling-stroke" points="70,125 64,125 " />
<polyline fill="none" vector-effect="non-scaling-stroke" points="61,125 60,125 " />
<polyline fill="none" vector-effect="non-scaling-stroke" points="74,121 74,119 " />
<polyline fill="none" vector-effect="non-scaling-stroke" points="74,119 73,118 73,118 72,117 " />
<polyline fill="none" vector-effect="non-scaling-stroke" points="72,117 64,117 " />
<polyline fill="none" vector-effect="non-scaling-stroke" points="64,117 64,120 " />
<polyline fill="none" vector-effect="non-scaling-stroke" points="64,120 64,121 64,121 65,122 " />
<polyline fill="none" vector-effect="non-scaling-stroke" points="65,122 69,122 " />
<polyline fill="none" vector-effect="non-scaling-stroke" points="69,122 69,121 70,121 70,120 " />
<polyline fill="none" vector-effect="non-scaling-stroke" points="70,120 70,117 " />
<polyline fill="none" vector-effect="non-scaling-stroke" points="70,114 60,114 " />
<polyline fill="none" vector-effect="non-scaling-stroke" points="64,114 64,111 " />
<polyline fill="none" vector-effect="non-scaling-stroke" points="65,110 65,110 64,111 64,111 " />
<polyline fill="none" vector-effect="non-scaling-stroke" points="65,110 70,110 " />
<polyline fill="none" vector-effect="non-scaling-stroke" points="70,105 60,105 " />
<polyline fill="none" vector-effect="non-scaling-stroke" points="64,107 64,103 " />
</g>

<g fill="#0000ff" fill-opacity="1" stroke="#0000ff" stroke-opacity="1" stroke-width="1" stroke-linecap="round" stroke-linejoin="round" transform="matrix(1,0,0,1,0,0)"
font-family="Ubuntu Sans" font-size="11" font-weight="400" font-style="normal" 
>
<path vector-effect="non-scaling-stroke" fill-rule="evenodd" d="M80,298 L78,288 L82,288 L80,298"/>
</g>

<g fill="#0000ff" fill-opacity="1" stroke="#0000ff" stroke-opacity="1" stroke-width="1" stroke-linecap="round" stroke-linejoin="round" transform="matrix(1,0,0,1,0,0)"
font-family="Ubuntu Sans" font-size="11" font-weight="400" font-style="normal" 
>
<path vector-effect="non-scaling-stroke" fill-rule="evenodd" d="M80,210 L82,220 L78,220 L80,210"/>
</g>

<g fill="none" stroke="#0000ff" stroke-opacity="1" stroke-width="1" stroke-linecap="round" stroke-linejoin="round" transform="matrix(1,0,0,1,0,0)"
font-family="Ubuntu Sans" font-size="11" font-weight="400" font-style="normal" 
>
<polyline fill="none" vector-effect="non-scaling-stroke" points="176,298 68,298 " />
<polyline fill="none" vector-effect="non-scaling-stroke" points="176,210 68,210 " />
<polyline fill="none" vector-effect="non-scaling-stroke" points="182,357 300,357 " />
<polyline fill="none" vector-effect="non-scaling-stroke" points="193,343 194,344 194,345 195,345 196,345 197,344 198,343 " />
<polyline fill="none" vector-effect="non-scaling-stroke" points="193,343 193,341 " />
<polyline fill="none" vector-effect="non-scaling-stroke" points="198,341 197,340 197,339 196,338 195,339 194,339 193,340 193,341 " />
<polyline fill="none" vector-effect="non-scaling-stroke" points="198,341 198,343 " />
<polyline fill="none" vector-effect="non-scaling-stroke" points="201,348 201,338 " />
<polyline fill="none" vector-effect="non-scaling-stroke" points="201,338 204,338 " />
<polyline fill="none" vector-effect="non-scaling-stroke" points="205,340 205,339 204,339 204,338 " />
<polyline fill="none" vector-effect="non-scaling-stroke" points="205,340 205,343 " />
<polyline fill="none" vector-effect="non-scaling-stroke" points="204,345 204,345 205,344 205,343 " />
<polyline fill="none" vector-effect="non-scaling-stroke" points="204,345 201,345 " />
<polyline fill="none" vector-effect="non-scaling-stroke" points="213,345 210,345 " />
<polyline fill="none" vector-effect="non-scaling-stroke" points="208,343 209,344 209,345 210,345 " />
<polyline fill="none" vector-effect="non-scaling-stroke" points="208,343 208,341 " />
<polyline fill="none" vector-effect="non-scaling-stroke" points="213,341 213,340 212,339 211,338 210,339 209,339 208,340 208,341 " />
<polyline fill="none" vector-effect="non-scaling-stroke" points="213,341 213,342 " />
<polyline fill="none" vector-effect="non-scaling-stroke" points="213,342 208,342 " />
<polyline fill="none" vector-effect="non-scaling-stroke" points="216,345 216,338 " />
<polyline fill="none" vector-effect="non-scaling-stroke" points="216,338 219,338 " />
<polyline fill="none" vector-effect="non-scaling-stroke" points="220,340 220,339 220,339 219,338 " />
<polyline fill="none" vector-effect="non-scaling-stroke" points="220,340 220,345 " />
<polyline fill="none" vector-effect="non-scaling-stroke" points="224,345 224,338 " />
<polyline fill="none" vector-effect="non-scaling-stroke" points="224,336 224,335 " />
<polyline fill="none" vector-effect="non-scaling-stroke" points="227,345 227,338 " />
<polyline fill="none" vector-effect="non-scaling-stroke" points="227,338 230,338 " />
<polyline fill="none" vector-effect="non-scaling-stroke" points="231,340 231,339 230,339 230,338 " />
<polyline fill="none" vector-effect="non-scaling-stroke" points="231,340 231,345 " />
<polyline fill="none" vector-effect="non-scaling-stroke" points="235,348 237,348 " />
<polyline fill="none" vector-effect="non-scaling-stroke" points="237,348 238,348 239,347 239,347 " />
<polyline fill="none" vector-effect="non-scaling-stroke" points="239,347 239,338 " />
<polyline fill="none" vector-effect="non-scaling-stroke" points="239,338 236,338 " />
<polyline fill="none" vector-effect="non-scaling-stroke" points="236,338 235,339 235,339 234,340 " />
<polyline fill="none" vector-effect="non-scaling-stroke" points="234,340 234,343 " />
<polyline fill="none" vector-effect="non-scaling-stroke" points="234,343 235,344 235,345 236,345 " />
<polyline fill="none" vector-effect="non-scaling-stroke" points="236,345 239,345 " />
<polyline fill="none" vector-effect="non-scaling-stroke" points="242,348 254,348 " />
<polyline fill="none" vector-effect="non-scaling-stroke" points="257,338 259,345 " />
<polyline fill="none" vector-effect="non-scaling-stroke" points="259,345 261,341 " />
<polyline fill="none" vector-effect="non-scaling-stroke" points="261,341 262,345 " />
<polyline fill="none" vector-effect="non-scaling-stroke" points="262,345 264,338 " />
<polyline fill="none" vector-effect="non-scaling-stroke" points="267,345 267,338 " />
<polyline fill="none" vector-effect="non-scaling-stroke" points="267,336 267,335 " />
<polyline fill="none" vector-effect="non-scaling-stroke" points="275,335 275,345 " />
<polyline fill="none" vector-effect="non-scaling-stroke" points="275,345 272,345 " />
<polyline fill="none" vector-effect="non-scaling-stroke" points="270,343 270,344 271,345 272,345 " />
<polyline fill="none" vector-effect="non-scaling-stroke" points="270,343 270,340 " />
<polyline fill="none" vector-effect="non-scaling-stroke" points="272,338 271,339 271,339 270,340 " />
<polyline fill="none" vector-effect="non-scaling-stroke" points="272,338 275,338 " />
<polyline fill="none" vector-effect="non-scaling-stroke" points="279,345 279,335 " />
<polyline fill="none" vector-effect="non-scaling-stroke" points="278,338 281,338 " />
<polyline fill="none" vector-effect="non-scaling-stroke" points="284,345 284,335 " />
<polyline fill="none" vector-effect="non-scaling-stroke" points="284,338 287,338 " />
<polyline fill="none" vector-effect="non-scaling-stroke" points="289,340 289,339 288,339 287,338 " />
<polyline fill="none" vector-effect="non-scaling-stroke" points="289,340 289,345 " />
</g>

<g fill="#0000ff" fill-opacity="1" stroke="#0000ff" stroke-opacity="1" stroke-width="1" stroke-linecap="round" stroke-linejoin="round" transform="matrix(1,0,0,1,0,0)"
font-family="Ubuntu Sans" font-size="11" font-weight="400" font-style="normal" 
>
<path vector-effect="non-scaling-stroke" fill-rule="evenodd" d="M182,357 L192,355 L192,358 L182,357"/>
</g>

<g fill="#0000ff" fill-opacity="1" stroke="#0000ff" stroke-opacity="1" stroke-width="1" stroke-linecap="round" stroke-linejoin="round" transform="matrix(1,0,0,1,0,0)"
font-family="Ubuntu Sans" font-size="11" font-weight="400" font-style="normal" 
>
<path vector-effect="non-scaling-stroke" fill-rule="evenodd" d="M300,357 L290,358 L290,355 L300,357"/>
</g>

<g fill="none" stroke="#0000ff" stroke-opacity="1" stroke-width="1" stroke-linecap="round" stroke-linejoin="round" transform="matrix(1,0,0,1,0,0)"
font-family="Ubuntu Sans" font-size="11" font-weight="400" font-style="normal" 
>
<polyline fill="none" vector-effect="non-scaling-stroke" points="182,304 182,369 " />
<polyline fill="none" vector-effect="non-scaling-stroke" points="300,304 300,369 " />
<polyline fill="none" vector-effect="non-scaling-stroke" points="417,210 417,298 " />
<polyline fill="none" vector-effect="non-scaling-stroke" points="405,201 399,201 " />
<polyline fill="none" vector-effect="non-scaling-stroke" points="405,204 399,204 " />
<polyline fill="none" vector-effect="non-scaling-stroke" points="399,204 399,199 " />
<polyline fill="none" vector-effect="non-scaling-stroke" points="400,198 399,198 399,198 399,199 " />
<polyline fill="none" vector-effect="non-scaling-stroke" points="400,198 405,198 " />
<polyline fill="none" vector-effect="non-scaling-stroke" points="399,194 399,192 " />
<polyline fill="none" vector-effect="non-scaling-stroke" points="400,190 399,190 399,191 399,192 " />
<polyline fill="none" vector-effect="non-scaling-stroke" points="400,190 405,190 " />
<polyline fill="none" vector-effect="non-scaling-stroke" points="405,190 405,193 " />
<polyline fill="none" vector-effect="non-scaling-stroke" points="402,193 402,193 403,194 403,194 404,194 405,194 405,193 " />
<polyline fill="none" vector-effect="non-scaling-stroke" points="402,193 402,190 " />
<polyline fill="none" vector-effect="non-scaling-stroke" points="408,186 408,184 " />
<polyline fill="none" vector-effect="non-scaling-stroke" points="408,184 408,183 408,183 407,182 " />
<polyline fill="none" vector-effect="non-scaling-stroke" points="407,182 399,182 " />
<polyline fill="none" vector-effect="non-scaling-stroke" points="399,182 399,185 " />
<polyline fill="none" vector-effect="non-scaling-stroke" points="399,185 399,186 399,186 400,187 " />
<polyline fill="none" vector-effect="non-scaling-stroke" points="400,187 403,187 " />
<polyline fill="none" vector-effect="non-scaling-stroke" points="403,187 404,187 405,186 405,185 " />
<polyline fill="none" vector-effect="non-scaling-stroke" points="405,185 405,182 " />
<polyline fill="none" vector-effect="non-scaling-stroke" points="405,179 399,179 " />
<polyline fill="none" vector-effect="non-scaling-stroke" points="399,179 399,176 " />
<polyline fill="none" vector-effect="non-scaling-stroke" points="400,175 399,175 399,176 399,176 " />
<polyline fill="none" vector-effect="non-scaling-stroke" points="400,175 405,175 " />
<polyline fill="none" vector-effect="non-scaling-stroke" points="405,167 405,170 " />
<polyline fill="none" vector-effect="non-scaling-stroke" points="403,172 404,171 405,171 405,170 " />
<polyline fill="none" vector-effect="non-scaling-stroke" points="403,172 401,172 " />
<polyline fill="none" vector-effect="non-scaling-stroke" points="401,167 400,167 399,168 399,169 399,170 399,171 400,172 401,172 " />
<polyline fill="none" vector-effect="non-scaling-stroke" points="401,167 402,167 " />
<polyline fill="none" vector-effect="non-scaling-stroke" points="402,167 402,172 " />
<polyline fill="none" vector-effect="non-scaling-stroke" points="405,163 395,163 " />
<polyline fill="none" vector-effect="non-scaling-stroke" points="399,164 399,161 " />
<polyline fill="none" vector-effect="non-scaling-stroke" points="405,157 399,157 " />
<polyline fill="none" vector-effect="non-scaling-stroke" points="396,157 395,157 " />
<polyline fill="none" vector-effect="non-scaling-stroke" points="399,151 399,153 " />
<polyline fill="none" vector-effect="non-scaling-stroke" points="399,153 399,153 399,154 400,154 " />
<polyline fill="none" vector-effect="non-scaling-stroke" points="400,154 403,154 " />
<polyline fill="none" vector-effect="non-scaling-stroke" points="403,154 404,154 405,153 405,153 " />
<polyline fill="none" vector-effect="non-scaling-stroke" points="405,153 405,151 " />
<polyline fill="none" vector-effect="non-scaling-stroke" points="408,148 408,136 " />
<polyline fill="none" vector-effect="non-scaling-stroke" points="403,133 404,132 405,132 405,131 405,129 404,129 403,128 " />
<polyline fill="none" vector-effect="non-scaling-stroke" points="403,133 401,133 " />
<polyline fill="none" vector-effect="non-scaling-stroke" points="401,128 400,128 399,129 399,130 399,131 399,132 400,133 401,133 " />
<polyline fill="none" vector-effect="non-scaling-stroke" points="401,128 403,128 " />
<polyline fill="none" vector-effect="non-scaling-stroke" points="408,125 399,125 " />
<polyline fill="none" vector-effect="non-scaling-stroke" points="399,125 399,122 " />
<polyline fill="none" vector-effect="non-scaling-stroke" points="400,121 399,121 399,121 399,122 " />
<polyline fill="none" vector-effect="non-scaling-stroke" points="400,121 403,121 " />
<polyline fill="none" vector-effect="non-scaling-stroke" points="405,122 405,121 404,121 404,121 403,121 " />
<polyline fill="none" vector-effect="non-scaling-stroke" points="405,122 405,125 " />
<polyline fill="none" vector-effect="non-scaling-stroke" points="405,113 405,116 " />
<polyline fill="none" vector-effect="non-scaling-stroke" points="403,117 404,117 405,117 405,116 " />
<polyline fill="none" vector-effect="non-scaling-stroke" points="403,117 401,117 " />
<polyline fill="none" vector-effect="non-scaling-stroke" points="401,113 400,113 399,114 399,115 399,116 399,117 400,117 401,117 " />
<polyline fill="none" vector-effect="non-scaling-stroke" points="401,113 402,113 " />
<polyline fill="none" vector-effect="non-scaling-stroke" points="402,113 402,117 " />
<polyline fill="none" vector-effect="non-scaling-stroke" points="405,110 399,110 " />
<polyline fill="none" vector-effect="non-scaling-stroke" points="399,110 399,107 " />
<polyline fill="none" vector-effect="non-scaling-stroke" points="400,105 399,106 399,106 399,107 " />
<polyline fill="none" vector-effect="non-scaling-stroke" points="400,105 405,105 " />
<polyline fill="none" vector-effect="non-scaling-stroke" points="405,102 399,102 " />
<polyline fill="none" vector-effect="non-scaling-stroke" points="396,102 395,102 " />
<polyline fill="none" vector-effect="non-scaling-stroke" points="405,99 399,99 " />
<polyline fill="none" vector-effect="non-scaling-stroke" points="399,99 399,96 " />
<polyline fill="none" vector-effect="non-scaling-stroke" points="400,95 399,95 399,95 399,96 " />
<polyline fill="none" vector-effect="non-scaling-stroke" points="400,95 405,95 " />
<polyline fill="none" vector-effect="non-scaling-stroke" points="408,91 408,89 " />
<polyline fill="none" vector-effect="non-scaling-stroke" points="408,89 408,88 408,87 407,87 " />
<polyline fill="none" vector-effect="non-scaling-stroke" points="407,87 399,87 " />
<polyline fill="none" vector-effect="non-scaling-stroke" points="399,87 399,90 " />
<polyline fill="none" vector-effect="non-scaling-stroke" points="399,90 399,90 399,91 400,91 " />
<polyline fill="none" vector-effect="non-scaling-stroke" points="400,91 403,91 " />
<polyline fill="none" vector-effect="non-scaling-stroke" points="403,91 404,91 405,91 405,90 " />
<polyline fill="none" vector-effect="non-scaling-stroke" points="405,90 405,87 " />
<polyline fill="none" vector-effect="non-scaling-stroke" points="408,84 408,72 " />
<polyline fill="none" vector-effect="non-scaling-stroke" points="405,69 395,69 " />
<polyline fill="none" vector-effect="non-scaling-stroke" points="399,69 399,66 " />
<polyline fill="none" vector-effect="non-scaling-stroke" points="400,64 399,64 399,65 399,66 " />
<polyline fill="none" vector-effect="non-scaling-stroke" points="400,64 405,64 " />
<polyline fill="none" vector-effect="non-scaling-stroke" points="405,57 405,59 " />
<polyline fill="none" vector-effect="non-scaling-stroke" points="403,61 404,61 405,60 405,59 " />
<polyline fill="none" vector-effect="non-scaling-stroke" points="403,61 401,61 " />
<polyline fill="none" vector-effect="non-scaling-stroke" points="401,57 400,57 399,58 399,59 399,60 399,61 400,61 401,61 " />
<polyline fill="none" vector-effect="non-scaling-stroke" points="401,57 402,57 " />
<polyline fill="none" vector-effect="non-scaling-stroke" points="402,57 402,61 " />
<polyline fill="none" vector-effect="non-scaling-stroke" points="405,53 399,53 " />
<polyline fill="none" vector-effect="non-scaling-stroke" points="396,53 395,53 " />
<polyline fill="none" vector-effect="non-scaling-stroke" points="408,50 408,47 " />
<polyline fill="none" vector-effect="non-scaling-stroke" points="408,47 408,47 408,46 407,46 " />
<polyline fill="none" vector-effect="non-scaling-stroke" points="407,46 399,46 " />
<polyline fill="none" vector-effect="non-scaling-stroke" points="399,46 399,49 " />
<polyline fill="none" vector-effect="non-scaling-stroke" points="399,49 399,49 399,50 400,50 " />
<polyline fill="none" vector-effect="non-scaling-stroke" points="400,50 403,50 " />
<polyline fill="none" vector-effect="non-scaling-stroke" points="403,50 404,50 405,49 405,49 " />
<polyline fill="none" vector-effect="non-scaling-stroke" points="405,49 405,46 " />
<polyline fill="none" vector-effect="non-scaling-stroke" points="405,43 395,43 " />
<polyline fill="none" vector-effect="non-scaling-stroke" points="399,43 399,40 " />
<polyline fill="none" vector-effect="non-scaling-stroke" points="400,38 399,38 399,39 399,40 " />
<polyline fill="none" vector-effect="non-scaling-stroke" points="400,38 405,38 " />
<polyline fill="none" vector-effect="non-scaling-stroke" points="405,34 395,34 " />
<polyline fill="none" vector-effect="non-scaling-stroke" points="399,35 399,32 " />
</g>

<g fill="#0000ff" fill-opacity="1" stroke="#0000ff" stroke-opacity="1" stroke-width="1" stroke-linecap="round" stroke-linejoin="round" transform="matrix(1,0,0,1,0,0)"
font-family="Ubuntu Sans" font-size="11" font-weight="400" font-style="normal" 
>
<path vector-effect="non-scaling-stroke" fill-rule="evenodd" d="M417,210 L418,220 L415,220 L417,210"/>
</g>

<g fill="#0000ff" fill-opacity="1" stroke="#0000ff" stroke-opacity="1" stroke-width="1" stroke-linecap="round" stroke-linejoin="round" transform="matrix(1,0,0,1,0,0)"
font-family="Ubuntu Sans" font-size="11" font-weight="400" font-style="normal" 
>
<path vector-effect="non-scaling-stroke" fill-rule="evenodd" d="M417,298 L415,288 L418,288 L417,298"/>
</g>

<g fill="none" stroke="#0000ff" stroke-opacity="1" stroke-width="1" stroke-linecap="round" stroke-linejoin="round" transform="matrix(1,0,0,1,0,0)"
font-family="Ubuntu Sans" font-size="11" font-weight="400" font-style="normal" 
>
<polyline fill="none" vector-effect="non-scaling-stroke" points="364,210 429,210 " />
<polyline fill="none" vector-effect="non-scaling-stroke" points="364,298 429,298 " />
<polyline fill="none" vector-effect="non-scaling-stroke" points="124,415 358,415 " />
<polyline fill="none" vector-effect="non-scaling-stroke" points="225,397 227,404 " />
<polyline fill="none" vector-effect="non-scaling-stroke" points="227,404 229,399 " />
<polyline fill="none" vector-effect="non-scaling-stroke" points="229,399 230,404 " />
<polyline fill="none" vector-effect="non-scaling-stroke" points="230,404 232,397 " />
<polyline fill="none" vector-effect="non-scaling-stroke" points="235,404 235,397 " />
</g>

<g fill="#0000ff" fill-opacity="1" stroke="none" transform="matrix(1,0,0,1,0,0)"
font-family="Ubuntu Sans" font-size="11" font-weight="400" font-style="normal" 
>
<circle cx="235" cy="394" r="0.5"/>
</g>

<g fill="none" stroke="#0000ff" stroke-opacity="1" stroke-width="1" stroke-linecap="round" stroke-linejoin="round" transform="matrix(1,0,0,1,0,0)"
font-family="Ubuntu Sans" font-size="11" font-weight="400" font-style="normal" 
>
<polyline fill="none" vector-effect="non-scaling-stroke" points="243,394 243,404 " />
<polyline fill="none" vector-effect="non-scaling-stroke" points="243,404 240,404 " />
<polyline fill="none" vector-effect="non-scaling-stroke" points="238,402 238,403 239,403 240,403 240,404 " />
<polyline fill="none" vector-effect="non-scaling-stroke" points="238,402 238,399 " />
<polyline fill="none" vector-effect="non-scaling-stroke" points="240,397 239,397 239,398 238,399 " />
<polyline fill="none" vector-effect="non-scaling-stroke" points="240,397 243,397 " />
<polyline fill="none" vector-effect="non-scaling-stroke" points="247,404 247,394 " />
<polyline fill="none" vector-effect="non-scaling-stroke" points="246,397 249,397 " />
<polyline fill="none" vector-effect="non-scaling-stroke" points="252,404 252,394 " />
<polyline fill="none" vector-effect="non-scaling-stroke" points="252,397 255,397 " />
<polyline fill="none" vector-effect="non-scaling-stroke" points="257,399 257,398 256,397 255,397 " />
<polyline fill="none" vector-effect="non-scaling-stroke" points="257,399 257,404 " />
</g>

<g fill="#0000ff" fill-opacity="1" stroke="#0000ff" stroke-opacity="1" stroke-width="1" stroke-linecap="round" stroke-linejoin="round" transform="matrix(1,0,0,1,0,0)"
font-family="Ubuntu Sans" font-size="11" font-weight="400" font-style="normal" 
>
<path vector-effect="non-scaling-stroke" fill-rule="evenodd" d="M124,415 L134,413 L134,417 L124,415"/>
</g>

<g fill="#0000ff" fill-opacity="1" stroke="#0000ff" stroke-opacity="1" stroke-width="1" stroke-linecap="round" stroke-linejoin="round" transform="matrix(1,0,0,1,0,0)"
font-family="Ubuntu Sans" font-size="11" font-weight="400" font-style="normal" 
>
<path vector-effect="non-scaling-stroke" fill-rule="evenodd" d="M358,415 L348,417 L348,413 L358,415"/>
</g>

<g fill="none" stroke="#0000ff" stroke-opacity="1" stroke-width="1" stroke-linecap="round" stroke-linejoin="round" transform="matrix(1,0,0,1,0,0)"
font-family="Ubuntu Sans" font-size="11" font-weight="400" font-style="normal" 
>
<polyline fill="none" vector-effect="non-scaling-stroke" points="124,216 124,427 " />
<polyline fill="none" vector-effect="non-scaling-stroke" points="358,216 358,427 " />
</g>

<g fill="none" stroke="#ff0000" stroke-opacity="1" stroke-width="1" stroke-linecap="round" stroke-linejoin="round" transform="matrix(1,0,0,1,0,0)"
font-family="Ubuntu Sans" font-size="11" font-weight="400" font-style="normal" 
>
<polyline fill="none" vector-effect="non-scaling-stroke" points="475,298 241,298 " />
</g>

<g fill="#ff0000" fill-opacity="1" stroke="#ff0000" stroke-opacity="1" stroke-width="1" stroke-linecap="round" stroke-linejoin="round" transform="matrix(1,0,0,1,0,0)"
font-family="Ubuntu Sans" font-size="11" font-weight="400" font-style="normal" 
>
<path vector-effect="non-scaling-stroke" fill-rule="evenodd" d="M475,298 L465,300 L465,296 L475,298"/>
</g>

<g fill="none" stroke="#0000ff" stroke-opacity="1" stroke-width="1" stroke-linecap="round" stroke-linejoin="round" transform="matrix(1,0,0,1,0,0)"
font-family="Ubuntu Sans" font-size="11" font-weight="400" font-style="normal" 
>
<polyline fill="none" vector-effect="non-scaling-stroke" points="21,298 21,5 " />
<polyline fill="none" vector-effect="non-scaling-stroke" points="15,170 6,170 " />
<polyline fill="none" vector-effect="non-scaling-stroke" points="9,170 9,167 " />
<polyline fill="none" vector-effect="non-scaling-stroke" points="10,166 10,166 9,166 9,167 " />
<polyline fill="none" vector-effect="non-scaling-stroke" points="10,166 15,166 " />
<polyline fill="none" vector-effect="non-scaling-stroke" points="15,158 15,161 " />
<polyline fill="none" vector-effect="non-scaling-stroke" points="14,162 15,162 15,162 15,161 " />
<polyline fill="none" vector-effect="non-scaling-stroke" points="14,162 11,162 " />
<polyline fill="none" vector-effect="non-scaling-stroke" points="11,158 10,158 9,159 9,160 9,161 10,162 11,162 " />
<polyline fill="none" vector-effect="non-scaling-stroke" points="11,158 12,158 " />
<polyline fill="none" vector-effect="non-scaling-stroke" points="12,158 12,162 " />
<polyline fill="none" vector-effect="non-scaling-stroke" points="15,155 9,155 " />
</g>

<g fill="#0000ff" fill-opacity="1" stroke="none" transform="matrix(1,0,0,1,0,0)"
font-family="Ubuntu Sans" font-size="11" font-weight="400" font-style="normal" 
>
<circle cx="6" cy="155" r="0.5"/>
</g>

<g fill="none" stroke="#0000ff" stroke-opacity="1" stroke-width="1" stroke-linecap="round" stroke-linejoin="round" transform="matrix(1,0,0,1,0,0)"
font-family="Ubuntu Sans" font-size="11" font-weight="400" font-style="normal" 
>
<polyline fill="none" vector-effect="non-scaling-stroke" points="19,151 19,149 " />
<polyline fill="none" vector-effect="non-scaling-stroke" points="19,149 18,148 18,148 17,147 " />
<polyline fill="none" vector-effect="non-scaling-stroke" points="17,147 9,147 " />
<polyline fill="none" vector-effect="non-scaling-stroke" points="9,147 9,150 " />
<polyline fill="none" vector-effect="non-scaling-stroke" points="9,150 9,151 10,151 10,152 " />
<polyline fill="none" vector-effect="non-scaling-stroke" points="10,152 14,152 " />
<polyline fill="none" vector-effect="non-scaling-stroke" points="14,152 15,151 15,151 15,150 " />
<polyline fill="none" vector-effect="non-scaling-stroke" points="15,150 15,147 " />
<polyline fill="none" vector-effect="non-scaling-stroke" points="15,144 6,144 " />
<polyline fill="none" vector-effect="non-scaling-stroke" points="9,144 9,141 " />
<polyline fill="none" vector-effect="non-scaling-stroke" points="10,140 10,140 9,140 9,141 " />
<polyline fill="none" vector-effect="non-scaling-stroke" points="10,140 15,140 " />
<polyline fill="none" vector-effect="non-scaling-stroke" points="15,135 6,135 " />
<polyline fill="none" vector-effect="non-scaling-stroke" points="9,136 9,133 " />
</g>

<g fill="#0000ff" fill-opacity="1" stroke="#0000ff" stroke-opacity="1" stroke-width="1" stroke-linecap="round" stroke-linejoin="round" transform="matrix(1,0,0,1,0,0)"
font-family="Ubuntu Sans" font-size="11" font-weight="400" font-style="normal" 
>
<path vector-effect="non-scaling-stroke" fill-rule="evenodd" d="M21,298 L20,288 L23,288 L21,298"/>
</g>

<g fill="#0000ff" fill-opacity="1" stroke="#0000ff" stroke-opacity="1" stroke-width="1" stroke-linecap="round" stroke-linejoin="round" transform="matrix(1,0,0,1,0,0)"
font-family="Ubuntu Sans" font-size="11" font-weight="400" font-style="normal" 
>
<path vector-effect="non-scaling-stroke" fill-rule="evenodd" d="M21,5 L23,15 L20,15 L21,5"/>
</g>

<g fill="none" stroke="#0000ff" stroke-opacity="1" stroke-width="1" stroke-linecap="round" stroke-linejoin="round" transform="matrix(1,0,0,1,0,0)"
font-family="Ubuntu Sans" font-size="11" font-weight="400" font-style="normal" 
>
<polyline fill="none" vector-effect="non-scaling-stroke" points="176,298 9,298 " />
<polyline fill="none" vector-effect="non-scaling-stroke" points="118,5 9,5 " />
</g>

<g fill="none" stroke="#000000" stroke-opacity="1" stroke-width="1" stroke-linecap="round" stroke-linejoin="round" transform="matrix(1,0,0,1,0,0)"
font-family="Ubuntu Sans" font-size="11" font-weight="400" font-style="normal" 
>
<polyline fill="none" vector-effect="non-scaling-stroke" points="191,210 192,210 " />
<polyline fill="none" vector-effect="non-scaling-stroke" points="200,210 201,210 " />
<polyline fill="none" vector-effect="non-scaling-stroke" points="210,210 211,210 " />
<polyline fill="none" vector-effect="non-scaling-stroke" points="220,210 221,210 " />
<polyline fill="none" vector-effect="non-scaling-stroke" points="230,210 231,210 " />
<polyline fill="none" vector-effect="non-scaling-stroke" points="240,210 241,210 " />
<polyline fill="none" vector-effect="non-scaling-stroke" points="250,210 251,210 " />
<polyline fill="none" vector-effect="non-scaling-stroke" points="259,210 260,210 " />
<polyline fill="none" vector-effect="non-scaling-stroke" points="269,210 270,210 " />
<polyline fill="none" vector-effect="non-scaling-stroke" points="279,210 280,210 " />
<polyline fill="none" vector-effect="non-scaling-stroke" points="289,210 290,210 " />
<polyline fill="none" vector-effect="non-scaling-stroke" points="299,210 300,210 " />
<polyline fill="none" vector-effect="non-scaling-stroke" points="209,258 211,259 212,259 " />
<polyline fill="none" vector-effect="non-scaling-stroke" points="212,259 213,259 214,258 214,257 214,256 213,255 " />
<polyline fill="none" vector-effect="non-scaling-stroke" points="213,255 210,253 " />
<polyline fill="none" vector-effect="non-scaling-stroke" points="211,249 210,249 209,250 209,251 209,252 210,253 " />
<polyline fill="none" vector-effect="non-scaling-stroke" points="214,250 212,249 211,249 " />
<polyline fill="none" vector-effect="non-scaling-stroke" points="217,249 217,258 " />
<polyline fill="none" vector-effect="non-scaling-stroke" points="217,258 218,258 218,259 218,259 219,259 " />
<polyline fill="none" vector-effect="non-scaling-stroke" points="222,257 222,258 223,259 224,259 225,259 226,258 226,257 " />
<polyline fill="none" vector-effect="non-scaling-stroke" points="222,257 222,255 " />
<polyline fill="none" vector-effect="non-scaling-stroke" points="226,255 226,254 225,253 224,252 223,253 222,253 222,254 222,255 " />
<polyline fill="none" vector-effect="non-scaling-stroke" points="226,255 226,257 " />
<polyline fill="none" vector-effect="non-scaling-stroke" points="230,259 230,249 " />
<polyline fill="none" vector-effect="non-scaling-stroke" points="229,252 233,252 " />
<polyline fill="none" vector-effect="non-scaling-stroke" points="243,257 243,258 244,259 245,259 246,259 247,258 247,257 248,257 " />
<polyline fill="none" vector-effect="non-scaling-stroke" points="243,257 243,255 " />
<polyline fill="none" vector-effect="non-scaling-stroke" points="248,255 247,254 247,253 245,252 244,253 244,253 243,254 243,255 " />
<polyline fill="none" vector-effect="non-scaling-stroke" points="248,255 248,257 " />
<polyline fill="none" vector-effect="non-scaling-stroke" points="251,262 251,252 " />
<polyline fill="none" vector-effect="non-scaling-stroke" points="251,252 253,252 " />
<polyline fill="none" vector-effect="non-scaling-stroke" points="255,254 255,253 254,253 254,252 253,252 " />
<polyline fill="none" vector-effect="non-scaling-stroke" points="255,254 255,257 " />
<polyline fill="none" vector-effect="non-scaling-stroke" points="253,259 254,259 255,258 255,257 " />
<polyline fill="none" vector-effect="non-scaling-stroke" points="253,259 251,259 " />
<polyline fill="none" vector-effect="non-scaling-stroke" points="263,259 260,259 " />
<polyline fill="none" vector-effect="non-scaling-stroke" points="258,257 259,258 259,259 260,259 " />
<polyline fill="none" vector-effect="non-scaling-stroke" points="258,257 258,255 " />
<polyline fill="none" vector-effect="non-scaling-stroke" points="263,255 262,254 262,253 261,252 260,253 259,253 258,254 258,255 " />
<polyline fill="none" vector-effect="non-scaling-stroke" points="263,255 263,256 " />
<polyline fill="none" vector-effect="non-scaling-stroke" points="263,256 258,256 " />
<polyline fill="none" vector-effect="non-scaling-stroke" points="266,259 266,252 " />
<polyline fill="none" vector-effect="non-scaling-stroke" points="266,252 269,252 " />
<polyline fill="none" vector-effect="non-scaling-stroke" points="270,254 270,253 270,253 269,252 " />
<polyline fill="none" vector-effect="non-scaling-stroke" points="270,254 270,259 " />
<polyline fill="none" vector-effect="non-scaling-stroke" points="274,259 274,252 " />
<polyline fill="none" vector-effect="non-scaling-stroke" points="274,250 274,249 " />
<polyline fill="none" vector-effect="non-scaling-stroke" points="277,259 277,252 " />
<polyline fill="none" vector-effect="non-scaling-stroke" points="277,252 279,252 " />
<polyline fill="none" vector-effect="non-scaling-stroke" points="281,254 281,253 280,253 280,252 279,252 " />
<polyline fill="none" vector-effect="non-scaling-stroke" points="281,254 281,259 " />
<polyline fill="none" vector-effect="non-scaling-stroke" points="285,262 287,262 " />
<polyline fill="none" vector-effect="non-scaling-stroke" points="287,262 288,262 288,261 289,261 " />
<polyline fill="none" vector-effect="non-scaling-stroke" points="289,261 289,252 " />
<polyline fill="none" vector-effect="non-scaling-stroke" points="289,252 286,252 " />
<polyline fill="none" vector-effect="non-scaling-stroke" points="286,252 285,253 285,253 284,254 " />
<polyline fill="none" vector-effect="non-scaling-stroke" points="284,254 284,257 " />
<polyline fill="none" vector-effect="non-scaling-stroke" points="284,257 285,258 285,259 286,259 " />
<polyline fill="none" vector-effect="non-scaling-stroke" points="286,259 289,259 " />
<polyline fill="none" vector-effect="non-scaling-stroke" points="190,103 192,113 " />
<polyline fill="none" vector-effect="non-scaling-stroke" points="192,113 194,106 " />
<polyline fill="none" vector-effect="non-scaling-stroke" points="194,106 197,113 " />
<polyline fill="none" vector-effect="non-scaling-stroke" points="197,113 199,103 " />
<polyline fill="none" vector-effect="non-scaling-stroke" points="202,113 202,106 " />
</g>

<g fill="#000000" fill-opacity="1" stroke="none" transform="matrix(1,0,0,1,0,0)"
font-family="Ubuntu Sans" font-size="11" font-weight="400" font-style="normal" 
>
<circle cx="202" cy="103" r="0.5"/>
</g>

<g fill="none" stroke="#000000" stroke-opacity="1" stroke-width="1" stroke-linecap="round" stroke-linejoin="round" transform="matrix(1,0,0,1,0,0)"
font-family="Ubuntu Sans" font-size="11" font-weight="400" font-style="normal" 
>
<polyline fill="none" vector-effect="non-scaling-stroke" points="205,113 205,106 " />
<polyline fill="none" vector-effect="non-scaling-stroke" points="205,106 208,106 " />
<polyline fill="none" vector-effect="non-scaling-stroke" points="210,108 209,107 209,106 208,106 " />
<polyline fill="none" vector-effect="non-scaling-stroke" points="210,108 210,113 " />
<polyline fill="none" vector-effect="non-scaling-stroke" points="217,103 217,113 " />
<polyline fill="none" vector-effect="non-scaling-stroke" points="217,113 214,113 " />
<polyline fill="none" vector-effect="non-scaling-stroke" points="213,111 213,112 214,112 214,113 " />
<polyline fill="none" vector-effect="non-scaling-stroke" points="213,111 213,108 " />
<polyline fill="none" vector-effect="non-scaling-stroke" points="214,106 214,106 213,107 213,108 " />
<polyline fill="none" vector-effect="non-scaling-stroke" points="214,106 217,106 " />
<polyline fill="none" vector-effect="non-scaling-stroke" points="220,113 220,106 " />
</g>

<g fill="#000000" fill-opacity="1" stroke="none" transform="matrix(1,0,0,1,0,0)"
font-family="Ubuntu Sans" font-size="11" font-weight="400" font-style="normal" 
>
<circle cx="220" cy="103" r="0.5"/>
</g>

<g fill="none" stroke="#000000" stroke-opacity="1" stroke-width="1" stroke-linecap="round" stroke-linejoin="round" transform="matrix(1,0,0,1,0,0)"
font-family="Ubuntu Sans" font-size="11" font-weight="400" font-style="normal" 
>
<polyline fill="none" vector-effect="non-scaling-stroke" points="224,113 224,106 " />
<polyline fill="none" vector-effect="non-scaling-stroke" points="224,106 226,106 " />
<polyline fill="none" vector-effect="non-scaling-stroke" points="228,108 228,107 227,106 226,106 " />
<polyline fill="none" vector-effect="non-scaling-stroke" points="228,108 228,113 " />
<polyline fill="none" vector-effect="non-scaling-stroke" points="232,116 234,116 " />
<polyline fill="none" vector-effect="non-scaling-stroke" points="234,116 235,116 235,115 236,114 " />
<polyline fill="none" vector-effect="non-scaling-stroke" points="236,114 236,106 " />
<polyline fill="none" vector-effect="non-scaling-stroke" points="236,106 233,106 " />
<polyline fill="none" vector-effect="non-scaling-stroke" points="233,106 232,106 232,107 231,108 " />
<polyline fill="none" vector-effect="non-scaling-stroke" points="231,108 231,111 " />
<polyline fill="none" vector-effect="non-scaling-stroke" points="231,111 231,112 232,112 233,113 " />
<polyline fill="none" vector-effect="non-scaling-stroke" points="233,113 236,113 " />
<polyline fill="none" vector-effect="non-scaling-stroke" points="247,106 249,106 " />
<polyline fill="none" vector-effect="non-scaling-stroke" points="250,108 250,107 250,106 249,106 " />
<polyline fill="none" vector-effect="non-scaling-stroke" points="250,108 250,113 " />
<polyline fill="none" vector-effect="non-scaling-stroke" points="250,113 248,113 " />
<polyline fill="none" vector-effect="non-scaling-stroke" points="248,109 247,110 246,110 246,111 246,112 247,112 248,113 " />
<polyline fill="none" vector-effect="non-scaling-stroke" points="248,109 250,109 " />
<polyline fill="none" vector-effect="non-scaling-stroke" points="254,113 254,106 " />
<polyline fill="none" vector-effect="non-scaling-stroke" points="254,106 257,106 " />
<polyline fill="none" vector-effect="non-scaling-stroke" points="257,106 257,107 " />
<polyline fill="none" vector-effect="non-scaling-stroke" points="265,113 262,113 " />
<polyline fill="none" vector-effect="non-scaling-stroke" points="260,111 260,112 261,112 262,113 " />
<polyline fill="none" vector-effect="non-scaling-stroke" points="260,111 260,108 " />
<polyline fill="none" vector-effect="non-scaling-stroke" points="265,108 264,107 264,106 263,106 262,106 261,107 260,108 " />
<polyline fill="none" vector-effect="non-scaling-stroke" points="265,108 265,109 " />
<polyline fill="none" vector-effect="non-scaling-stroke" points="265,109 260,109 " />
<polyline fill="none" vector-effect="non-scaling-stroke" points="268,106 271,106 " />
<polyline fill="none" vector-effect="non-scaling-stroke" points="272,108 272,107 271,106 271,106 " />
<polyline fill="none" vector-effect="non-scaling-stroke" points="272,108 272,113 " />
<polyline fill="none" vector-effect="non-scaling-stroke" points="272,113 269,113 " />
<polyline fill="none" vector-effect="non-scaling-stroke" points="269,109 269,110 268,110 268,111 268,112 268,112 269,113 " />
<polyline fill="none" vector-effect="non-scaling-stroke" points="269,109 272,109 " />
</g>
</g>
</svg>
