999
dxfrw 0.6.3
  0
SECTION
  2
HEADER
  9
$ACADVER
  1
AC1021
  9
$DWGCODEPAGE
  3
ANSI_1252
  9
$INSBASE
 10
0
 20
0
 30
0
  9
$EXTMIN
 10
-35.40330323957622
 20
-13.25
 30
0
  9
$EXTMAX
 10
33.25
 20
45.387545352208
 30
0
  9
$LIMMIN
 10
0
 20
0
  9
$LIMMAX
 10
420
 20
297
  9
$ORTHOMODE
 70
    0
  9
$REGENMODE
 70
    1
  9
$FILLMODE
 70
    1
  9
$QTEXTMODE
 70
    0
  9
$MIRRTEXT
 70
    0
  9
$LTSCALE
 40
1
  9
$ATTMODE
 70
    0
  9
$TEXTSIZE
 40
2.5
  9
$TRACEWID
 40
15.68
  9
$TEXTSTYLE
  7
STANDARD
  9
$CLAYER
  8
Dimensions
  9
$CELTYPE
  6
BYLAYER
  9
$CECOLOR
 62
  256
  9
$CELTSCALE
 40
1
  9
$DISPSILH
 70
    0
  9
$DIMSCALE
 40
1
  9
$DIMASZ
 40
1
  9
$DIMEXO
 40
0.625
  9
$DIMDLI
 40
3.75
  9
$DIMRND
 40
0
  9
$DIMDLE
 40
0
  9
$DIMEXE
 40
1.25
  9
$DIMTP
 40
0
  9
$DIMTM
 40
0
  9
$DIMTXT
 40
1
  9
$DIMCEN
 40
2.5
  9
$DIMTSZ
 40
0
  9
$DIMTOL
 70
    0
  9
$DIMLIM
 70
    0
  9
$DIMTIH
 70
    0
  9
$DIMTOH
 70
    0
  9
$DIMSE1
 70
    0
  9
$DIMSE2
 70
    0
  9
$DIMTAD
 70
    1
  9
$DIMZIN
 70
    1
  9
$DIMBLK
  1

  9
$DIMASO
 70
    1
  9
$DIMSHO
 70
    1
  9
$DIMPOST
  1

  9
$DIMAPOST
  1

  9
$DIMALT
 70
    0
  9
$DIMALTD
 70
    3
  9
$DIMALTF
 40
0.03937
  9
$DIMLFAC
 40
1
  9
$DIMTOFL
 70
    1
  9
$DIMTVP
 40
0
  9
$DIMTIX
 70
    0
  9
$DIMSOXD
 70
    0
  9
$DIMSAH
 70
    0
  9
$DIMBLK1
  1

  9
$DIMBLK2
  1

  9
$DIMSTYLE
  2
STANDARD
  9
$DIMCLRD
 70
    0
  9
$DIMCLRE
 70
    0
  9
$DIMCLRT
 70
    0
  9
$DIMTFAC
 40
1
  9
$DIMGAP
 40
0.625
  9
$DIMJUST
 70
    0
  9
$DIMSD1
 70
    0
  9
$DIMSD2
 70
    0
  9
$DIMTOLJ
 70
    0
  9
$DIMTZIN
 70
    8
  9
$DIMALTZ
 70
    0
  9
$DIMALTTZ
 70
    0
  9
$DIMUPT
 70
    0
  9
$DIMDEC
 70
    4
  9
$DIMTDEC
 70
    2
  9
$DIMALTU
 70
    2
  9
$DIMALTTD
 70
    3
  9
$DIMTXSTY
  7
standard
  9
$DIMAUNIT
 70
    0
  9
$DIMADEC
 70
    2
  9
$DIMALTRND
 40
0
  9
$DIMAZIN
 70
    0
  9
$DIMDSEP
 70
    0
  9
$DIMATFIT
 70
    3
  9
$DIMFRAC
 70
    0
  9
$DIMLDRBLK
  1
STANDARD
  9
$DIMLUNIT
 70
    2
  9
$DIMLWD
 70
    8
  9
$DIMLWE
 70
   -2
  9
$DIMTMOVE
 70
    0
  9
$DIMFXL
 40
1
  9
$DIMFXLON
 70
    0
  9
$DIMJOGANG
 40
0.7854
  9
$DIMTFILL
 70
    0
  9
$DIMTFILLCLR
 70
    0
  9
$DIMARCSYM
 70
    0
  9
$DIMLTYPE
  6

  9
$DIMLTEX1
  6

  9
$DIMLTEX2
  6

  9
$LUNITS
 70
    2
  9
$LUPREC
 70
    4
  9
$SKETCHINC
 40
1
  9
$FILLETRAD
 40
0
  9
$AUNITS
 70
    0
  9
$AUPREC
 70
    2
  9
$MENU
  1
.
  9
$ELEVATION
 40
0
  9
$PELEVATION
 40
0
  9
$THICKNESS
 40
0
  9
$LIMCHECK
 70
    0
  9
$CHAMFERA
 40
0
  9
$CHAMFERB
 40
0
  9
$CHAMFERC
 40
0
  9
$CHAMFERD
 40
0
  9
$SKPOLY
 70
    0
  9
$USRTIMER
 70
    1
  9
$ANGBASE
 50
0
  9
$ANGDIR
 70
    0
  9
$PDMODE
 70
   96
  9
$PDSIZE
 40
-2
  9
$PLINEWID
 40
0
  9
$SPLFRAME
 70
    0
  9
$SPLINETYPE
 70
    2
  9
$SPLINESEGS
 70
    8
  9
$HANDSEED
  5
20000
  9
$SURFTAB1
 70
    6
  9
$SURFTAB2
 70
    6
  9
$SURFTYPE
 70
    6
  9
$SURFU
 70
    6
  9
$SURFV
 70
    6
  9
$UCSBASE
  2

  9
$UCSNAME
  2

  9
$UCSORG
 10
0
 20
0
 30
0
  9
$UCSXDIR
 10
1
 20
0
 30
0
  9
$UCSYDIR
 10
0
 20
1
 30
0
  9
$UCSORTHOREF
  2

  9
$UCSORTHOVIEW
 70
    0
  9
$UCSORGTOP
 10
0
 20
0
 30
0
  9
$UCSORGBOTTOM
 10
0
 20
0
 30
0
  9
$UCSORGLEFT
 10
0
 20
0
 30
0
  9
$UCSORGRIGHT
 10
0
 20
0
 30
0
  9
$UCSORGFRONT
 10
0
 20
0
 30
0
  9
$UCSORGBACK
 10
0
 20
0
 30
0
  9
$PUCSBASE
  2

  9
$PUCSNAME
  2

  9
$PUCSORG
 10
0
 20
0
 30
0
  9
$PUCSXDIR
 10
1
 20
0
 30
0
  9
$PUCSYDIR
 10
0
 20
1
 30
0
  9
$PUCSORTHOREF
  2

  9
$PUCSORTHOVIEW
 70
    0
  9
$PUCSORGTOP
 10
0
 20
0
 30
0
  9
$PUCSORGBOTTOM
 10
0
 20
0
 30
0
  9
$PUCSORGLEFT
 10
0
 20
0
 30
0
  9
$PUCSORGRIGHT
 10
0
 20
0
 30
0
  9
$PUCSORGFRONT
 10
0
 20
0
 30
0
  9
$PUCSORGBACK
 10
0
 20
0
 30
0
  9
$USERI1
 70
    0
  9
$USERI2
 70
    0
  9
$USERI3
 70
    0
  9
$USERI4
 70
    0
  9
$USERI5
 70
    0
  9
$USERR1
 40
0
  9
$USERR2
 40
0
  9
$USERR3
 40
0
  9
$USERR4
 40
0
  9
$USERR5
 40
0
  9
$WORLDVIEW
 70
    1
  9
$SHADEDGE
 70
    3
  9
$SHADEDIF
 70
   70
  9
$TILEMODE
 70
    1
  9
$MAXACTVP
 70
   64
  9
$PINSBASE
 10
6
 20
0
 30
0
  9
$PLIMCHECK
 70
    0
  9
$PEXTMIN
 10
0
 20
0
 30
0
  9
$PEXTMAX
 10
0
 20
0
 30
0
  9
$GRIDMODE
 70
    1
  9
$SNAPSTYLE
 70
    0
  9
$GRIDUNIT
 10
0
 20
0
  9
$PLIMMIN
 10
0
 20
0
  9
$PLIMMAX
 10
210
 20
297
  9
$UNITMODE
 70
    0
  9
$VISRETAIN
 70
    1
  9
$PLINEGEN
 70
    0
  9
$PSLTSCALE
 70
    1
  9
$TREEDEPTH
 70
 3020
  9
$CMLSTYLE
  2
Standard
  9
$CMLJUST
 70
    0
  9
$CMLSCALE
 40
20
  9
$PROXYGRAPHICS
 70
    1
  9
$MEASUREMENT
 70
    1
  9
$CELWEIGHT
370
   -1
  9
$ENDCAPS
280
    0
  9
$JOINSTYLE
280
    0
  9
$LWDISPLAY
290
    0
  9
$INSUNITS
 70
    4
  9
$HYPERLINKBASE
  1

  9
$STYLESHEET
  1

  9
$XEDIT
290
    1
  9
$CEPSNTYPE
380
    0
  9
$PSTYLEMODE
290
    1
  9
$EXTNAMES
290
    1
  9
$PSVPSCALE
 40
19.8
  9
$OLESTARTUP
290
    0
  9
$SORTENTS
280
  127
  9
$INDEXCTL
280
    0
  9
$HIDETEXT
280
    1
  9
$XCLIPFRAME
290
    0
  9
$HALOGAP
280
    0
  9
$OBSCOLOR
 70
  257
  9
$OBSLTYPE
280
    0
  9
$INTERSECTIONDISPLAY
280
    0
  9
$INTERSECTIONCOLOR
 70
  257
  9
$DIMASSOC
280
    1
  9
$PROJECTNAME
  1

  9
$CAMERADISPLAY
290
    0
  9
$LENSLENGTH
 40
50
  9
$CAMERAHEIGHT
 40
0
  9
$STEPSPERSEC
 40
2
  9
$STEPSIZE
 40
50
  9
$3DDWFPREC
 40
2
  9
$PSOLWIDTH
 40
5
  9
$PSOLHEIGHT
 40
80
  9
$LOFTANG1
 40
1.570796326794897
  9
$LOFTANG2
 40
1.570796326794897
  9
$LOFTMAG1
 40
0
  9
$LOFTMAG2
 40
0
  9
$LOFTPARAM
 70
    7
  9
$LOFTNORMALS
280
    1
  9
$LATITUDE
 40
1
  9
$LONGITUDE
 40
1
  9
$NORTHDIRECTION
 40
0
  9
$TIMEZONE
 70
-8000
  9
$LIGHTGLYPHDISPLAY
280
    1
  9
$TILEMODELIGHTSYNCH
280
    1
  9
$SOLIDHIST
280
    1
  9
$SHOWHIST
280
    1
  9
$DWFFRAME
280
    2
  9
$DGNFRAME
280
    0
  9
$REALWORLDSCALE
290
    1
  9
$INTERFERECOLOR
 62
    1
  9
$CSHADOW
280
    0
  9
$SHADOWPLANELOCATION
 40
0
  0
ENDSEC
  0
SECTION
  2
CLASSES
  0
ENDSEC
  0
SECTION
  2
TABLES
  0
TABLE
  2
VPORT
  5
8
330
0
100
AcDbSymbolTable
 70
    1
  0
VPORT
  5
31
330
2
100
AcDbSymbolTableRecord
100
AcDbViewportTableRecord
  2
*ACTIVE
 70
    0
 10
0
 20
0
 11
1
 21
1
 12
135.3777764106102
 22
82.90721755353233
 13
0
 23
0
 14
10
 24
10
 15
10
 25
10
 16
0
 26
0
 36
1
 17
0
 27
0
 37
0
 40
298.0178360708054
 41
1.823308270676692
 42
50
 43
0
 44
0
 50
0
 51
0
 71
    0
 72
  100
 73
    1
 74
    3
 75
    0
 76
    1
 77
    0
 78
    0
281
    0
 65
    1
110
0
120
0
130
0
111
1
121
0
131
0
112
0
122
1
132
0
 79
    0
146
0
348
10020
 60
    7
 61
    5
292
1
282
    1
141
0
142
0
 63
  250
421
3358443
  0
ENDTAB
  0
TABLE
  2
LTYPE
  5
5
330
0
100
AcDbSymbolTable
 70
    4
  0
LTYPE
  5
14
330
5
100
AcDbSymbolTableRecord
100
AcDbLinetypeTableRecord
  2
ByBlock
 70
    0
  3

 72
   65
 73
    0
 40
0
  0
LTYPE
  5
15
330
5
100
AcDbSymbolTableRecord
100
AcDbLinetypeTableRecord
  2
ByLayer
 70
    0
  3

 72
   65
 73
    0
 40
0
  0
LTYPE
  5
16
330
5
100
AcDbSymbolTableRecord
100
AcDbLinetypeTableRecord
  2
Continuous
 70
    0
  3
Solid line
 72
   65
 73
    0
 40
0
  0
LTYPE
  5
32
330
5
100
AcDbSymbolTableRecord
100
AcDbLinetypeTableRecord
  2
DOT
 70
    0
  3
Dot . . . . . . . . . . . . . . . . . . . . . .
 72
   65
 73
    2
 40
6.35
 49
0
 74
    0
 49
-6.35
 74
    0
  0
LTYPE
  5
33
330
5
100
AcDbSymbolTableRecord
100
AcDbLinetypeTableRecord
  2
DOTTINY
 70
    0
  3
Dot (.15x) .....................................
 72
   65
 73
    2
 40
0.9525
 49
0
 74
    0
 49
-0.9525
 74
    0
  0
LTYPE
  5
34
330
5
100
AcDbSymbolTableRecord
100
AcDbLinetypeTableRecord
  2
DOT2
 70
    0
  3
Dot (.5x) .....................................
 72
   65
 73
    2
 40
3.175
 49
0
 74
    0
 49
-3.175
 74
    0
  0
LTYPE
  5
35
330
5
100
AcDbSymbolTableRecord
100
AcDbLinetypeTableRecord
  2
DOTX2
 70
    0
  3
Dot (2x) .  .  .  .  .  .  .  .  .  .  .  .  .
 72
   65
 73
    2
 40
12.7
 49
0
 74
    0
 49
-12.7
 74
    0
  0
LTYPE
  5
36
330
5
100
AcDbSymbolTableRecord
100
AcDbLinetypeTableRecord
  2
DASHED
 70
    0
  3
Dashed _ _ _ _ _ _ _ _ _ _ _ _ _ _ _ _ _
 72
   65
 73
    2
 40
19.05
 49
12.7
 74
    0
 49
-6.35
 74
    0
  0
LTYPE
  5
37
330
5
100
AcDbSymbolTableRecord
100
AcDbLinetypeTableRecord
  2
DASHEDTINY
 70
    0
  3
Dashed (.15x) _ _ _ _ _ _ _ _ _ _ _ _ _ _ _ _ _
 72
   65
 73
    2
 40
2.8575
 49
1.905
 74
    0
 49
-0.9525
 74
    0
  0
LTYPE
  5
38
330
5
100
AcDbSymbolTableRecord
100
AcDbLinetypeTableRecord
  2
DASHED2
 70
    0
  3
Dashed (.5x) _ _ _ _ _ _ _ _ _ _ _ _ _ _ _ _ _
 72
   65
 73
    2
 40
9.524999999999999
 49
6.35
 74
    0
 49
-3.175
 74
    0
  0
LTYPE
  5
39
330
5
100
AcDbSymbolTableRecord
100
AcDbLinetypeTableRecord
  2
DASHEDX2
 70
    0
  3
Dashed (2x) ____  ____  ____  ____  ____  ___
 72
   65
 73
    2
 40
38.09999999999999
 49
25.4
 74
    0
 49
-12.7
 74
    0
  0
LTYPE
  5
3A
330
5
100
AcDbSymbolTableRecord
100
AcDbLinetypeTableRecord
  2
DASHDOT
 70
    0
  3
Dash dot __ . __ . __ . __ . __ . __ . __ . __
 72
   65
 73
    4
 40
25.4
 49
12.7
 74
    0
 49
-6.35
 74
    0
 49
0
 74
    0
 49
-6.35
 74
    0
  0
LTYPE
  5
3B
330
5
100
AcDbSymbolTableRecord
100
AcDbLinetypeTableRecord
  2
DASHDOTTINY
 70
    0
  3
Dash dot (.15x) _._._._._._._._._._._._._._._.
 72
   65
 73
    4
 40
3.81
 49
1.905
 74
    0
 49
-0.9525
 74
    0
 49
0
 74
    0
 49
-0.9525
 74
    0
  0
LTYPE
  5
3C
330
5
100
AcDbSymbolTableRecord
100
AcDbLinetypeTableRecord
  2
DASHDOT2
 70
    0
  3
Dash dot (.5x) _._._._._._._._._._._._._._._.
 72
   65
 73
    4
 40
12.7
 49
6.35
 74
    0
 49
-3.175
 74
    0
 49
0
 74
    0
 49
-3.175
 74
    0
  0
LTYPE
  5
3D
330
5
100
AcDbSymbolTableRecord
100
AcDbLinetypeTableRecord
  2
DASHDOTX2
 70
    0
  3
Dash dot (2x) ____  .  ____  .  ____  .  ___
 72
   65
 73
    4
 40
50.8
 49
25.4
 74
    0
 49
-12.7
 74
    0
 49
0
 74
    0
 49
-12.7
 74
    0
  0
LTYPE
  5
3E
330
5
100
AcDbSymbolTableRecord
100
AcDbLinetypeTableRecord
  2
DIVIDE
 70
    0
  3
Divide ____ . . ____ . . ____ . . ____ . . ____
 72
   65
 73
    6
 40
31.75
 49
12.7
 74
    0
 49
-6.35
 74
    0
 49
0
 74
    0
 49
-6.35
 74
    0
 49
0
 74
    0
 49
-6.35
 74
    0
  0
LTYPE
  5
3F
330
5
100
AcDbSymbolTableRecord
100
AcDbLinetypeTableRecord
  2
DIVIDETINY
 70
    0
  3
Divide (.15x) __..__..__..__..__..__..__..__.._
 72
   65
 73
    6
 40
4.7625
 49
1.905
 74
    0
 49
-0.9525
 74
    0
 49
0
 74
    0
 49
-0.9525
 74
    0
 49
0
 74
    0
 49
-0.9525
 74
    0
  0
LTYPE
  5
40
330
5
100
AcDbSymbolTableRecord
100
AcDbLinetypeTableRecord
  2
DIVIDE2
 70
    0
  3
Divide (.5x) __..__..__..__..__..__..__..__.._
 72
   65
 73
    6
 40
15.875
 49
6.35
 74
    0
 49
-3.175
 74
    0
 49
0
 74
    0
 49
-3.175
 74
    0
 49
0
 74
    0
 49
-3.175
 74
    0
  0
LTYPE
  5
41
330
5
100
AcDbSymbolTableRecord
100
AcDbLinetypeTableRecord
  2
DIVIDEX2
 70
    0
  3
Divide (2x) ________  .  .  ________  .  .  _
 72
   65
 73
    6
 40
63.5
 49
25.4
 74
    0
 49
-12.7
 74
    0
 49
0
 74
    0
 49
-12.7
 74
    0
 49
0
 74
    0
 49
-12.7
 74
    0
  0
LTYPE
  5
42
330
5
100
AcDbSymbolTableRecord
100
AcDbLinetypeTableRecord
  2
BORDER
 70
    0
  3
Border __ __ . __ __ . __ __ . __ __ . __ __ .
 72
   65
 73
    6
 40
44.45
 49
12.7
 74
    0
 49
-6.35
 74
    0
 49
12.7
 74
    0
 49
-6.35
 74
    0
 49
0
 74
    0
 49
-6.35
 74
    0
  0
LTYPE
  5
43
330
5
100
AcDbSymbolTableRecord
100
AcDbLinetypeTableRecord
  2
BORDERTINY
 70
    0
  3
Border (.15x) __.__.__.__.__.__.__.__.__.__.__.
 72
   65
 73
    6
 40
6.6675
 49
1.905
 74
    0
 49
-0.9525
 74
    0
 49
1.905
 74
    0
 49
-0.9525
 74
    0
 49
0
 74
    0
 49
-0.9525
 74
    0
  0
LTYPE
  5
44
330
5
100
AcDbSymbolTableRecord
100
AcDbLinetypeTableRecord
  2
BORDER2
 70
    0
  3
Border (.5x) __.__.__.__.__.__.__.__.__.__.__.
 72
   65
 73
    6
 40
22.225
 49
6.35
 74
    0
 49
-3.175
 74
    0
 49
6.35
 74
    0
 49
-3.175
 74
    0
 49
0
 74
    0
 49
-3.175
 74
    0
  0
LTYPE
  5
45
330
5
100
AcDbSymbolTableRecord
100
AcDbLinetypeTableRecord
  2
BORDERX2
 70
    0
  3
Border (2x) ____  ____  .  ____  ____  .  ___
 72
   65
 73
    6
 40
88.89999999999999
 49
25.4
 74
    0
 49
-12.7
 74
    0
 49
25.4
 74
    0
 49
-12.7
 74
    0
 49
0
 74
    0
 49
-12.7
 74
    0
  0
LTYPE
  5
46
330
5
100
AcDbSymbolTableRecord
100
AcDbLinetypeTableRecord
  2
CENTER
 70
    0
  3
Center ____ _ ____ _ ____ _ ____ _ ____ _ ____
 72
   65
 73
    4
 40
50.8
 49
31.75
 74
    0
 49
-6.35
 74
    0
 49
6.35
 74
    0
 49
-6.35
 74
    0
  0
LTYPE
  5
47
330
5
100
AcDbSymbolTableRecord
100
AcDbLinetypeTableRecord
  2
CENTERTINY
 70
    0
  3
Center (.15x) ___ _ ___ _ ___ _ ___ _ ___ _ ___
 72
   65
 73
    4
 40
7.619999999999999
 49
4.7625
 74
    0
 49
-0.9525
 74
    0
 49
0.9525
 74
    0
 49
-0.9525
 74
    0
  0
LTYPE
  5
48
330
5
100
AcDbSymbolTableRecord
100
AcDbLinetypeTableRecord
  2
CENTER2
 70
    0
  3
Center (.5x) ___ _ ___ _ ___ _ ___ _ ___ _ ___
 72
   65
 73
    4
 40
28.575
 49
19.05
 74
    0
 49
-3.175
 74
    0
 49
3.175
 74
    0
 49
-3.175
 74
    0
  0
LTYPE
  5
49
330
5
100
AcDbSymbolTableRecord
100
AcDbLinetypeTableRecord
  2
CENTERX2
 70
    0
  3
Center (2x) ________  __  ________  __  _____
 72
   65
 73
    4
 40
101.6
 49
63.5
 74
    0
 49
-12.7
 74
    0
 49
12.7
 74
    0
 49
-12.7
 74
    0
  0
ENDTAB
  0
TABLE
  2
LAYER
  5
2
330
0
100
AcDbSymbolTable
 70
    1
  0
LAYER
  5
10
330
2
100
AcDbSymbolTableRecord
100
AcDbLayerTableRecord
  2
0
 70
    0
 62
    7
  6
CONTINUOUS
370
    5
390
F
  0
LAYER
  5
4A
330
2
100
AcDbSymbolTableRecord
100
AcDbLayerTableRecord
  2
Coordinate_System
 70
    0
 62
    1
  6
CONTINUOUS
370
   15
390
F
  0
LAYER
  5
4B
330
2
100
AcDbSymbolTableRecord
100
AcDbLayerTableRecord
  2
Dimensions
 70
    0
 62
    5
  6
CONTINUOUS
370
    5
390
F
  0
ENDTAB
  0
TABLE
  2
STYLE
  5
3
330
0
100
AcDbSymbolTable
 70
    3
  0
STYLE
  5
4C
330
2
100
AcDbSymbolTableRecord
100
AcDbTextStyleTableRecord
  2
standard
 70
    0
 40
0
 41
1
 50
0
 71
    0
 42
1
  3
standard
  4

  0
STYLE
  5
4D
330
2
100
AcDbSymbolTableRecord
100
AcDbTextStyleTableRecord
  2
STANDARD
 70
    0
 40
0
 41
1
 50
0
 71
    0
 42
1
  3
STANDARD
  4

  0
ENDTAB
  0
TABLE
  2
VIEW
  5
6
330
0
100
AcDbSymbolTable
 70
    0
  0
ENDTAB
  0
TABLE
  2
UCS
  5
7
330
0
100
AcDbSymbolTable
 70
    0
  0
ENDTAB
  0
TABLE
  2
APPID
  5
9
330
0
100
AcDbSymbolTable
 70
    1
  0
APPID
  5
12
330
9
100
AcDbSymbolTableRecord
100
AcDbRegAppTableRecord
  2
ACAD
 70
    0
  0
APPID
  5
4E
330
9
100
AcDbSymbolTableRecord
100
AcDbRegAppTableRecord
  2
LibreCad
 70
    0
  0
ENDTAB
  0
TABLE
  2
DIMSTYLE
  5
A
330
0
100
AcDbSymbolTable
 70
    1
100
AcDbDimStyleTable
 71
    1
  0
DIMSTYLE
105
4F
330
A
100
AcDbSymbolTableRecord
100
AcDbDimStyleTableRecord
  2
Standard
 70
    0
 40
1
 41
1
 42
0.625
 43
0.38
 44
1.25
 45
0
 46
0
 47
0
 48
0
 49
1
140
1
141
0.09
142
0
143
25.4
144
1
145
0
146
1
147
0.625
148
0
 71
    0
 72
    0
 73
    0
 74
    1
 75
    0
 76
    0
 77
    0
 78
    1
 79
    0
170
    0
171
    2
172
    0
173
    0
174
    0
175
    0
176
    0
177
    0
178
    0
179
    2
271
    4
272
    4
273
    2
274
    2
275
    0
276
    0
277
    2
278
    0
279
    0
280
    0
281
    0
282
    0
283
    1
284
    0
285
    0
286
    0
288
    0
289
    3
340
standard
341

371
    8
372
   -2
  0
ENDTAB
  0
TABLE
  2
BLOCK_RECORD
  5
1
330
0
100
AcDbSymbolTable
 70
    2
  0
BLOCK_RECORD
  5
1F
330
1
100
AcDbSymbolTableRecord
100
AcDbBlockTableRecord
  2
*Model_Space
 70
    0
280
    1
281
    0
  0
BLOCK_RECORD
  5
1E
330
1
100
AcDbSymbolTableRecord
100
AcDbBlockTableRecord
  2
*Paper_Space
 70
    0
280
    1
281
    0
  0
BLOCK_RECORD
  5
50
330
1
100
AcDbSymbolTableRecord
100
AcDbBlockTableRecord
  2
*D7
 70
    0
280
    1
281
    0
  0
BLOCK_RECORD
  5
53
330
1
100
AcDbSymbolTableRecord
100
AcDbBlockTableRecord
  2
*D22
 70
    0
280
    1
281
    0
  0
BLOCK_RECORD
  5
56
330
1
100
AcDbSymbolTableRecord
100
AcDbBlockTableRecord
  2
*D13
 70
    0
280
    1
281
    0
  0
BLOCK_RECORD
  5
59
330
1
100
AcDbSymbolTableRecord
100
AcDbBlockTableRecord
  2
*D9
 70
    0
280
    1
281
    0
  0
BLOCK_RECORD
  5
5C
330
1
100
AcDbSymbolTableRecord
100
AcDbBlockTableRecord
  2
*D16
 70
    0
280
    1
281
    0
  0
BLOCK_RECORD
  5
5F
330
1
100
AcDbSymbolTableRecord
100
AcDbBlockTableRecord
  2
*D20
 70
    0
280
    1
281
    0
  0
BLOCK_RECORD
  5
62
330
1
100
AcDbSymbolTableRecord
100
AcDbBlockTableRecord
  2
*D14
 70
    0
280
    1
281
    0
  0
BLOCK_RECORD
  5
65
330
1
100
AcDbSymbolTableRecord
100
AcDbBlockTableRecord
  2
*D15
 70
    0
280
    1
281
    0
  0
BLOCK_RECORD
  5
68
330
1
100
AcDbSymbolTableRecord
100
AcDbBlockTableRecord
  2
*D6
 70
    0
280
    1
281
    0
  0
BLOCK_RECORD
  5
6B
330
1
100
AcDbSymbolTableRecord
100
AcDbBlockTableRecord
  2
*D2
 70
    0
280
    1
281
    0
  0
BLOCK_RECORD
  5
6E
330
1
100
AcDbSymbolTableRecord
100
AcDbBlockTableRecord
  2
*D11
 70
    0
280
    1
281
    0
  0
BLOCK_RECORD
  5
71
330
1
100
AcDbSymbolTableRecord
100
AcDbBlockTableRecord
  2
*D12
 70
    0
280
    1
281
    0
  0
BLOCK_RECORD
  5
74
330
1
100
AcDbSymbolTableRecord
100
AcDbBlockTableRecord
  2
*D18
 70
    0
280
    1
281
    0
  0
BLOCK_RECORD
  5
77
330
1
100
AcDbSymbolTableRecord
100
AcDbBlockTableRecord
  2
*D19
 70
    0
280
    1
281
    0
  0
BLOCK_RECORD
  5
7A
330
1
100
AcDbSymbolTableRecord
100
AcDbBlockTableRecord
  2
*D8
 70
    0
280
    1
281
    0
  0
BLOCK_RECORD
  5
7D
330
1
100
AcDbSymbolTableRecord
100
AcDbBlockTableRecord
  2
*D4
 70
    0
280
    1
281
    0
  0
BLOCK_RECORD
  5
80
330
1
100
AcDbSymbolTableRecord
100
AcDbBlockTableRecord
  2
*D5
 70
    0
280
    1
281
    0
  0
BLOCK_RECORD
  5
83
330
1
100
AcDbSymbolTableRecord
100
AcDbBlockTableRecord
  2
*D21
 70
    0
280
    1
281
    0
  0
BLOCK_RECORD
  5
86
330
1
100
AcDbSymbolTableRecord
100
AcDbBlockTableRecord
  2
*D17
 70
    0
280
    1
281
    0
  0
BLOCK_RECORD
  5
89
330
1
100
AcDbSymbolTableRecord
100
AcDbBlockTableRecord
  2
*D1
 70
    0
280
    1
281
    0
  0
BLOCK_RECORD
  5
8C
330
1
100
AcDbSymbolTableRecord
100
AcDbBlockTableRecord
  2
*D3
 70
    0
280
    1
281
    0
  0
BLOCK_RECORD
  5
8F
330
1
100
AcDbSymbolTableRecord
100
AcDbBlockTableRecord
  2
*D10
 70
    0
280
    1
281
    0
  0
ENDTAB
  0
ENDSEC
  0
SECTION
  2
BLOCKS
  0
BLOCK
  5
20
330
1F
100
AcDbEntity
  8
0
100
AcDbBlockBegin
  2
*Model_Space
 70
    0
 10
0
 20
0
 30
0
  3
*Model_Space
  1

  0
ENDBLK
  5
21
330
1F
100
AcDbEntity
  8
0
100
AcDbBlockEnd
  0
BLOCK
  5
1C
330
1B
100
AcDbEntity
  8
0
100
AcDbBlockBegin
  2
*Paper_Space
 70
    0
 10
0
 20
0
 30
0
  3
*Paper_Space
  1

  0
ENDBLK
  5
1D
330
1F
100
AcDbEntity
  8
0
100
AcDbBlockEnd
  0
BLOCK
  5
51
330
50
100
AcDbEntity
  8
0
100
AcDbBlockBegin
  2
*D7
 70
    1
 10
0
 20
0
  3
*D7
  1

  0
LINE
  5
92
100
AcDbEntity
  8
Dimensions
  6
ByBlock
 62
    0
370
   -2
100
AcDbLine
 10
-2
 20
-0.625
 11
-2.000000000000001
 21
-3.25
  0
LINE
  5
93
100
AcDbEntity
  8
Dimensions
  6
ByBlock
 62
    0
370
   -2
100
AcDbLine
 10
2
 20
-0.625
 11
1.999999999999999
 21
-3.25
  0
LINE
  5
94
100
AcDbEntity
  8
Dimensions
  6
ByBlock
 62
    0
370
    9
100
AcDbLine
 10
-2
 20
-2
 11
2
 21
-2
  0
MTEXT
  5
95
100
AcDbEntity
  8
Dimensions
  6
CONTINUOUS
 62
    0
370
   -2
100
AcDbMText
 10
0.5138888888889817
 20
-4
 30
0
 40
1
 41
9.777777777777963
 71
    5
 72
    1
  1
opening_width
  7
standard
210
0
220
0
230
1
 50
0
 73
    2
 44
1
  0
SOLID
  5
96
100
AcDbEntity
  8
Dimensions
  6
ByBlock
 62
    0
370
    9
100
AcDbTrace
 10
-2
 20
-2
 30
0
 11
-1
 21
-1.833486136890864
 31
0
 12
-1
 22
-2.166513863109136
 32
0
 13
-1
 23
-2.166513863109136
 33
0
  0
SOLID
  5
97
100
AcDbEntity
  8
Dimensions
  6
ByBlock
 62
    0
370
    9
100
AcDbTrace
 10
2
 20
-2
 30
0
 11
0.9999999999999996
 21
-2.166513863109136
 31
0
 12
0.9999999999999996
 22
-1.833486136890864
 32
0
 13
0.9999999999999996
 23
-1.833486136890864
 33
0
  0
ENDBLK
  5
52
330
50
100
AcDbEntity
  8
0
100
AcDbBlockEnd
  0
BLOCK
  5
54
330
53
100
AcDbEntity
  8
0
100
AcDbBlockBegin
  2
*D22
 70
    1
 10
0
 20
0
  3
*D22
  1

  0
SOLID
  5
98
100
AcDbEntity
  8
Dimensions
  6
ByBlock
 62
    0
370
    9
100
AcDbTrace
 10
-14.14920888383224
 20
6.762209683406894
 30
0
 11
-14.91784659050207
 21
6.101208214049315
 31
0
 12
-15.09056561907854
 22
6.38594599446792
 32
0
 13
-15.09056561907854
 23
6.38594599446792
 33
0
  0
LINE
  5
99
100
AcDbEntity
  8
Dimensions
  6
ByBlock
 62
    0
370
    9
100
AcDbLine
 10
-10.72922
 20
8.836740000000001
 11
-25.92917147423826
 21
-0.3833952738660198
  0
MTEXT
  5
9A
100
AcDbEntity
  8
Dimensions
  6
CONTINUOUS
 62
    0
370
   -2
100
AcDbMText
 10
-20.62265183057706
 20
4.151279078348256
 30
0
 40
1
 41
11.77777880635222
 71
    5
 72
    1
  1
top_side_radius
  7
standard
210
0
220
0
230
1
 50
31.2405722313672
 73
    2
 44
1
  0
ENDBLK
  5
55
330
53
100
AcDbEntity
  8
0
100
AcDbBlockEnd
  0
BLOCK
  5
57
330
56
100
AcDbEntity
  8
0
100
AcDbBlockBegin
  2
*D13
 70
    1
 10
0
 20
0
  3
*D13
  1

  0
SOLID
  5
9B
100
AcDbEntity
  8
Dimensions
  6
ByBlock
 62
    0
370
    9
100
AcDbTrace
 10
5.870591557378726
 20
2.308483162932574
 30
0
 11
5.483073958085032
 21
3.245263274188775
 31
0
 12
5.807540563775967
 22
3.320289191187611
 32
0
 13
5.807540563775967
 23
3.320289191187611
 33
0
  0
LINE
  5
9C
100
AcDbEntity
  8
Dimensions
  6
ByBlock
 62
    0
370
    9
100
AcDbLine
 10
3.16718
 20
14
 11
5.870591557378726
 21
2.308483162932575
  0
MTEXT
  5
9D
100
AcDbEntity
  8
Dimensions
  6
CONTINUOUS
 62
    0
370
   -2
100
AcDbMText
 10
5.2
 20
11.6
 30
0
 40
1
 41
7.555556069842798
 71
    5
 72
    1
  1
top_radius
  7
standard
210
0
220
0
230
1
 50
283.0195963741618
 73
    2
 44
1
  0
ENDBLK
  5
58
330
56
100
AcDbEntity
  8
0
100
AcDbBlockEnd
  0
BLOCK
  5
5A
330
59
100
AcDbEntity
  8
0
100
AcDbBlockBegin
  2
*D9
 70
    1
 10
0
 20
0
  3
*D9
  1

  0
LINE
  5
9E
100
AcDbEntity
  8
Dimensions
  6
ByBlock
 62
    0
370
    9
100
AcDbLine
 10
-14
 20
-12
 11
14
 21
-12
  0
MTEXT
  5
9F
100
AcDbEntity
  8
Dimensions
  6
CONTINUOUS
 62
    0
370
   -2
100
AcDbMText
 10
-8.192920372480866e-16
 20
-10.875
 30
0
 40
1
 41
11.22222273650947
 71
    5
 72
    1
  1
top_side_width
  7
standard
210
0
220
0
230
1
 50
0
 73
    2
 44
1
  0
SOLID
  5
A0
100
AcDbEntity
  8
Dimensions
  6
ByBlock
 62
    0
370
    9
100
AcDbTrace
 10
-14
 20
-12
 30
0
 11
-13
 21
-11.83348613689086
 31
0
 12
-13
 22
-12.16651386310914
 32
0
 13
-13
 23
-12.16651386310914
 33
0
  0
SOLID
  5
A1
100
AcDbEntity
  8
Dimensions
  6
ByBlock
 62
    0
370
    9
100
AcDbTrace
 10
14
 20
-12
 30
0
 11
13
 21
-12.16651386310914
 31
0
 12
13
 22
-11.83348613689086
 32
0
 13
13
 23
-11.83348613689086
 33
0
  0
LINE
  5
A2
100
AcDbEntity
  8
Dimensions
  6
ByBlock
 62
    0
370
   -2
100
AcDbLine
 10
-14
 20
5.375000000000002
 11
-14
 21
-13.25
  0
LINE
  5
A3
100
AcDbEntity
  8
Dimensions
  6
ByBlock
 62
    0
370
   -2
100
AcDbLine
 10
14
 20
5.375
 11
14
 21
-13.25
  0
ENDBLK
  5
5B
330
59
100
AcDbEntity
  8
0
100
AcDbBlockEnd
  0
BLOCK
  5
5D
330
5C
100
AcDbEntity
  8
0
100
AcDbBlockBegin
  2
*D16
 70
    1
 10
0
 20
0
  3
*D16
  1

  0
ARC
  5
A4
100
AcDbEntity
  8
Dimensions
  6
ByBlock
 62
    0
370
    9
100
AcDbCircle
 10
-19.99999375526595
 20
24.00001400028609
 40
2.999993755298616
100
AcDbArc
 50
288.4349175638069
 51
56.30985673996271
  0
SOLID
  5
A5
100
AcDbEntity
  8
Dimensions
  6
ByBlock
 62
    0
370
    9
100
AcDbTrace
 10
-19.0513139846925
 20
21.15396951280256
 30
0
 11
-18.24637030617601
 21
21.7702426186768
 31
0
 12
-18.0901041771146
 22
21.47615357886355
 32
0
 13
-18.0901041771146
 23
21.47615357886355
 33
0
  0
SOLID
  5
A6
100
AcDbEntity
  8
Dimensions
  6
ByBlock
 62
    0
370
    9
100
AcDbTrace
 10
-18.33589333110181
 20
26.49615748777383
 30
0
 11
-17.49332617250613
 21
25.93241335267039
 31
0
 12
-17.72146647858266
 22
25.68980365135279
 32
0
 13
-17.72146647858266
 23
25.68980365135279
 33
0
  0
MTEXT
  5
A7
100
AcDbEntity
  8
Dimensions
  6
CONTINUOUS
 62
    0
370
   -2
100
AcDbMText
 10
-17.64601469011854
 20
23.68477139758909
 30
0
 40
1
 41
0
 71
    8
 72
    1
  1

  7
standard
210
0
220
0
230
1
 50
82.37238715188478
 73
    2
 44
1
  0
ENDBLK
  5
5E
330
5C
100
AcDbEntity
  8
0
100
AcDbBlockEnd
  0
BLOCK
  5
60
330
5F
100
AcDbEntity
  8
0
100
AcDbBlockBegin
  2
*D20
 70
    1
 10
0
 20
0
  3
*D20
  1

  0
LINE
  5
A8
100
AcDbEntity
  8
Dimensions
  6
ByBlock
 62
    0
370
    9
100
AcDbLine
 10
-28
 20
2.000000000000002
 11
-28
 21
6.000000000000001
  0
MTEXT
  5
A9
100
AcDbEntity
  8
Dimensions
  6
CONTINUOUS
 62
    0
370
   -2
100
AcDbMText
 10
-29
 20
-2.597222222222154
 30
0
 40
1
 41
7.555555555555692
 71
    5
 72
    1
  1
top_height
  7
standard
210
0
220
0
230
1
 50
90
 73
    2
 44
1
  0
SOLID
  5
AA
100
AcDbEntity
  8
Dimensions
  6
ByBlock
 62
    0
370
    9
100
AcDbTrace
 10
-28
 20
2.000000000000002
 30
0
 11
-28.16651386310913
 21
3.000000000000002
 31
0
 12
-27.83348613689086
 22
3.000000000000002
 32
0
 13
-27.83348613689086
 23
3.000000000000002
 33
0
  0
SOLID
  5
AB
100
AcDbEntity
  8
Dimensions
  6
ByBlock
 62
    0
370
    9
100
AcDbTrace
 10
-28
 20
6.000000000000001
 30
0
 11
-27.83348613689087
 21
5.000000000000001
 31
0
 12
-28.16651386310913
 22
5.000000000000001
 32
0
 13
-28.16651386310913
 23
5.000000000000001
 33
0
  0
LINE
  5
AC
100
AcDbEntity
  8
Dimensions
  6
ByBlock
 62
    0
370
   -2
100
AcDbLine
 10
-6.625
 20
2
 11
-29.25
 21
2.000000000000002
  0
LINE
  5
AD
100
AcDbEntity
  8
Dimensions
  6
ByBlock
 62
    0
370
   -2
100
AcDbLine
 10
-14.625
 20
6
 11
-29.25
 21
6.000000000000001
  0
ENDBLK
  5
61
330
5F
100
AcDbEntity
  8
0
100
AcDbBlockEnd
  0
BLOCK
  5
63
330
62
100
AcDbEntity
  8
0
100
AcDbBlockBegin
  2
*D14
 70
    1
 10
0
 20
0
  3
*D14
  1

  0
SOLID
  5
AE
100
AcDbEntity
  8
Dimensions
  6
ByBlock
 62
    0
370
    9
100
AcDbTrace
 10
-19.50640329856396
 20
24.20605639217
 30
0
 11
-20.51952935794897
 21
24.24214592531386
 31
0
 12
-20.45316888846093
 22
24.56849505511114
 32
0
 13
-20.45316888846093
 23
24.56849505511114
 33
0
  0
LINE
  5
AF
100
AcDbEntity
  8
Dimensions
  6
ByBlock
 62
    0
370
    9
100
AcDbLine
 10
-15.58662
 20
23.409
 11
-35.40330323957622
 21
27.4385630764841
  0
MTEXT
  5
B0
100
AcDbEntity
  8
Dimensions
  6
CONTINUOUS
 62
    0
370
   -2
100
AcDbMText
 10
-27.23068115877228
 20
26.92474878704817
 30
0
 40
1
 41
14.22222325079676
 71
    5
 72
    1
  1
bottom_side_radius
  7
standard
210
0
220
0
230
1
 50
348.5060712031082
 73
    2
 44
1
  0
ENDBLK
  5
64
330
62
100
AcDbEntity
  8
0
100
AcDbBlockEnd
  0
BLOCK
  5
66
330
65
100
AcDbEntity
  8
0
100
AcDbBlockBegin
  2
*D15
 70
    1
 10
0
 20
0
  3
*D15
  1

  0
ARC
  5
B1
100
AcDbEntity
  8
Dimensions
  6
ByBlock
 62
    0
370
    9
100
AcDbCircle
 10
15.99999293726325
 20
30
 40
4.242635693013176
100
AcDbArc
 50
180
 51
303.6901142180707
  0
SOLID
  5
B2
100
AcDbEntity
  8
Dimensions
  6
ByBlock
 62
    0
370
    9
100
AcDbTrace
 10
11.75735724425008
 20
30
 30
0
 11
12.04029474991885
 21
29.0265149027882
 31
0
 12
11.70957704618726
 22
28.98735795106039
 32
0
 13
11.70957704618726
 23
28.98735795106039
 33
0
  0
SOLID
  5
B3
100
AcDbEntity
  8
Dimensions
  6
ByBlock
 62
    0
370
    9
100
AcDbTrace
 10
18.35338666546479
 20
26.46991564071182
 30
0
 11
17.53732172598208
 21
25.86844670456082
 31
0
 12
17.38645286208941
 22
26.16534071315286
 32
0
 13
17.38645286208941
 23
26.16534071315286
 33
0
  0
MTEXT
  5
B4
100
AcDbEntity
  8
Dimensions
  6
CONTINUOUS
 62
    0
370
   -2
100
AcDbMText
 10
14.29298416346993
 20
26.8104218063268
 30
0
 40
1
 41
0
 71
    8
 72
    1
  1

  7
standard
210
0
220
0
230
1
 50
-28.15494289096464
 73
    2
 44
1
  0
ENDBLK
  5
67
330
65
100
AcDbEntity
  8
0
100
AcDbBlockEnd
  0
BLOCK
  5
69
330
68
100
AcDbEntity
  8
0
100
AcDbBlockBegin
  2
*D6
 70
    1
 10
0
 20
0
  3
*D6
  1

  0
LINE
  5
B5
100
AcDbEntity
  8
Dimensions
  6
ByBlock
 62
    0
370
    9
100
AcDbLine
 10
-20
 20
37
 11
20
 21
37
  0
MTEXT
  5
B6
100
AcDbEntity
  8
Dimensions
  6
CONTINUOUS
 62
    0
370
   -2
100
AcDbMText
 10
6.888638245203862e-17
 20
38.125
 30
0
 40
1
 41
13.666667180954
 71
    5
 72
    1
  1
bottom_side_width
  7
standard
210
0
220
0
230
1
 50
0
 73
    2
 44
1
  0
SOLID
  5
B7
100
AcDbEntity
  8
Dimensions
  6
ByBlock
 62
    0
370
    9
100
AcDbTrace
 10
-20
 20
37
 30
0
 11
-19
 21
37.16651386310914
 31
0
 12
-19
 22
36.83348613689086
 32
0
 13
-19
 23
36.83348613689086
 33
0
  0
SOLID
  5
B8
100
AcDbEntity
  8
Dimensions
  6
ByBlock
 62
    0
370
    9
100
AcDbTrace
 10
20
 20
37
 30
0
 11
19
 21
36.83348613689086
 31
0
 12
19
 22
37.16651386310914
 32
0
 13
19
 23
37.16651386310914
 33
0
  0
LINE
  5
B9
100
AcDbEntity
  8
Dimensions
  6
ByBlock
 62
    0
370
   -2
100
AcDbLine
 10
-20
 20
24.625
 11
-20
 21
38.25
  0
LINE
  5
BA
100
AcDbEntity
  8
Dimensions
  6
ByBlock
 62
    0
370
   -2
100
AcDbLine
 10
20
 20
24.625
 11
20
 21
38.25
  0
ENDBLK
  5
6A
330
68
100
AcDbEntity
  8
0
100
AcDbBlockEnd
  0
BLOCK
  5
6C
330
6B
100
AcDbEntity
  8
0
100
AcDbBlockBegin
  2
*D2
 70
    1
 10
0
 20
0
  3
*D2
  1

  0
LINE
  5
BB
100
AcDbEntity
  8
Dimensions
  6
ByBlock
 62
    0
370
    9
100
AcDbLine
 10
32
 20
0
 11
32
 21
30
  0
MTEXT
  5
BC
100
AcDbEntity
  8
Dimensions
  6
CONTINUOUS
 62
    0
370
   -2
100
AcDbMText
 10
29.75
 20
15
 30
0
 40
1
 41
3.777777777777917
 71
    5
 72
    1
  1
height
  7
standard
210
0
220
0
230
1
 50
90
 73
    2
 44
1
  0
SOLID
  5
BD
100
AcDbEntity
  8
Dimensions
  6
ByBlock
 62
    0
370
    9
100
AcDbTrace
 10
32
 20
0
 30
0
 11
31.83348613689086
 21
1
 31
0
 12
32.16651386310913
 22
1
 32
0
 13
32.16651386310913
 23
1
 33
0
  0
SOLID
  5
BE
100
AcDbEntity
  8
Dimensions
  6
ByBlock
 62
    0
370
    9
100
AcDbTrace
 10
32
 20
30
 30
0
 11
32.16651386310914
 21
29
 31
0
 12
31.83348613689087
 22
29
 32
0
 13
31.83348613689087
 23
29
 33
0
  0
LINE
  5
BF
100
AcDbEntity
  8
Dimensions
  6
ByBlock
 62
    0
370
   -2
100
AcDbLine
 10
2.625
 20
0
 11
33.25
 21
0
  0
LINE
  5
C0
100
AcDbEntity
  8
Dimensions
  6
ByBlock
 62
    0
370
   -2
100
AcDbLine
 10
16.625
 20
30
 11
33.25
 21
30
  0
ENDBLK
  5
6D
330
6B
100
AcDbEntity
  8
0
100
AcDbBlockEnd
  0
BLOCK
  5
6F
330
6E
100
AcDbEntity
  8
0
100
AcDbBlockBegin
  2
*D11
 70
    1
 10
0
 20
0
  3
*D11
  1

  0
SOLID
  5
C1
100
AcDbEntity
  8
Dimensions
  6
ByBlock
 62
    0
370
    9
100
AcDbTrace
 10
2.180295878712082
 20
1.572787179974903
 30
0
 11
1.265214751347155
 21
2.009082260107675
 31
0
 12
1.455968763501173
 22
2.282066459791937
 32
0
 13
1.455968763501173
 23
2.282066459791937
 33
0
  0
LINE
  5
C2
100
AcDbEntity
  8
Dimensions
  6
ByBlock
 62
    0
370
    9
100
AcDbLine
 10
3
 20
1
 11
-7.929388705402395
 21
8.637162694242596
  0
MTEXT
  5
C3
100
AcDbEntity
  8
Dimensions
  6
CONTINUOUS
 62
    0
370
   -2
100
AcDbMText
 10
-4.5
 20
8.4
 30
0
 40
1
 41
10.33333384762072
 71
    5
 72
    1
  1
opening_radius
  7
standard
210
0
220
0
230
1
 50
325.055186119149
 73
    2
 44
1
  0
ENDBLK
  5
70
330
6E
100
AcDbEntity
  8
0
100
AcDbBlockEnd
  0
BLOCK
  5
72
330
71
100
AcDbEntity
  8
0
100
AcDbBlockBegin
  2
*D12
 70
    1
 10
0
 20
0
  3
*D12
  1

  0
ARC
  5
C4
100
AcDbEntity
  8
Dimensions
  6
ByBlock
 62
    0
370
    9
100
AcDbCircle
 10
-14
 20
5.999999999999998
 40
2.236067977499791
100
AcDbArc
 50
333.4349667257284
 51
108.4349175638069
  0
SOLID
  5
C5
100
AcDbEntity
  8
Dimensions
  6
ByBlock
 62
    0
370
    9
100
AcDbTrace
 10
-11.99999968753718
 20
5.00000062492588
 30
0
 11
-11.92399735876521
 21
6.010916305202314
 31
0
 12
-11.6005180878235
 22
5.931741639423861
 32
0
 13
-11.6005180878235
 23
5.931741639423861
 33
0
  0
SOLID
  5
C6
100
AcDbEntity
  8
Dimensions
  6
ByBlock
 62
    0
370
    9
100
AcDbTrace
 10
-14.7071056238482
 20
8.121320729338739
 30
0
 11
-13.72823378722808
 21
8.385019030583681
 31
0
 12
-13.69560182140017
 22
8.053593893884127
 32
0
 13
-13.69560182140017
 23
8.053593893884127
 33
0
  0
MTEXT
  5
C7
100
AcDbEntity
  8
Dimensions
  6
CONTINUOUS
 62
    0
370
   -2
100
AcDbMText
 10
-11.83859466239348
 20
7.874576469083287
 30
0
 40
1
 41
11.22222273650956
 71
    8
 72
    1
  1
top_side_angle
  7
standard
210
0
220
0
230
1
 50
310.9349421447677
 73
    2
 44
1
  0
ENDBLK
  5
73
330
71
100
AcDbEntity
  8
0
100
AcDbBlockEnd
  0
BLOCK
  5
75
330
74
100
AcDbEntity
  8
0
100
AcDbBlockBegin
  2
*D18
 70
    1
 10
0
 20
0
  3
*D18
  1

  0
LINE
  5
C8
100
AcDbEntity
  8
Dimensions
  6
ByBlock
 62
    0
370
    9
100
AcDbLine
 10
-28
 20
24
 11
-28
 21
30
  0
MTEXT
  5
C9
100
AcDbEntity
  8
Dimensions
  6
CONTINUOUS
 62
    0
370
   -2
100
AcDbMText
 10
-29.125
 20
35.62500000000011
 30
0
 40
1
 41
10.00000000000023
 71
    5
 72
    1
  1
bottom_height
  7
standard
210
0
220
0
230
1
 50
90
 73
    2
 44
1
  0
SOLID
  5
CA
100
AcDbEntity
  8
Dimensions
  6
ByBlock
 62
    0
370
    9
100
AcDbTrace
 10
-28
 20
24
 30
0
 11
-28.16651386310913
 21
25
 31
0
 12
-27.83348613689086
 22
25
 32
0
 13
-27.83348613689086
 23
25
 33
0
  0
SOLID
  5
CB
100
AcDbEntity
  8
Dimensions
  6
ByBlock
 62
    0
370
    9
100
AcDbTrace
 10
-28
 20
30
 30
0
 11
-27.83348613689087
 21
29
 31
0
 12
-28.16651386310913
 22
29
 32
0
 13
-28.16651386310913
 23
29
 33
0
  0
LINE
  5
CC
100
AcDbEntity
  8
Dimensions
  6
ByBlock
 62
    0
370
   -2
100
AcDbLine
 10
-20.625
 20
24
 11
-29.25
 21
24
  0
LINE
  5
CD
100
AcDbEntity
  8
Dimensions
  6
ByBlock
 62
    0
370
   -2
100
AcDbLine
 10
-16.625
 20
30
 11
-29.25
 21
30
  0
ENDBLK
  5
76
330
74
100
AcDbEntity
  8
0
100
AcDbBlockEnd
  0
BLOCK
  5
78
330
77
100
AcDbEntity
  8
0
100
AcDbBlockBegin
  2
*D19
 70
    1
 10
0
 20
0
  3
*D19
  1

  0
LINE
  5
CE
100
AcDbEntity
  8
Dimensions
  6
ByBlock
 62
    0
370
    9
100
AcDbLine
 10
-28
 20
6
 11
-28
 21
24
  0
MTEXT
  5
CF
100
AcDbEntity
  8
Dimensions
  6
CONTINUOUS
 62
    0
370
   -2
100
AcDbMText
 10
-29.125
 20
15
 30
0
 40
1
 41
8.00038097202475
 71
    5
 72
    1
  1
side_height
  7
standard
210
0
220
0
230
1
 50
90
 73
    2
 44
1
  0
SOLID
  5
D0
100
AcDbEntity
  8
Dimensions
  6
ByBlock
 62
    0
370
    9
100
AcDbTrace
 10
-28
 20
6
 30
0
 11
-28.16651386310913
 21
7
 31
0
 12
-27.83348613689086
 22
7
 32
0
 13
-27.83348613689086
 23
7
 33
0
  0
SOLID
  5
D1
100
AcDbEntity
  8
Dimensions
  6
ByBlock
 62
    0
370
    9
100
AcDbTrace
 10
-28
 20
24
 30
0
 11
-27.83348613689087
 21
23
 31
0
 12
-28.16651386310913
 22
23
 32
0
 13
-28.16651386310913
 23
23
 33
0
  0
LINE
  5
D2
100
AcDbEntity
  8
Dimensions
  6
ByBlock
 62
    0
370
   -2
100
AcDbLine
 10
-14.625
 20
6
 11
-29.25
 21
6
  0
LINE
  5
D3
100
AcDbEntity
  8
Dimensions
  6
ByBlock
 62
    0
370
   -2
100
AcDbLine
 10
-20.625
 20
24
 11
-29.25
 21
24
  0
ENDBLK
  5
79
330
77
100
AcDbEntity
  8
0
100
AcDbBlockEnd
  0
BLOCK
  5
7B
330
7A
100
AcDbEntity
  8
0
100
AcDbBlockBegin
  2
*D8
 70
    1
 10
0
 20
0
  3
*D8
  1

  0
LINE
  5
D4
100
AcDbEntity
  8
Dimensions
  6
ByBlock
 62
    0
370
   -2
100
AcDbLine
 10
-6
 20
1.375
 11
-6.000000000000002
 21
-9.25
  0
LINE
  5
D5
100
AcDbEntity
  8
Dimensions
  6
ByBlock
 62
    0
370
   -2
100
AcDbLine
 10
6
 20
1.375
 11
5.999999999999998
 21
-9.25
  0
LINE
  5
D6
100
AcDbEntity
  8
Dimensions
  6
ByBlock
 62
    0
370
    9
100
AcDbLine
 10
-6.000000000000002
 20
-8
 11
5.999999999999998
 21
-8
  0
MTEXT
  5
D7
100
AcDbEntity
  8
Dimensions
  6
CONTINUOUS
 62
    0
370
   -2
100
AcDbMText
 10
-1.707470456948212e-15
 20
-6.875
 30
0
 40
1
 41
7.000000000000046
 71
    5
 72
    1
  1
top_width
  7
standard
210
0
220
0
230
1
 50
0
 73
    2
 44
1
  0
SOLID
  5
D8
100
AcDbEntity
  8
Dimensions
  6
ByBlock
 62
    0
370
    9
100
AcDbTrace
 10
-6.000000000000002
 20
-8
 30
0
 11
-5.000000000000002
 21
-7.833486136890864
 31
0
 12
-5.000000000000002
 22
-8.166513863109136
 32
0
 13
-5.000000000000002
 23
-8.166513863109136
 33
0
  0
SOLID
  5
D9
100
AcDbEntity
  8
Dimensions
  6
ByBlock
 62
    0
370
    9
100
AcDbTrace
 10
5.999999999999998
 20
-8
 30
0
 11
4.999999999999998
 21
-8.166513863109136
 31
0
 12
4.999999999999998
 22
-7.833486136890864
 32
0
 13
4.999999999999998
 23
-7.833486136890864
 33
0
  0
ENDBLK
  5
7C
330
7A
100
AcDbEntity
  8
0
100
AcDbBlockEnd
  0
BLOCK
  5
7E
330
7D
100
AcDbEntity
  8
0
100
AcDbBlockBegin
  2
*D4
 70
    1
 10
0
 20
0
  3
*D4
  1

  0
LINE
  5
DA
100
AcDbEntity
  8
Coordinate_System
  6
ByLayer
 62
  256
370
   -1
100
AcDbLine
 10
24
 20
0
 11
0
 21
0
  0
SOLID
  5
DB
100
AcDbEntity
  8
Coordinate_System
  6
ByLayer
 62
  256
370
   -1
100
AcDbTrace
 10
24
 20
0
 30
0
 11
23
 21
-0.1665138631091362
 31
0
 12
23
 22
0.1665138631091362
 32
0
 13
23
 23
0.1665138631091362
 33
0
  0
ENDBLK
  5
7F
330
7D
100
AcDbEntity
  8
0
100
AcDbBlockEnd
  0
BLOCK
  5
81
330
80
100
AcDbEntity
  8
0
100
AcDbBlockBegin
  2
*D5
 70
    1
 10
0
 20
0
  3
*D5
  1

  0
LINE
  5
DC
100
AcDbEntity
  8
Dimensions
  6
ByBlock
 62
    0
370
   -2
100
AcDbLine
 10
-16
 20
30.625
 11
-16
 21
34.25
  0
LINE
  5
DD
100
AcDbEntity
  8
Dimensions
  6
ByBlock
 62
    0
370
   -2
100
AcDbLine
 10
16
 20
30.625
 11
16
 21
34.25
  0
LINE
  5
DE
100
AcDbEntity
  8
Dimensions
  6
ByBlock
 62
    0
370
    9
100
AcDbLine
 10
-16
 20
33
 11
16
 21
33
  0
MTEXT
  5
DF
100
AcDbEntity
  8
Dimensions
  6
CONTINUOUS
 62
    0
370
   -2
100
AcDbMText
 10
6.888638245203862e-17
 20
34.125
 30
0
 40
1
 41
9.444444444444581
 71
    5
 72
    1
  1
bottom_width
  7
standard
210
0
220
0
230
1
 50
0
 73
    2
 44
1
  0
SOLID
  5
E0
100
AcDbEntity
  8
Dimensions
  6
ByBlock
 62
    0
370
    9
100
AcDbTrace
 10
-16
 20
33
 30
0
 11
-15
 21
33.16651386310914
 31
0
 12
-15
 22
32.83348613689086
 32
0
 13
-15
 23
32.83348613689086
 33
0
  0
SOLID
  5
E1
100
AcDbEntity
  8
Dimensions
  6
ByBlock
 62
    0
370
    9
100
AcDbTrace
 10
16
 20
33
 30
0
 11
15
 21
32.83348613689086
 31
0
 12
15
 22
33.16651386310914
 32
0
 13
15
 23
33.16651386310914
 33
0
  0
ENDBLK
  5
82
330
80
100
AcDbEntity
  8
0
100
AcDbBlockEnd
  0
BLOCK
  5
84
330
83
100
AcDbEntity
  8
0
100
AcDbBlockBegin
  2
*D21
 70
    1
 10
0
 20
0
  3
*D21
  1

  0
LINE
  5
E2
100
AcDbEntity
  8
Dimensions
  6
ByBlock
 62
    0
370
   -2
100
AcDbLine
 10
19.5789940579584
 20
22.73701272711772
 11
25.51298855522461
 21
40.53903206484667
  0
LINE
  5
E3
100
AcDbEntity
  8
Dimensions
  6
ByBlock
 62
    0
370
   -2
100
AcDbLine
 10
-19.57899409264583
 20
22.73701271555527
 11
-25.51298925341723
 21
40.53903057228565
  0
ARC
  5
E4
100
AcDbEntity
  8
Dimensions
  6
ByBlock
 62
    0
370
    9
100
AcDbCircle
 10
1.889749515981975e-06
 20
-36.00008204981093
 40
79.4292939858133
100
AcDbArc
 50
71.56508578811108
 51
108.4349175638069
  0
SOLID
  5
E5
100
AcDbEntity
  8
Dimensions
  6
ByBlock
 62
    0
370
    9
100
AcDbTrace
 10
25.11770456405023
 20
39.35317770350155
 30
0
 11
24.115388488573
 21
39.5051295098332
 31
0
 12
24.21871003854335
 22
39.82172408297342
 32
0
 13
24.21871003854335
 23
39.82172408297342
 33
0
  0
SOLID
  5
E6
100
AcDbEntity
  8
Dimensions
  6
ByBlock
 62
    0
370
    9
100
AcDbTrace
 10
-25.11770519286799
 20
39.35317623406544
 30
0
 11
-24.21871069477202
 21
39.82172266613028
 31
0
 12
-24.11538912628025
 22
39.50512809903459
 32
0
 13
-24.11538912628025
 23
39.50512809903459
 33
0
  0
MTEXT
  5
E7
100
AcDbEntity
  8
Dimensions
  6
CONTINUOUS
 62
    0
370
   -2
100
AcDbMText
 10
-4.519188686295713e-07
 20
44.05421193600234
 30
0
 40
1
 41
7.444825416469195
 71
    8
 72
    1
  1
slot_angle
  7
standard
210
0
220
0
230
1
 50
360.000001675959
 73
    2
 44
1
  0
ENDBLK
  5
85
330
83
100
AcDbEntity
  8
0
100
AcDbBlockEnd
  0
BLOCK
  5
87
330
86
100
AcDbEntity
  8
0
100
AcDbBlockBegin
  2
*D17
 70
    1
 10
0
 20
0
  3
*D17
  1

  0
SOLID
  5
E8
100
AcDbEntity
  8
Dimensions
  6
ByBlock
 62
    0
370
    9
100
AcDbTrace
 10
16.55799631254778
 20
28.95242651311358
 30
0
 11
17.10977540462363
 21
29.80287739362078
 31
0
 12
17.35558537674582
 22
29.57818888916317
 32
0
 13
17.35558537674582
 23
29.57818888916317
 33
0
  0
LINE
  5
E9
100
AcDbEntity
  8
Dimensions
  6
ByBlock
 62
    0
370
    9
100
AcDbLine
 10
13.85926
 20
26
 11
24.65420559717261
 21
37.8097064320532
  0
MTEXT
  5
EA
100
AcDbEntity
  8
Dimensions
  6
CONTINUOUS
 62
    0
370
   -2
100
AcDbMText
 10
19.775730998047
 20
34.14008606048746
 30
0
 40
1
 41
10.00000051428734
 71
    5
 72
    1
  1
bottom_radius
  7
standard
210
0
220
0
230
1
 50
47.57037813819797
 73
    2
 44
1
  0
ENDBLK
  5
88
330
86
100
AcDbEntity
  8
0
100
AcDbBlockEnd
  0
BLOCK
  5
8A
330
89
100
AcDbEntity
  8
0
100
AcDbBlockBegin
  2
*D1
 70
    1
 10
0
 20
0
  3
*D1
  1

  0
LINE
  5
EB
100
AcDbEntity
  8
Coordinate_System
  6
ByLayer
 62
  256
370
   -1
100
AcDbLine
 10
0
 20
24
 11
0
 21
0
  0
SOLID
  5
EC
100
AcDbEntity
  8
Coordinate_System
  6
ByLayer
 62
  256
370
   -1
100
AcDbTrace
 10
0
 20
24
 30
0
 11
0.1665138631091361
 21
23
 31
0
 12
-0.1665138631091362
 22
23
 32
0
 13
-0.1665138631091362
 23
23
 33
0
  0
ENDBLK
  5
8B
330
89
100
AcDbEntity
  8
0
100
AcDbBlockEnd
  0
BLOCK
  5
8D
330
8C
100
AcDbEntity
  8
0
100
AcDbBlockBegin
  2
*D3
 70
    1
 10
0
 20
0
  3
*D3
  1

  0
LINE
  5
ED
100
AcDbEntity
  8
Dimensions
  6
ByBlock
 62
    0
370
   -2
100
AcDbLine
 10
2.625
 20
2
 11
23.25
 21
2
  0
LINE
  5
EE
100
AcDbEntity
  8
Dimensions
  6
ByBlock
 62
    0
370
   -2
100
AcDbLine
 10
2.625
 20
0
 11
23.25
 21
0
  0
LINE
  5
EF
100
AcDbEntity
  8
Dimensions
  6
ByBlock
 62
    0
370
    9
100
AcDbLine
 10
22
 20
4
 11
22
 21
-2
  0
MTEXT
  5
F0
100
AcDbEntity
  8
Dimensions
  6
CONTINUOUS
 62
    0
370
   -2
100
AcDbMText
 10
19.75
 20
7.791666666666805
 30
0
 40
1
 41
10.33333333333361
 71
    5
 72
    1
  1
opening_height
  7
standard
210
0
220
0
230
1
 50
90
 73
    2
 44
1
  0
SOLID
  5
F1
100
AcDbEntity
  8
Dimensions
  6
ByBlock
 62
    0
370
    9
100
AcDbTrace
 10
22
 20
2
 30
0
 11
21.83348613689087
 21
3
 31
0
 12
22.16651386310914
 22
3
 32
0
 13
22.16651386310914
 23
3
 33
0
  0
SOLID
  5
F2
100
AcDbEntity
  8
Dimensions
  6
ByBlock
 62
    0
370
    9
100
AcDbTrace
 10
22
 20
0
 30
0
 11
22.16651386310913
 21
-1
 31
0
 12
21.83348613689087
 22
-1
 32
0
 13
21.83348613689087
 23
-1
 33
0
  0
ENDBLK
  5
8E
330
8C
100
AcDbEntity
  8
0
100
AcDbBlockEnd
  0
BLOCK
  5
90
330
8F
100
AcDbEntity
  8
0
100
AcDbBlockBegin
  2
*D10
 70
    1
 10
0
 20
0
  3
*D10
  1

  0
ARC
  5
F3
100
AcDbEntity
  8
Dimensions
  6
ByBlock
 62
    0
370
    9
100
AcDbCircle
 10
5.999993018551738
 20
2
 40
3.162279867903103
100
AcDbArc
 50
26.56502665147017
 51
180
  0
SOLID
  5
F4
100
AcDbEntity
  8
Dimensions
  6
ByBlock
 62
    0
370
    9
100
AcDbTrace
 10
8.828422723313862
 20
3.414213338985498
 30
0
 11
8.11060379932014
 21
4.130078451254578
 31
0
 12
8.38130672513172
 22
4.324056265416822
 32
0
 13
8.38130672513172
 23
4.324056265416822
 33
0
  0
SOLID
  5
F5
100
AcDbEntity
  8
Dimensions
  6
ByBlock
 62
    0
370
    9
100
AcDbTrace
 10
2.837713150648635
 20
2
 30
0
 11
2.830732164420277
 21
3.013744609080023
 31
0
 12
3.159605715222282
 22
2.961307465631954
 32
0
 13
3.159605715222282
 23
2.961307465631954
 33
0
  0
MTEXT
  5
F6
100
AcDbEntity
  8
Dimensions
  6
CONTINUOUS
 62
    0
370
   -2
100
AcDbMText
 10
5.12985519686454
 20
5.68596649050064
 30
0
 40
1
 41
7.000000000000137
 71
    8
 72
    1
  1
top_angle
  7
standard
210
0
220
0
230
1
 50
373.2825133257351
 73
    2
 44
1
  0
ENDBLK
  5
91
330
8F
100
AcDbEntity
  8
0
100
AcDbBlockEnd
  0
ENDSEC
  0
SECTION
  2
ENTITIES
  0
MTEXT
  5
F7
100
AcDbEntity
  8
Coordinate_System
  6
ByLayer
 62
  256
370
   -1
100
AcDbMText
 10
24
 20
0
 30
0
 40
1
 41
0.4444444444444444
 71
    1
 72
    1
  1
x
  7
STANDARD
210
0
220
0
230
1
 50
0
 73
    2
 44
1
  0
MTEXT
  5
F8
100
AcDbEntity
  8
Coordinate_System
  6
ByLayer
 62
  256
370
   -1
100
AcDbMText
 10
-1
 20
25
 30
0
 40
1
 41
0.4444444444444444
 71
    1
 72
    1
  1
y
  7
STANDARD
210
0
220
0
230
1
 50
0
 73
    2
 44
1
  0
LEADER
  5
F9
100
AcDbEntity
  8
Coordinate_System
  6
ByLayer
 62
  256
370
   -1
100
AcDbLeader
  3
Standard
 71
    1
 72
    0
 73
    3
 74
    0
 75
    0
 40
1
 41
10
 76
2
 76
2
 10
0
 20
24
 30
0
 10
0
 20
0
 30
0
  0
ARC
  5
FA
100
AcDbEntity
  8
0
  6
CONTINUOUS
 62
    7
370
    5
100
AcDbCircle
 10
3.167184270002522
 20
14
 40
12
100
AcDbArc
 50
269.9999994686621
 51
270.0000005313379
  0
ARC
  5
FB
100
AcDbEntity
  8
0
  6
CONTINUOUS
 62
    7
370
    5
100
AcDbCircle
 10
3.167184270002522
 20
14
 40
12
100
AcDbArc
 50
269.9999994686621
 51
270.0000005313379
  0
ARC
  5
FC
100
AcDbEntity
  8
0
  6
CONTINUOUS
 62
    7
370
    5
100
AcDbCircle
 10
-3.167184270002522
 20
14
 40
12
100
AcDbArc
 50
269.9999994686621
 51
270.0000005313379
  0
ARC
  5
FD
100
AcDbEntity
  8
0
  6
CONTINUOUS
 62
    7
370
    5
100
AcDbCircle
 10
-3.167184270002522
 20
14
 40
12
100
AcDbArc
 50
269.9999994686621
 51
270.0000005313379
  0
DIMENSION
  5
FE
100
AcDbEntity
  8
Dimensions
  6
ByLayer
 62
  256
370
   -1
100
AcDbDimension
  2
*D2
 10
32
 20
30
 30
0
 11
29.75
 21
15
 31
0
 70
   32
  1
height
 71
    5
 72
    0
  3
Standard
 53
0
210
0
220
0
230
1
100
AcDbAlignedDimension
 13
2
 23
0
 33
0
 14
16
 24
30
 34
0
 50
90
100
AcDbRotatedDimension
  0
DIMENSION
  5
FF
100
AcDbEntity
  8
Dimensions
  6
ByLayer
 62
  256
370
   -1
100
AcDbDimension
  2
*D3
 10
22
 20
-1.344410693882104e-17
 30
0
 11
19.75
 21
1
 31
0
 70
   33
  1
opening_height
 71
    5
 72
    0
  3
Standard
 53
0
210
0
220
0
230
1
100
AcDbAlignedDimension
 13
2
 23
2
 33
0
 14
2
 24
0
 34
0
  0
ARC
  5
100
100
AcDbEntity
  8
0
  6
CONTINUOUS
 62
  256
370
    9
100
AcDbCircle
 10
-13.85926
 20
26
 40
4
100
AcDbArc
 50
90
 51
146.31
  0
ARC
  5
101
100
AcDbEntity
  8
0
  6
CONTINUOUS
 62
  256
370
    9
100
AcDbCircle
 10
13.85926
 20
26
 40
4
100
AcDbArc
 50
33.69010000000001
 51
90
  0
ARC
  5
102
100
AcDbEntity
  8
0
  6
CONTINUOUS
 62
  256
370
    9
100
AcDbCircle
 10
15.58662
 20
23.409
 40
4
100
AcDbArc
 50
341.565
 51
33.69010000000001
  0
ARC
  5
103
100
AcDbEntity
  8
0
  6
CONTINUOUS
 62
  256
370
    9
100
AcDbCircle
 10
10.72922
 20
8.836740000000001
 40
4
100
AcDbArc
 50
296.565
 51
341.565
  0
ARC
  5
104
100
AcDbEntity
  8
0
  6
CONTINUOUS
 62
  256
370
    9
100
AcDbCircle
 10
3
 20
1
 40
1
100
AcDbArc
 50
90
 51
180
  0
ARC
  5
105
100
AcDbEntity
  8
0
  6
CONTINUOUS
 62
  256
370
    9
100
AcDbCircle
 10
-3
 20
1
 40
1
100
AcDbArc
 50
2.05392e-06
 51
90
  0
ARC
  5
106
100
AcDbEntity
  8
0
  6
CONTINUOUS
 62
  256
370
    9
100
AcDbCircle
 10
-3.16718
 20
14
 40
12
100
AcDbArc
 50
243.435
 51
270
  0
ARC
  5
107
100
AcDbEntity
  8
0
  6
CONTINUOUS
 62
  256
370
    9
100
AcDbCircle
 10
-10.72922
 20
8.836740000000001
 40
4
100
AcDbArc
 50
198.435
 51
243.435
  0
ARC
  5
108
100
AcDbEntity
  8
0
  6
CONTINUOUS
 62
  256
370
    9
100
AcDbCircle
 10
-15.58662
 20
23.409
 40
4
100
AcDbArc
 50
146.31
 51
198.435
  0
LINE
  5
109
100
AcDbEntity
  8
0
  6
ByLayer
 62
  256
370
    9
100
AcDbLine
 10
-3
 20
2
 11
-3.167184381285666
 21
2
  0
LINE
  5
10A
100
AcDbEntity
  8
0
  6
ByLayer
 62
  256
370
    9
100
AcDbLine
 10
-14.52103270600438
 20
7.563100960639276
 11
-19.38135206237121
 21
22.14408554644516
  0
LINE
  5
10B
100
AcDbEntity
  8
0
  6
ByLayer
 62
  256
370
    9
100
AcDbLine
 10
13.85926045278621
 20
30
 11
0
 21
30
  0
LINE
  5
10C
100
AcDbEntity
  8
0
  6
ByLayer
 62
  256
370
    9
100
AcDbLine
 10
-13.85926
 20
30
 11
0
 21
30
  0
ARC
  5
10D
100
AcDbEntity
  8
0
  6
CONTINUOUS
 62
  256
370
    9
100
AcDbCircle
 10
3.16718
 20
14
 40
12
100
AcDbArc
 50
270
 51
296.565
  0
LINE
  5
10E
100
AcDbEntity
  8
0
  6
ByLayer
 62
  256
370
    9
100
AcDbLine
 10
3
 20
2
 11
3.167184381285662
 21
2
  0
LINE
  5
10F
100
AcDbEntity
  8
0
  6
ByLayer
 62
  256
370
    9
100
AcDbLine
 10
14.5211598419577
 20
7.563479525873112
 11
19.38135206237121
 21
22.14408554644516
  0
LINE
  5
110
100
AcDbEntity
  8
0
  6
DOTTINY
 62
    7
370
    5
100
AcDbLine
 10
-16
 20
30
 11
-13.85926029199416
 21
30
  0
LINE
  5
111
100
AcDbEntity
  8
0
  6
DOTTINY
 62
    7
370
    5
100
AcDbLine
 10
-13.85926029199416
 20
30
 11
13.85926045278622
 21
30
  0
LINE
  5
112
100
AcDbEntity
  8
0
  6
DOTTINY
 62
    7
370
    5
100
AcDbLine
 10
13.85926045278622
 20
30
 11
16
 21
30
  0
LINE
  5
113
100
AcDbEntity
  8
0
  6
DOTTINY
 62
    7
370
    5
100
AcDbLine
 10
20
 20
24
 11
19.38135584847089
 21
22.14409690476706
  0
LINE
  5
114
100
AcDbEntity
  8
0
  6
DOTTINY
 62
    7
370
    5
100
AcDbLine
 10
14.52395206237121
 20
7.571825546445164
 11
14
 21
6
  0
LINE
  5
115
100
AcDbEntity
  8
0
  6
DOTTINY
 62
    7
370
    5
100
AcDbLine
 10
2
 20
2
 11
2.999999957020826
 21
2
  0
LINE
  5
116
100
AcDbEntity
  8
0
  6
DOTTINY
 62
    7
370
    5
100
AcDbLine
 10
3.167184381285662
 20
2
 11
6
 21
2
  0
LINE
  5
117
100
AcDbEntity
  8
0
  6
DOTTINY
 62
    7
370
    5
100
AcDbLine
 10
-2
 20
2
 11
-3
 21
2
  0
LINE
  5
118
100
AcDbEntity
  8
0
  6
DOTTINY
 62
    7
370
    5
100
AcDbLine
 10
-3
 20
2
 11
-3.167184381285666
 21
2
  0
LINE
  5
119
100
AcDbEntity
  8
0
  6
DOTTINY
 62
    7
370
    5
100
AcDbLine
 10
-3.167184381285666
 20
2
 11
-6
 21
2
  0
LINE
  5
11A
100
AcDbEntity
  8
0
  6
DOTTINY
 62
    7
370
    5
100
AcDbLine
 10
-14
 20
6
 11
-14.52103270600438
 21
7.563100960639276
  0
LINE
  5
11B
100
AcDbEntity
  8
0
  6
DOTTINY
 62
    7
370
    5
100
AcDbLine
 10
-20
 20
24
 11
-19.38135206237121
 21
22.14408554644516
  0
LINE
  5
11C
100
AcDbEntity
  8
0
  6
ByLayer
 62
  256
370
    9
100
AcDbLine
 10
-8.533733559077588
 20
3.266868914545408
 11
-12.52418634275537
 21
5.262093747798896
  0
LINE
  5
11D
100
AcDbEntity
  8
0
  6
ByLayer
 62
  256
370
    9
100
AcDbLine
 10
2
 20
0
 11
2
 21
1
  0
LINE
  5
11E
100
AcDbEntity
  8
0
  6
ByLayer
 62
  256
370
    9
100
AcDbLine
 10
-2
 20
0
 11
-2
 21
1.000000035847667
  0
LINE
  5
11F
100
AcDbEntity
  8
0
  6
ByLayer
 62
  256
370
    9
100
AcDbLine
 10
8.533733559077584
 20
3.266868914545406
 11
12.52391052584093
 21
5.261955262920468
  0
LINE
  5
120
100
AcDbEntity
  8
0
  6
ByLayer
 62
  256
370
    9
100
AcDbLine
 10
18.92175787240687
 20
25.61736033564212
 11
17.1874599197821
 21
28.21880267125368
  0
LINE
  5
121
100
AcDbEntity
  8
0
  6
ByLayer
 62
  256
370
    9
100
AcDbLine
 10
-18.9214728961713
 20
25.61779065574306
 11
-17.18746379231823
 21
28.21879686244562
  0
LINE
  5
122
100
AcDbEntity
  8
0
  6
DOTTINY
 62
    7
370
    5
100
AcDbLine
 10
-20
 20
24
 11
-18.91482379231823
 21
25.62779686244562
  0
LINE
  5
123
100
AcDbEntity
  8
0
  6
DOTTINY
 62
    7
370
    5
100
AcDbLine
 10
-17.18745270031205
 20
28.21881350040724
 11
-16
 21
30
  0
LINE
  5
124
100
AcDbEntity
  8
0
  6
DOTTINY
 62
    7
370
    5
100
AcDbLine
 10
-14
 20
6
 11
-12.52418634275537
 21
5.262093747798896
  0
LINE
  5
125
100
AcDbEntity
  8
0
  6
DOTTINY
 62
    7
370
    5
100
AcDbLine
 10
-6
 20
2
 11
-8.533733558851109
 21
3.26686891443217
  0
LINE
  5
126
100
AcDbEntity
  8
0
  6
DOTTINY
 62
    7
370
    5
100
AcDbLine
 10
-2
 20
1.000000041582928
 11
-2
 21
2
  0
LINE
  5
127
100
AcDbEntity
  8
0
  6
DOTTINY
 62
    7
370
    5
100
AcDbLine
 10
2
 20
1.00000001343576
 11
2
 21
2
  0
LINE
  5
128
100
AcDbEntity
  8
0
  6
DOTTINY
 62
    7
370
    5
100
AcDbLine
 10
6
 20
2
 11
8.533733559077584
 21
3.266868914545406
  0
LINE
  5
129
100
AcDbEntity
  8
0
  6
DOTTINY
 62
    7
370
    5
100
AcDbLine
 10
12.51807118635919
 20
5.259029638181802
 11
14
 21
6
  0
LINE
  5
12A
100
AcDbEntity
  8
0
  6
DOTTINY
 62
    7
370
    5
100
AcDbLine
 10
16
 20
30
 11
17.18745877078259
 21
28.2188043947499
  0
LINE
  5
12B
100
AcDbEntity
  8
0
  6
DOTTINY
 62
    7
370
    5
100
AcDbLine
 10
20
 20
24
 11
18.91481991978209
 21
25.62780267125368
  0
LEADER
  5
12C
100
AcDbEntity
  8
Coordinate_System
  6
ByLayer
 62
  256
370
   -1
100
AcDbLeader
  3
Standard
 71
    1
 72
    0
 73
    3
 74
    0
 75
    0
 40
1
 41
10
 76
2
 76
2
 10
24
 20
0
 30
0
 10
0
 20
0
 30
0
  0
MTEXT
  5
12D
100
AcDbEntity
  8
0
  6
ByLayer
 62
  256
370
   -1
100
AcDbMText
 10
1
 20
3
 30
0
 40
1
 41
8.194444232442434
 71
    5
 72
    1
  1
Slot opening
  7
standard
210
0
220
0
230
1
 50
0
 73
    2
 44
1
  0
MTEXT
  5
12E
100
AcDbEntity
  8
0
  6
ByLayer
 62
  256
370
   -1
100
AcDbMText
 10
-1
 20
16
 30
0
 40
1
 41
8.416666666666895
 71
    5
 72
    1
  1
Winding area
  7
standard
210
0
220
0
230
1
 50
0
 73
    2
 44
1
  0
DIMENSION
  5
12F
100
AcDbEntity
  8
Dimensions
  6
ByLayer
 62
  256
370
   -1
100
AcDbDimension
  2
*D5
 10
16
 20
33
 30
0
 11
6.888638245203862e-17
 21
34.125
 31
0
 70
   33
  1
bottom_width
 71
    5
 72
    0
  3
Standard
 53
0
210
0
220
0
230
1
100
AcDbAlignedDimension
 13
-16
 23
30
 33
0
 14
16
 24
30
 34
0
  0
DIMENSION
  5
130
100
AcDbEntity
  8
Dimensions
  6
ByLayer
 62
  256
370
   -1
100
AcDbDimension
  2
*D6
 10
20
 20
37
 30
0
 11
6.888638245203862e-17
 21
38.125
 31
0
 70
   32
  1
bottom_side_width
 71
    5
  3
Standard
 53
0
210
0
220
0
230
1
100
AcDbAlignedDimension
 13
-20
 23
24
 33
0
 14
20
 24
24
 34
0
100
AcDbRotatedDimension
  0
DIMENSION
  5
131
100
AcDbEntity
  8
Dimensions
  6
ByLayer
 62
  256
370
   -1
100
AcDbDimension
  2
*D7
 10
2
 20
-2
 30
0
 11
-7
 21
-4
 31
0
 70
   33
  1
opening_width
 71
    5
 72
    0
  3
Standard
 53
0
210
0
220
0
230
1
100
AcDbAlignedDimension
 13
-2
 23
0
 33
0
 14
2
 24
0
 34
0
  0
DIMENSION
  5
132
100
AcDbEntity
  8
Dimensions
  6
ByLayer
 62
  256
370
   -1
100
AcDbDimension
  2
*D8
 10
5.999999999999998
 20
-8
 30
0
 11
-1.707470456948212e-15
 21
-6.875
 31
0
 70
   33
  1
top_width
 71
    5
 72
    0
  3
Standard
 53
0
210
0
220
0
230
1
100
AcDbAlignedDimension
 13
-6
 23
2
 33
0
 14
6
 24
2
 34
0
  0
DIMENSION
  5
133
100
AcDbEntity
  8
Dimensions
  6
ByLayer
 62
  256
370
   -1
100
AcDbDimension
  2
*D9
 10
14
 20
-12
 30
0
 11
-8.192920372480866e-16
 21
-10.875
 31
0
 70
   32
  1
top_side_width
 71
    5
  3
Standard
 53
0
210
0
220
0
230
1
100
AcDbAlignedDimension
 13
-14
 23
6.000000000000002
 33
0
 14
14
 24
6
 34
0
100
AcDbRotatedDimension
  0
DIMENSION
  5
134
100
AcDbEntity
  8
Dimensions
  6
ByLayer
 62
  256
370
   -1
100
AcDbDimension
  2
*D10
 10
3.167184381285662
 20
2
 30
0
 11
0
 21
0
 31
0
 70
   34
  1
top_angle
 71
    5
  3
Standard
 53
0
210
0
220
0
230
1
100
AcDb2LineAngularDimension
 13
8.533733559077584
 23
3.266868914545406
 33
0
 14
12.52391052584093
 24
5.261955262920468
 34
0
 15
6
 25
2
 35
0
 16
7
 26
5
 36
0
  0
DIMENSION
  5
135
100
AcDbEntity
  8
Dimensions
  6
ByLayer
 62
  256
370
   -1
100
AcDbDimension
  2
*D11
 10
3
 20
1
 30
0
 11
-4.5
 21
8.4
 31
0
 70
   36
  1
opening_radius
 71
    5
 72
    0
  3
Standard
 53
0
210
0
220
0
230
1
100
AcDbRadialDimension
 15
2.180295878712082
 25
1.572787179974903
 35
0
 40
0
  0
DIMENSION
  5
136
100
AcDbEntity
  8
Dimensions
  6
ByLayer
 62
  256
370
   -1
100
AcDbDimension
  2
*D12
 10
-19.38135206237121
 20
22.14408554644516
 30
0
 11
0
 21
0
 31
0
 70
   34
  1
top_side_angle
 71
    5
  3
Standard
 53
0
210
0
220
0
230
1
100
AcDb2LineAngularDimension
 13
-12.52418634275537
 23
5.262093747798896
 33
0
 14
-8.533733559077588
 24
3.266868914545408
 34
0
 15
-14.52103270600438
 25
7.563100960639276
 35
0
 16
-12
 26
7
 36
0
  0
DIMENSION
  5
137
100
AcDbEntity
  8
Dimensions
  6
ByLayer
 62
  256
370
   -1
100
AcDbDimension
  2
*D13
 10
3.16718
 20
14
 30
0
 11
5.2
 21
11.6
 31
0
 70
   36
  1
top_radius
 71
    5
 72
    0
  3
Standard
 53
0
210
0
220
0
230
1
100
AcDbRadialDimension
 15
5.870591557378726
 25
2.308483162932574
 35
0
 40
0
  0
DIMENSION
  5
138
100
AcDbEntity
  8
Dimensions
  6
ByLayer
 62
  256
370
   -1
100
AcDbDimension
  2
*D14
 10
-15.58662
 20
23.409
 30
0
 11
-27.23068115877228
 21
26.92474878704817
 31
0
 70
   36
  1
bottom_side_radius
 71
    5
 72
    0
  3
Standard
 53
0
210
0
220
0
230
1
100
AcDbRadialDimension
 15
-19.50640329856396
 25
24.20605639217
 35
0
 40
0
  0
DIMENSION
  5
139
100
AcDbEntity
  8
Dimensions
  6
ByLayer
 62
  256
370
   -1
100
AcDbDimension
  2
*D15
 10
18.92175787240687
 20
25.61736033564212
 30
0
 11
0
 21
0
 31
0
 70
   34
  1
 
 71
    5
  3
Standard
 53
0
210
0
220
0
230
1
100
AcDb2LineAngularDimension
 13
13.85926045278622
 23
30
 33
0
 14
-13.85926029199416
 24
30
 34
0
 15
17.1874599197821
 25
28.21880267125368
 35
0
 16
13
 26
27
 36
0
  0
DIMENSION
  5
13A
100
AcDbEntity
  8
Dimensions
  6
ByLayer
 62
  256
370
   -1
100
AcDbDimension
  2
*D16
 10
-17.18746379231823
 20
28.21879686244562
 30
0
 11
0
 21
0
 31
0
 70
   34
  1
 
 71
    5
  3
Standard
 53
0
210
0
220
0
230
1
100
AcDb2LineAngularDimension
 13
-19.38135206237121
 23
22.14408554644516
 33
0
 14
-14.52103270600438
 24
7.563100960639276
 34
0
 15
-18.9214728961713
 25
25.61779065574306
 35
0
 16
-17
 26
24
 36
0
  0
DIMENSION
  5
13B
100
AcDbEntity
  8
Dimensions
  6
ByLayer
 62
  256
370
   -1
100
AcDbDimension
  2
*D17
 10
13.85926
 20
26
 30
0
 11
19.775730998047
 21
34.14008606048746
 31
0
 70
   36
  1
bottom_radius
 71
    5
  3
Standard
 53
0
210
0
220
0
230
1
100
AcDbRadialDimension
 15
16.55799631254778
 25
28.95242651311358
 35
0
 40
0
  0
MTEXT
  5
13C
100
AcDbEntity
  8
Dimensions
  6
ByLayer
 62
  256
370
   -1
100
AcDbMText
 10
-16
 20
26
 30
0
 40
1
 41
13.6666671809541
 71
    1
 72
    1
  1
bottom_side_angle
  7

210
0
220
0
230
1
 50
0
 73
    2
 44
1
  0
MTEXT
  5
13D
100
AcDbEntity
  8
Dimensions
  6
ByLayer
 62
  256
370
   -1
100
AcDbMText
 10
2
 20
29
 30
0
 40
1
 41
9.444444444444676
 71
    1
 72
    1
  1
bottom_angle
  7

210
0
220
0
230
1
 50
0
 73
    2
 44
1
  0
DIMENSION
  5
13E
100
AcDbEntity
  8
Dimensions
  6
ByLayer
 62
  256
370
   -1
100
AcDbDimension
  2
*D18
 10
-28
 20
30
 30
0
 11
-29.125
 21
27
 31
0
 70
   32
  1
bottom_height
 71
    5
  3
Standard
 53
0
210
0
220
0
230
1
100
AcDbAlignedDimension
 13
-20
 23
24
 33
0
 14
-16
 24
30
 34
0
 50
90
100
AcDbRotatedDimension
  0
DIMENSION
  5
13F
100
AcDbEntity
  8
Dimensions
  6
ByLayer
 62
  256
370
   -1
100
AcDbDimension
  2
*D19
 10
-28
 20
24
 30
0
 11
-29.125
 21
15
 31
0
 70
   32
  1
side_height
 71
    5
  3
Standard
 53
0
210
0
220
0
230
1
100
AcDbAlignedDimension
 13
-14
 23
6
 33
0
 14
-20
 24
24
 34
0
 50
90
100
AcDbRotatedDimension
  0
DIMENSION
  5
140
100
AcDbEntity
  8
Dimensions
  6
ByLayer
 62
  256
370
   -1
100
AcDbDimension
  2
*D20
 10
-28
 20
6.000000000000002
 30
0
 11
-29
 21
-9
 31
0
 70
   32
  1
top_height
 71
    5
  3
Standard
 53
0
210
0
220
0
230
1
100
AcDbAlignedDimension
 13
-6
 23
2
 33
0
 14
-14
 24
6
 34
0
 50
90
100
AcDbRotatedDimension
  0
DIMENSION
  5
141
100
AcDbEntity
  8
Dimensions
  6
ByLayer
 62
  256
370
   -1
100
AcDbDimension
  2
*D21
 10
-19.38135206237121
 20
22.14408554644516
 30
0
 11
0
 21
0
 31
0
 70
   34
  1
slot_angle
 71
    5
  3
Standard
 53
0
210
0
220
0
230
1
100
AcDb2LineAngularDimension
 13
14.5211598419577
 23
7.563479525873112
 33
0
 14
19.38135206237121
 24
22.14408554644516
 34
0
 15
-14.52103270600438
 25
7.563100960639276
 35
0
 16
15
 26
42
 36
0
  0
LINE
  5
142
100
AcDbEntity
  8
0
  6
DOT2
 62
  256
370
    5
100
AcDbLine
 10
-2
 20
2
 11
2
 21
2
  0
DIMENSION
  5
143
100
AcDbEntity
  8
Dimensions
  6
ByLayer
 62
  256
370
   -1
100
AcDbDimension
  2
*D22
 10
-10.72922
 20
8.836740000000001
 30
0
 11
-20.62265183057706
 21
4.151279078348256
 31
0
 70
   36
  1
top_side_radius
 71
    5
 72
    0
  3
Standard
 53
0
210
0
220
0
230
1
100
AcDbRadialDimension
 15
-14.14920888383224
 25
6.762209683406894
 35
0
 40
0
  0
ENDSEC
  0
SECTION
  2
OBJECTS
  0
DICTIONARY
  5
C
330
0
100
AcDbDictionary
281
    1
  3
ACAD_GROUP
350
D
  0
DICTIONARY
  5
D
330
C
100
AcDbDictionary
281
    1
  0
PLOTSETTINGS
  5
144
100
AcDbPlotSettings
  6
1x1
 40
0
 41
0
 42
0
 43
0
  0
ENDSEC
  0
EOF
