<?xml version="1.0" encoding="UTF-8"?>
<svg xmlns="http://www.w3.org/2000/svg" xmlns:xlink="http://www.w3.org/1999/xlink" width="800" height="400" viewBox="0 0 800 400">
<defs>
<g>
<g id="glyph-0-0">
<path d="M 8.03125 -3.0625 C 8.03125 -2.039062 7.660156 -1.25 6.921875 -0.6875 C 6.191406 -0.125 5.203125 0.15625 3.953125 0.15625 C 3.304688 0.15625 2.710938 0.109375 2.171875 0.015625 C 1.628906 -0.078125 1.175781 -0.210938 0.8125 -0.390625 L 0.8125 -1.765625 C 1.195312 -1.585938 1.675781 -1.429688 2.25 -1.296875 C 2.820312 -1.160156 3.410156 -1.09375 4.015625 -1.09375 C 4.867188 -1.09375 5.507812 -1.253906 5.9375 -1.578125 C 6.375 -1.910156 6.59375 -2.359375 6.59375 -2.921875 C 6.59375 -3.296875 6.507812 -3.609375 6.34375 -3.859375 C 6.1875 -4.117188 5.910156 -4.359375 5.515625 -4.578125 C 5.128906 -4.796875 4.59375 -5.03125 3.90625 -5.28125 C 2.9375 -5.632812 2.203125 -6.066406 1.703125 -6.578125 C 1.203125 -7.085938 0.953125 -7.785156 0.953125 -8.671875 C 0.953125 -9.273438 1.109375 -9.789062 1.421875 -10.21875 C 1.734375 -10.65625 2.160156 -10.988281 2.703125 -11.21875 C 3.253906 -11.457031 3.890625 -11.578125 4.609375 -11.578125 C 5.234375 -11.578125 5.804688 -11.519531 6.328125 -11.40625 C 6.859375 -11.289062 7.335938 -11.132812 7.765625 -10.9375 L 7.3125 -9.71875 C 6.914062 -9.882812 6.484375 -10.023438 6.015625 -10.140625 C 5.554688 -10.253906 5.078125 -10.3125 4.578125 -10.3125 C 3.859375 -10.3125 3.316406 -10.160156 2.953125 -9.859375 C 2.597656 -9.554688 2.421875 -9.15625 2.421875 -8.65625 C 2.421875 -8.269531 2.5 -7.945312 2.65625 -7.6875 C 2.8125 -7.4375 3.070312 -7.207031 3.4375 -7 C 3.800781 -6.800781 4.289062 -6.585938 4.90625 -6.359375 C 5.582031 -6.109375 6.148438 -5.84375 6.609375 -5.5625 C 7.078125 -5.28125 7.429688 -4.941406 7.671875 -4.546875 C 7.910156 -4.148438 8.03125 -3.65625 8.03125 -3.0625 Z M 8.03125 -3.0625 "/>
</g>
<g id="glyph-0-1">
<path d="M 2.765625 0 L 1.359375 0 L 1.359375 -12.15625 L 2.765625 -12.15625 Z M 2.765625 0 "/>
</g>
<g id="glyph-0-2">
<path d="M 8.8125 -4.296875 C 8.8125 -2.878906 8.453125 -1.78125 7.734375 -1 C 7.015625 -0.226562 6.039062 0.15625 4.8125 0.15625 C 4.0625 0.15625 3.390625 -0.015625 2.796875 -0.359375 C 2.203125 -0.703125 1.734375 -1.207031 1.390625 -1.875 C 1.046875 -2.539062 0.875 -3.347656 0.875 -4.296875 C 0.875 -5.722656 1.234375 -6.816406 1.953125 -7.578125 C 2.671875 -8.347656 3.640625 -8.734375 4.859375 -8.734375 C 5.640625 -8.734375 6.328125 -8.5625 6.921875 -8.21875 C 7.515625 -7.875 7.976562 -7.375 8.3125 -6.71875 C 8.644531 -6.0625 8.8125 -5.253906 8.8125 -4.296875 Z M 2.34375 -4.296875 C 2.34375 -3.285156 2.539062 -2.484375 2.9375 -1.890625 C 3.332031 -1.304688 3.96875 -1.015625 4.84375 -1.015625 C 5.707031 -1.015625 6.34375 -1.304688 6.75 -1.890625 C 7.15625 -2.484375 7.359375 -3.285156 7.359375 -4.296875 C 7.359375 -5.316406 7.15625 -6.113281 6.75 -6.6875 C 6.34375 -7.257812 5.703125 -7.546875 4.828125 -7.546875 C 3.953125 -7.546875 3.316406 -7.257812 2.921875 -6.6875 C 2.535156 -6.113281 2.34375 -5.316406 2.34375 -4.296875 Z M 2.34375 -4.296875 "/>
</g>
<g id="glyph-0-3">
<path d="M 4.21875 -0.984375 C 4.4375 -0.984375 4.65625 -1.003906 4.875 -1.046875 C 5.101562 -1.085938 5.285156 -1.128906 5.421875 -1.171875 L 5.421875 -0.09375 C 5.273438 -0.0195312 5.0625 0.0351562 4.78125 0.078125 C 4.507812 0.128906 4.242188 0.15625 3.984375 0.15625 C 3.535156 0.15625 3.117188 0.0820312 2.734375 -0.0625 C 2.359375 -0.21875 2.050781 -0.488281 1.8125 -0.875 C 1.582031 -1.257812 1.46875 -1.800781 1.46875 -2.5 L 1.46875 -7.484375 L 0.25 -7.484375 L 0.25 -8.15625 L 1.484375 -8.71875 L 2.046875 -10.546875 L 2.875 -10.546875 L 2.875 -8.578125 L 5.359375 -8.578125 L 5.359375 -7.484375 L 2.875 -7.484375 L 2.875 -2.53125 C 2.875 -2.007812 3 -1.617188 3.25 -1.359375 C 3.5 -1.109375 3.820312 -0.984375 4.21875 -0.984375 Z M 4.21875 -0.984375 "/>
</g>
<g id="glyph-0-4">
<path d="M 6.59375 0 L 2.828125 -10.015625 L 2.765625 -10.015625 C 2.796875 -9.679688 2.820312 -9.234375 2.84375 -8.671875 C 2.863281 -8.117188 2.875 -7.535156 2.875 -6.921875 L 2.875 0 L 1.546875 0 L 1.546875 -11.421875 L 3.6875 -11.421875 L 7.203125 -2.0625 L 7.265625 -2.0625 L 10.84375 -11.421875 L 12.953125 -11.421875 L 12.953125 0 L 11.53125 0 L 11.53125 -7.03125 C 11.53125 -7.582031 11.539062 -8.128906 11.5625 -8.671875 C 11.59375 -9.210938 11.617188 -9.65625 11.640625 -10 L 11.578125 -10 L 7.78125 0 Z M 6.59375 0 "/>
</g>
<g id="glyph-0-5">
<path d="M 2.078125 -11.796875 C 2.296875 -11.796875 2.484375 -11.722656 2.640625 -11.578125 C 2.804688 -11.429688 2.890625 -11.203125 2.890625 -10.890625 C 2.890625 -10.597656 2.804688 -10.375 2.640625 -10.21875 C 2.484375 -10.070312 2.296875 -10 2.078125 -10 C 1.847656 -10 1.648438 -10.070312 1.484375 -10.21875 C 1.328125 -10.375 1.25 -10.597656 1.25 -10.890625 C 1.25 -11.203125 1.328125 -11.429688 1.484375 -11.578125 C 1.648438 -11.722656 1.847656 -11.796875 2.078125 -11.796875 Z M 2.765625 -8.578125 L 2.765625 0 L 1.359375 0 L 1.359375 -8.578125 Z M 2.765625 -8.578125 "/>
</g>
<g id="glyph-0-6">
<path d="M 5.484375 -8.734375 C 6.515625 -8.734375 7.289062 -8.484375 7.8125 -7.984375 C 8.332031 -7.492188 8.59375 -6.691406 8.59375 -5.578125 L 8.59375 0 L 7.203125 0 L 7.203125 -5.484375 C 7.203125 -6.859375 6.5625 -7.546875 5.28125 -7.546875 C 4.332031 -7.546875 3.675781 -7.28125 3.3125 -6.75 C 2.945312 -6.21875 2.765625 -5.453125 2.765625 -4.453125 L 2.765625 0 L 1.359375 0 L 1.359375 -8.578125 L 2.5 -8.578125 L 2.703125 -7.40625 L 2.78125 -7.40625 C 3.0625 -7.851562 3.445312 -8.1875 3.9375 -8.40625 C 4.425781 -8.625 4.941406 -8.734375 5.484375 -8.734375 Z M 5.484375 -8.734375 "/>
</g>
<g id="glyph-0-7">
<path d="M 10.765625 -8.734375 C 11.734375 -8.734375 12.457031 -8.484375 12.9375 -7.984375 C 13.414062 -7.492188 13.65625 -6.691406 13.65625 -5.578125 L 13.65625 0 L 12.265625 0 L 12.265625 -5.515625 C 12.265625 -6.867188 11.6875 -7.546875 10.53125 -7.546875 C 9.695312 -7.546875 9.097656 -7.304688 8.734375 -6.828125 C 8.378906 -6.347656 8.203125 -5.648438 8.203125 -4.734375 L 8.203125 0 L 6.8125 0 L 6.8125 -5.515625 C 6.8125 -6.867188 6.226562 -7.546875 5.0625 -7.546875 C 4.195312 -7.546875 3.597656 -7.28125 3.265625 -6.75 C 2.929688 -6.21875 2.765625 -5.453125 2.765625 -4.453125 L 2.765625 0 L 1.359375 0 L 1.359375 -8.578125 L 2.5 -8.578125 L 2.703125 -7.40625 L 2.78125 -7.40625 C 3.050781 -7.851562 3.410156 -8.1875 3.859375 -8.40625 C 4.316406 -8.625 4.800781 -8.734375 5.3125 -8.734375 C 6.65625 -8.734375 7.53125 -8.253906 7.9375 -7.296875 L 8.015625 -7.296875 C 8.304688 -7.785156 8.695312 -8.144531 9.1875 -8.375 C 9.6875 -8.613281 10.210938 -8.734375 10.765625 -8.734375 Z M 10.765625 -8.734375 "/>
</g>
<g id="glyph-0-8">
<path d="M 8.53125 -8.578125 L 8.53125 0 L 7.375 0 L 7.171875 -1.140625 L 7.109375 -1.140625 C 6.828125 -0.691406 6.441406 -0.363281 5.953125 -0.15625 C 5.460938 0.0507812 4.941406 0.15625 4.390625 0.15625 C 3.347656 0.15625 2.566406 -0.0859375 2.046875 -0.578125 C 1.523438 -1.078125 1.265625 -1.867188 1.265625 -2.953125 L 1.265625 -8.578125 L 2.6875 -8.578125 L 2.6875 -3.0625 C 2.6875 -1.695312 3.320312 -1.015625 4.59375 -1.015625 C 5.539062 -1.015625 6.195312 -1.28125 6.5625 -1.8125 C 6.9375 -2.34375 7.125 -3.109375 7.125 -4.109375 L 7.125 -8.578125 Z M 8.53125 -8.578125 "/>
</g>
<g id="glyph-0-9">
</g>
<g id="glyph-0-10">
<path d="M 5.3125 -7.484375 L 3.15625 -7.484375 L 3.15625 0 L 1.75 0 L 1.75 -7.484375 L 0.234375 -7.484375 L 0.234375 -8.140625 L 1.75 -8.625 L 1.75 -9.125 C 1.75 -10.226562 1.992188 -11.019531 2.484375 -11.5 C 2.972656 -11.988281 3.65625 -12.234375 4.53125 -12.234375 C 4.875 -12.234375 5.1875 -12.203125 5.46875 -12.140625 C 5.75 -12.085938 5.988281 -12.023438 6.1875 -11.953125 L 5.828125 -10.84375 C 5.648438 -10.894531 5.445312 -10.945312 5.21875 -11 C 5 -11.0625 4.773438 -11.09375 4.546875 -11.09375 C 4.078125 -11.09375 3.726562 -10.929688 3.5 -10.609375 C 3.269531 -10.296875 3.15625 -9.804688 3.15625 -9.140625 L 3.15625 -8.578125 L 5.3125 -8.578125 Z M 5.3125 -7.484375 "/>
</g>
<g id="glyph-0-11">
<path d="M 5.6875 0 L 4.296875 0 L 4.296875 -7.984375 C 4.296875 -8.441406 4.300781 -8.804688 4.3125 -9.078125 C 4.332031 -9.359375 4.351562 -9.648438 4.375 -9.953125 C 4.195312 -9.785156 4.039062 -9.640625 3.90625 -9.515625 C 3.769531 -9.398438 3.59375 -9.253906 3.375 -9.078125 L 2.15625 -8.078125 L 1.421875 -9.03125 L 4.515625 -11.421875 L 5.6875 -11.421875 Z M 5.6875 0 "/>
</g>
<g id="glyph-0-12">
<path d="M 8.375 -5.734375 C 8.375 -4.503906 8.242188 -3.445312 7.984375 -2.5625 C 7.722656 -1.6875 7.316406 -1.015625 6.765625 -0.546875 C 6.210938 -0.078125 5.476562 0.15625 4.5625 0.15625 C 3.269531 0.15625 2.316406 -0.359375 1.703125 -1.390625 C 1.085938 -2.429688 0.78125 -3.878906 0.78125 -5.734375 C 0.78125 -6.960938 0.90625 -8.015625 1.15625 -8.890625 C 1.40625 -9.765625 1.804688 -10.429688 2.359375 -10.890625 C 2.921875 -11.359375 3.65625 -11.59375 4.5625 -11.59375 C 5.84375 -11.59375 6.796875 -11.078125 7.421875 -10.046875 C 8.054688 -9.023438 8.375 -7.585938 8.375 -5.734375 Z M 2.1875 -5.734375 C 2.1875 -4.160156 2.363281 -2.984375 2.71875 -2.203125 C 3.082031 -1.429688 3.695312 -1.046875 4.5625 -1.046875 C 5.414062 -1.046875 6.023438 -1.429688 6.390625 -2.203125 C 6.753906 -2.972656 6.9375 -4.148438 6.9375 -5.734375 C 6.9375 -7.285156 6.753906 -8.453125 6.390625 -9.234375 C 6.023438 -10.015625 5.414062 -10.40625 4.5625 -10.40625 C 3.695312 -10.40625 3.082031 -10.015625 2.71875 -9.234375 C 2.363281 -8.453125 2.1875 -7.285156 2.1875 -5.734375 Z M 2.1875 -5.734375 "/>
</g>
<g id="glyph-0-13">
<path d="M 6.9375 -2.375 C 6.9375 -1.539062 6.628906 -0.910156 6.015625 -0.484375 C 5.398438 -0.0546875 4.566406 0.15625 3.515625 0.15625 C 2.921875 0.15625 2.40625 0.109375 1.96875 0.015625 C 1.539062 -0.078125 1.160156 -0.210938 0.828125 -0.390625 L 0.828125 -1.65625 C 1.171875 -1.488281 1.582031 -1.332031 2.0625 -1.1875 C 2.550781 -1.039062 3.046875 -0.96875 3.546875 -0.96875 C 4.265625 -0.96875 4.78125 -1.082031 5.09375 -1.3125 C 5.414062 -1.539062 5.578125 -1.847656 5.578125 -2.234375 C 5.578125 -2.453125 5.519531 -2.644531 5.40625 -2.8125 C 5.289062 -2.988281 5.078125 -3.160156 4.765625 -3.328125 C 4.460938 -3.492188 4.03125 -3.6875 3.46875 -3.90625 C 2.914062 -4.113281 2.441406 -4.320312 2.046875 -4.53125 C 1.648438 -4.75 1.34375 -5.007812 1.125 -5.3125 C 0.914062 -5.613281 0.8125 -6 0.8125 -6.46875 C 0.8125 -7.1875 1.109375 -7.742188 1.703125 -8.140625 C 2.296875 -8.535156 3.070312 -8.734375 4.03125 -8.734375 C 4.550781 -8.734375 5.035156 -8.679688 5.484375 -8.578125 C 5.941406 -8.484375 6.367188 -8.34375 6.765625 -8.15625 L 6.28125 -7.046875 C 5.925781 -7.191406 5.550781 -7.316406 5.15625 -7.421875 C 4.757812 -7.523438 4.351562 -7.578125 3.9375 -7.578125 C 3.363281 -7.578125 2.921875 -7.484375 2.609375 -7.296875 C 2.304688 -7.117188 2.15625 -6.867188 2.15625 -6.546875 C 2.15625 -6.304688 2.222656 -6.101562 2.359375 -5.9375 C 2.503906 -5.78125 2.738281 -5.625 3.0625 -5.46875 C 3.382812 -5.3125 3.820312 -5.125 4.375 -4.90625 C 4.914062 -4.707031 5.378906 -4.5 5.765625 -4.28125 C 6.148438 -4.070312 6.441406 -3.816406 6.640625 -3.515625 C 6.835938 -3.210938 6.9375 -2.832031 6.9375 -2.375 Z M 6.9375 -2.375 "/>
</g>
<g id="glyph-0-14">
<path d="M 4.796875 0.15625 C 4.035156 0.15625 3.359375 0.00390625 2.765625 -0.296875 C 2.179688 -0.609375 1.71875 -1.085938 1.375 -1.734375 C 1.039062 -2.390625 0.875 -3.222656 0.875 -4.234375 C 0.875 -5.296875 1.050781 -6.15625 1.40625 -6.8125 C 1.757812 -7.476562 2.238281 -7.960938 2.84375 -8.265625 C 3.445312 -8.578125 4.128906 -8.734375 4.890625 -8.734375 C 5.328125 -8.734375 5.75 -8.6875 6.15625 -8.59375 C 6.5625 -8.507812 6.894531 -8.398438 7.15625 -8.265625 L 6.71875 -7.109375 C 6.46875 -7.203125 6.171875 -7.289062 5.828125 -7.375 C 5.484375 -7.457031 5.160156 -7.5 4.859375 -7.5 C 3.179688 -7.5 2.34375 -6.414062 2.34375 -4.25 C 2.34375 -3.21875 2.546875 -2.425781 2.953125 -1.875 C 3.359375 -1.332031 3.96875 -1.0625 4.78125 -1.0625 C 5.25 -1.0625 5.660156 -1.109375 6.015625 -1.203125 C 6.378906 -1.296875 6.710938 -1.410156 7.015625 -1.546875 L 7.015625 -0.296875 C 6.722656 -0.148438 6.398438 -0.0390625 6.046875 0.03125 C 5.703125 0.113281 5.285156 0.15625 4.796875 0.15625 Z M 4.796875 0.15625 "/>
</g>
<g id="glyph-0-15">
<path d="M 4.671875 -8.734375 C 5.410156 -8.734375 6.039062 -8.570312 6.5625 -8.25 C 7.09375 -7.9375 7.5 -7.488281 7.78125 -6.90625 C 8.0625 -6.320312 8.203125 -5.640625 8.203125 -4.859375 L 8.203125 -4.015625 L 2.34375 -4.015625 C 2.363281 -3.046875 2.609375 -2.304688 3.078125 -1.796875 C 3.554688 -1.296875 4.222656 -1.046875 5.078125 -1.046875 C 5.617188 -1.046875 6.097656 -1.09375 6.515625 -1.1875 C 6.941406 -1.289062 7.378906 -1.4375 7.828125 -1.625 L 7.828125 -0.40625 C 7.390625 -0.207031 6.957031 -0.0664062 6.53125 0.015625 C 6.101562 0.109375 5.597656 0.15625 5.015625 0.15625 C 4.203125 0.15625 3.484375 -0.00390625 2.859375 -0.328125 C 2.234375 -0.660156 1.742188 -1.15625 1.390625 -1.8125 C 1.046875 -2.46875 0.875 -3.269531 0.875 -4.21875 C 0.875 -5.15625 1.03125 -5.957031 1.34375 -6.625 C 1.664062 -7.300781 2.109375 -7.820312 2.671875 -8.1875 C 3.242188 -8.550781 3.910156 -8.734375 4.671875 -8.734375 Z M 4.65625 -7.578125 C 3.976562 -7.578125 3.445312 -7.359375 3.0625 -6.921875 C 2.675781 -6.492188 2.445312 -5.898438 2.375 -5.140625 L 6.734375 -5.140625 C 6.722656 -5.859375 6.550781 -6.441406 6.21875 -6.890625 C 5.894531 -7.347656 5.375 -7.578125 4.65625 -7.578125 Z M 4.65625 -7.578125 "/>
</g>
<g id="glyph-0-16">
<path d="M 8.3125 0 L 0.765625 0 L 0.765625 -1.171875 L 3.765625 -4.1875 C 4.335938 -4.769531 4.820312 -5.285156 5.21875 -5.734375 C 5.613281 -6.179688 5.910156 -6.617188 6.109375 -7.046875 C 6.316406 -7.484375 6.421875 -7.957031 6.421875 -8.46875 C 6.421875 -9.09375 6.234375 -9.566406 5.859375 -9.890625 C 5.484375 -10.222656 5 -10.390625 4.40625 -10.390625 C 3.84375 -10.390625 3.347656 -10.289062 2.921875 -10.09375 C 2.503906 -9.90625 2.078125 -9.640625 1.640625 -9.296875 L 0.890625 -10.234375 C 1.335938 -10.609375 1.851562 -10.925781 2.4375 -11.1875 C 3.019531 -11.445312 3.675781 -11.578125 4.40625 -11.578125 C 5.46875 -11.578125 6.304688 -11.304688 6.921875 -10.765625 C 7.546875 -10.234375 7.859375 -9.492188 7.859375 -8.546875 C 7.859375 -7.941406 7.734375 -7.378906 7.484375 -6.859375 C 7.242188 -6.335938 6.90625 -5.820312 6.46875 -5.3125 C 6.03125 -4.8125 5.515625 -4.273438 4.921875 -3.703125 L 2.546875 -1.34375 L 2.546875 -1.28125 L 8.3125 -1.28125 Z M 8.3125 0 "/>
</g>
</g>
</defs>
<rect x="-80" y="-40" width="960" height="480" fill="rgb(100%, 100%, 100%)" fill-opacity="1"/>
<path fill-rule="evenodd" fill="rgb(100%, 55.000001%, 0%)" fill-opacity="1" stroke-width="0.5" stroke-linecap="round" stroke-linejoin="miter" stroke="rgb(0%, 0%, 0%)" stroke-opacity="1" stroke-miterlimit="10" d="M 120 360 L 120 345 L 145.003906 345 C 155.378906 345 164.027344 337.070312 164.929688 326.738281 L 192.023438 15.867188 C 192.265625 13.074219 191.328125 10.308594 189.433594 8.242188 C 187.539062 6.175781 184.863281 5 182.0625 5 L 17.9375 5 C 15.136719 5 12.460938 6.175781 10.566406 8.242188 C 8.671875 10.308594 7.734375 13.074219 7.976562 15.867188 L 35.070312 326.738281 C 35.972656 337.070312 44.621094 345 54.996094 345 L 80 345 L 80 360 Z M 120 360 "/>
<path fill-rule="evenodd" fill="rgb(100%, 55.000001%, 0%)" fill-opacity="1" stroke-width="0.5" stroke-linecap="round" stroke-linejoin="miter" stroke="rgb(0%, 0%, 0%)" stroke-opacity="1" stroke-miterlimit="10" d="M 317.113281 5.136719 L 482.886719 5.136719 L 482.886719 5 L 317.113281 5 Z M 317.113281 5.136719 "/>
<path fill-rule="evenodd" fill="rgb(100%, 55.000001%, 0%)" fill-opacity="1" stroke-width="0.5" stroke-linecap="round" stroke-linejoin="miter" stroke="rgb(0%, 0%, 0%)" stroke-opacity="1" stroke-miterlimit="10" d="M 315.488281 5.542969 L 484.511719 5.542969 L 484.511719 5.136719 L 315.488281 5.136719 Z M 315.488281 5.542969 "/>
<path fill-rule="evenodd" fill="rgb(100%, 55.000001%, 0%)" fill-opacity="1" stroke-width="0.5" stroke-linecap="round" stroke-linejoin="miter" stroke="rgb(0%, 0%, 0%)" stroke-opacity="1" stroke-miterlimit="10" d="M 313.925781 6.210938 L 486.074219 6.210938 L 486.074219 5.542969 L 313.925781 5.542969 Z M 313.925781 6.210938 "/>
<path fill-rule="evenodd" fill="rgb(100%, 55.000001%, 0%)" fill-opacity="1" stroke-width="0.5" stroke-linecap="round" stroke-linejoin="miter" stroke="rgb(0%, 0%, 0%)" stroke-opacity="1" stroke-miterlimit="10" d="M 312.476562 7.117188 L 487.523438 7.117188 L 487.523438 6.210938 L 312.476562 6.210938 Z M 312.476562 7.117188 "/>
<path fill-rule="evenodd" fill="rgb(100%, 55.000001%, 0%)" fill-opacity="1" stroke-width="0.5" stroke-linecap="round" stroke-linejoin="miter" stroke="rgb(0%, 0%, 0%)" stroke-opacity="1" stroke-miterlimit="10" d="M 311.175781 8.242188 L 488.824219 8.242188 L 488.824219 7.117188 L 311.175781 7.117188 Z M 311.175781 8.242188 "/>
<path fill-rule="evenodd" fill="rgb(100%, 55.000001%, 0%)" fill-opacity="1" stroke-width="0.5" stroke-linecap="round" stroke-linejoin="miter" stroke="rgb(0%, 0%, 0%)" stroke-opacity="1" stroke-miterlimit="10" d="M 310.0625 9.550781 L 489.9375 9.550781 L 489.9375 8.242188 L 310.0625 8.242188 Z M 310.0625 9.550781 "/>
<path fill-rule="evenodd" fill="rgb(100%, 55.000001%, 0%)" fill-opacity="1" stroke-width="0.5" stroke-linecap="round" stroke-linejoin="miter" stroke="rgb(0%, 0%, 0%)" stroke-opacity="1" stroke-miterlimit="10" d="M 309.160156 11.011719 L 490.839844 11.011719 L 490.839844 9.550781 L 309.160156 9.550781 Z M 309.160156 11.011719 "/>
<path fill-rule="evenodd" fill="rgb(100%, 55.000001%, 0%)" fill-opacity="1" stroke-width="0.5" stroke-linecap="round" stroke-linejoin="miter" stroke="rgb(0%, 0%, 0%)" stroke-opacity="1" stroke-miterlimit="10" d="M 308.503906 12.578125 L 491.496094 12.578125 L 491.496094 11.011719 L 308.503906 11.011719 Z M 308.503906 12.578125 "/>
<path fill-rule="evenodd" fill="rgb(100%, 55.000001%, 0%)" fill-opacity="1" stroke-width="0.5" stroke-linecap="round" stroke-linejoin="miter" stroke="rgb(0%, 0%, 0%)" stroke-opacity="1" stroke-miterlimit="10" d="M 308.105469 14.210938 L 491.894531 14.210938 L 491.894531 12.578125 L 308.105469 12.578125 Z M 308.105469 14.210938 "/>
<path fill-rule="evenodd" fill="rgb(100%, 55.000001%, 0%)" fill-opacity="1" stroke-width="0.5" stroke-linecap="round" stroke-linejoin="miter" stroke="rgb(0%, 0%, 0%)" stroke-opacity="1" stroke-miterlimit="10" d="M 307.972656 15.867188 L 492.027344 15.867188 L 492.027344 14.210938 L 307.972656 14.210938 Z M 307.972656 15.867188 "/>
<path fill-rule="evenodd" fill="rgb(100%, 55.000001%, 0%)" fill-opacity="1" stroke-width="0.5" stroke-linecap="round" stroke-linejoin="miter" stroke="rgb(0%, 0%, 0%)" stroke-opacity="1" stroke-miterlimit="10" d="M 309.480469 50.410156 L 490.519531 50.410156 L 490.519531 15.867188 L 309.480469 15.867188 Z M 309.480469 50.410156 "/>
<path fill-rule="evenodd" fill="rgb(100%, 55.000001%, 0%)" fill-opacity="1" stroke-width="0.5" stroke-linecap="round" stroke-linejoin="miter" stroke="rgb(0%, 0%, 0%)" stroke-opacity="1" stroke-miterlimit="10" d="M 312.492188 84.949219 L 487.507812 84.949219 L 487.507812 50.410156 L 312.492188 50.410156 Z M 312.492188 84.949219 "/>
<path fill-rule="evenodd" fill="rgb(100%, 55.000001%, 0%)" fill-opacity="1" stroke-width="0.5" stroke-linecap="round" stroke-linejoin="miter" stroke="rgb(0%, 0%, 0%)" stroke-opacity="1" stroke-miterlimit="10" d="M 315.503906 119.492188 L 484.496094 119.492188 L 484.496094 84.949219 L 315.503906 84.949219 Z M 315.503906 119.492188 "/>
<path fill-rule="evenodd" fill="rgb(100%, 55.000001%, 0%)" fill-opacity="1" stroke-width="0.5" stroke-linecap="round" stroke-linejoin="miter" stroke="rgb(0%, 0%, 0%)" stroke-opacity="1" stroke-miterlimit="10" d="M 318.511719 154.03125 L 481.488281 154.03125 L 481.488281 119.492188 L 318.511719 119.492188 Z M 318.511719 154.03125 "/>
<path fill-rule="evenodd" fill="rgb(100%, 55.000001%, 0%)" fill-opacity="1" stroke-width="0.5" stroke-linecap="round" stroke-linejoin="miter" stroke="rgb(0%, 0%, 0%)" stroke-opacity="1" stroke-miterlimit="10" d="M 321.523438 188.574219 L 478.476562 188.574219 L 478.476562 154.03125 L 321.523438 154.03125 Z M 321.523438 188.574219 "/>
<path fill-rule="evenodd" fill="rgb(100%, 55.000001%, 0%)" fill-opacity="1" stroke-width="0.5" stroke-linecap="round" stroke-linejoin="miter" stroke="rgb(0%, 0%, 0%)" stroke-opacity="1" stroke-miterlimit="10" d="M 324.535156 223.113281 L 475.464844 223.113281 L 475.464844 188.574219 L 324.535156 188.574219 Z M 324.535156 223.113281 "/>
<path fill-rule="evenodd" fill="rgb(100%, 55.000001%, 0%)" fill-opacity="1" stroke-width="0.5" stroke-linecap="round" stroke-linejoin="miter" stroke="rgb(0%, 0%, 0%)" stroke-opacity="1" stroke-miterlimit="10" d="M 327.542969 257.65625 L 472.457031 257.65625 L 472.457031 223.113281 L 327.542969 223.113281 Z M 327.542969 257.65625 "/>
<path fill-rule="evenodd" fill="rgb(100%, 55.000001%, 0%)" fill-opacity="1" stroke-width="0.5" stroke-linecap="round" stroke-linejoin="miter" stroke="rgb(0%, 0%, 0%)" stroke-opacity="1" stroke-miterlimit="10" d="M 330.554688 292.195312 L 469.445312 292.195312 L 469.445312 257.65625 L 330.554688 257.65625 Z M 330.554688 292.195312 "/>
<path fill-rule="evenodd" fill="rgb(100%, 55.000001%, 0%)" fill-opacity="1" stroke-width="0.5" stroke-linecap="round" stroke-linejoin="miter" stroke="rgb(0%, 0%, 0%)" stroke-opacity="1" stroke-miterlimit="10" d="M 333.566406 326.738281 L 466.433594 326.738281 L 466.433594 292.195312 L 333.566406 292.195312 Z M 333.566406 326.738281 "/>
<path fill-rule="evenodd" fill="rgb(100%, 55.000001%, 0%)" fill-opacity="1" stroke-width="0.5" stroke-linecap="round" stroke-linejoin="miter" stroke="rgb(0%, 0%, 0%)" stroke-opacity="1" stroke-miterlimit="10" d="M 335.347656 329.984375 L 464.652344 329.984375 L 464.652344 326.738281 L 335.347656 326.738281 Z M 335.347656 329.984375 "/>
<path fill-rule="evenodd" fill="rgb(100%, 55.000001%, 0%)" fill-opacity="1" stroke-width="0.5" stroke-linecap="round" stroke-linejoin="miter" stroke="rgb(0%, 0%, 0%)" stroke-opacity="1" stroke-miterlimit="10" d="M 336.164062 333.09375 L 463.835938 333.09375 L 463.835938 329.984375 L 336.164062 329.984375 Z M 336.164062 333.09375 "/>
<path fill-rule="evenodd" fill="rgb(100%, 55.000001%, 0%)" fill-opacity="1" stroke-width="0.5" stroke-linecap="round" stroke-linejoin="miter" stroke="rgb(0%, 0%, 0%)" stroke-opacity="1" stroke-miterlimit="10" d="M 337.496094 335.988281 L 462.503906 335.988281 L 462.503906 333.09375 L 337.496094 333.09375 Z M 337.496094 335.988281 "/>
<path fill-rule="evenodd" fill="rgb(100%, 55.000001%, 0%)" fill-opacity="1" stroke-width="0.5" stroke-linecap="round" stroke-linejoin="miter" stroke="rgb(0%, 0%, 0%)" stroke-opacity="1" stroke-miterlimit="10" d="M 339.296875 338.582031 L 460.703125 338.582031 L 460.703125 335.988281 L 339.296875 335.988281 Z M 339.296875 338.582031 "/>
<path fill-rule="evenodd" fill="rgb(100%, 55.000001%, 0%)" fill-opacity="1" stroke-width="0.5" stroke-linecap="round" stroke-linejoin="miter" stroke="rgb(0%, 0%, 0%)" stroke-opacity="1" stroke-miterlimit="10" d="M 341.527344 340.804688 L 458.472656 340.804688 L 458.472656 338.582031 L 341.527344 338.582031 Z M 341.527344 340.804688 "/>
<path fill-rule="evenodd" fill="rgb(100%, 55.000001%, 0%)" fill-opacity="1" stroke-width="0.5" stroke-linecap="round" stroke-linejoin="miter" stroke="rgb(0%, 0%, 0%)" stroke-opacity="1" stroke-miterlimit="10" d="M 344.121094 342.601562 L 455.878906 342.601562 L 455.878906 340.804688 L 344.121094 340.804688 Z M 344.121094 342.601562 "/>
<path fill-rule="evenodd" fill="rgb(100%, 55.000001%, 0%)" fill-opacity="1" stroke-width="0.5" stroke-linecap="round" stroke-linejoin="miter" stroke="rgb(0%, 0%, 0%)" stroke-opacity="1" stroke-miterlimit="10" d="M 347.007812 343.921875 L 452.992188 343.921875 L 452.992188 342.601562 L 347.007812 342.601562 Z M 347.007812 343.921875 "/>
<path fill-rule="evenodd" fill="rgb(100%, 55.000001%, 0%)" fill-opacity="1" stroke-width="0.5" stroke-linecap="round" stroke-linejoin="miter" stroke="rgb(0%, 0%, 0%)" stroke-opacity="1" stroke-miterlimit="10" d="M 350.117188 344.730469 L 449.882812 344.730469 L 449.882812 343.921875 L 350.117188 343.921875 Z M 350.117188 344.730469 "/>
<path fill-rule="evenodd" fill="rgb(100%, 55.000001%, 0%)" fill-opacity="1" stroke-width="0.5" stroke-linecap="round" stroke-linejoin="miter" stroke="rgb(0%, 0%, 0%)" stroke-opacity="1" stroke-miterlimit="10" d="M 353.351562 345 L 446.648438 345 L 446.648438 344.730469 L 353.351562 344.730469 Z M 353.351562 345 "/>
<path fill-rule="evenodd" fill="rgb(100%, 55.000001%, 0%)" fill-opacity="1" stroke-width="0.5" stroke-linecap="round" stroke-linejoin="miter" stroke="rgb(0%, 0%, 0%)" stroke-opacity="1" stroke-miterlimit="10" d="M 380 360 L 420 360 L 420 345 L 380 345 Z M 380 360 "/>
<path fill-rule="evenodd" fill="rgb(100%, 55.000001%, 0%)" fill-opacity="1" stroke-width="0.5" stroke-linecap="round" stroke-linejoin="miter" stroke="rgb(0%, 0%, 0%)" stroke-opacity="1" stroke-miterlimit="10" d="M 617.113281 5.136719 L 782.886719 5.136719 L 782.886719 5 L 617.113281 5 Z M 617.113281 5.136719 "/>
<path fill-rule="evenodd" fill="rgb(100%, 55.000001%, 0%)" fill-opacity="1" stroke-width="0.5" stroke-linecap="round" stroke-linejoin="miter" stroke="rgb(0%, 0%, 0%)" stroke-opacity="1" stroke-miterlimit="10" d="M 615.488281 5.542969 L 784.511719 5.542969 L 784.511719 5.136719 L 615.488281 5.136719 Z M 615.488281 5.542969 "/>
<path fill-rule="evenodd" fill="rgb(100%, 55.000001%, 0%)" fill-opacity="1" stroke-width="0.5" stroke-linecap="round" stroke-linejoin="miter" stroke="rgb(0%, 0%, 0%)" stroke-opacity="1" stroke-miterlimit="10" d="M 613.925781 6.210938 L 786.074219 6.210938 L 786.074219 5.542969 L 613.925781 5.542969 Z M 613.925781 6.210938 "/>
<path fill-rule="evenodd" fill="rgb(100%, 55.000001%, 0%)" fill-opacity="1" stroke-width="0.5" stroke-linecap="round" stroke-linejoin="miter" stroke="rgb(0%, 0%, 0%)" stroke-opacity="1" stroke-miterlimit="10" d="M 612.476562 7.117188 L 787.523438 7.117188 L 787.523438 6.210938 L 612.476562 6.210938 Z M 612.476562 7.117188 "/>
<path fill-rule="evenodd" fill="rgb(100%, 55.000001%, 0%)" fill-opacity="1" stroke-width="0.5" stroke-linecap="round" stroke-linejoin="miter" stroke="rgb(0%, 0%, 0%)" stroke-opacity="1" stroke-miterlimit="10" d="M 611.175781 8.242188 L 788.824219 8.242188 L 788.824219 7.117188 L 611.175781 7.117188 Z M 611.175781 8.242188 "/>
<path fill-rule="evenodd" fill="rgb(100%, 55.000001%, 0%)" fill-opacity="1" stroke-width="0.5" stroke-linecap="round" stroke-linejoin="miter" stroke="rgb(0%, 0%, 0%)" stroke-opacity="1" stroke-miterlimit="10" d="M 610.0625 9.550781 L 789.9375 9.550781 L 789.9375 8.242188 L 610.0625 8.242188 Z M 610.0625 9.550781 "/>
<path fill-rule="evenodd" fill="rgb(100%, 55.000001%, 0%)" fill-opacity="1" stroke-width="0.5" stroke-linecap="round" stroke-linejoin="miter" stroke="rgb(0%, 0%, 0%)" stroke-opacity="1" stroke-miterlimit="10" d="M 609.160156 11.011719 L 790.839844 11.011719 L 790.839844 9.550781 L 609.160156 9.550781 Z M 609.160156 11.011719 "/>
<path fill-rule="evenodd" fill="rgb(100%, 55.000001%, 0%)" fill-opacity="1" stroke-width="0.5" stroke-linecap="round" stroke-linejoin="miter" stroke="rgb(0%, 0%, 0%)" stroke-opacity="1" stroke-miterlimit="10" d="M 608.503906 12.578125 L 791.496094 12.578125 L 791.496094 11.011719 L 608.503906 11.011719 Z M 608.503906 12.578125 "/>
<path fill-rule="evenodd" fill="rgb(100%, 55.000001%, 0%)" fill-opacity="1" stroke-width="0.5" stroke-linecap="round" stroke-linejoin="miter" stroke="rgb(0%, 0%, 0%)" stroke-opacity="1" stroke-miterlimit="10" d="M 608.105469 14.210938 L 791.894531 14.210938 L 791.894531 12.578125 L 608.105469 12.578125 Z M 608.105469 14.210938 "/>
<path fill-rule="evenodd" fill="rgb(100%, 55.000001%, 0%)" fill-opacity="1" stroke-width="0.5" stroke-linecap="round" stroke-linejoin="miter" stroke="rgb(0%, 0%, 0%)" stroke-opacity="1" stroke-miterlimit="10" d="M 607.972656 15.867188 L 792.027344 15.867188 L 792.027344 14.210938 L 607.972656 14.210938 Z M 607.972656 15.867188 "/>
<path fill-rule="evenodd" fill="rgb(100%, 55.000001%, 0%)" fill-opacity="1" stroke-width="0.5" stroke-linecap="round" stroke-linejoin="miter" stroke="rgb(0%, 0%, 0%)" stroke-opacity="1" stroke-miterlimit="10" d="M 608.730469 33.140625 L 791.269531 33.140625 L 791.269531 15.867188 L 608.730469 15.867188 Z M 608.730469 33.140625 "/>
<path fill-rule="evenodd" fill="rgb(100%, 55.000001%, 0%)" fill-opacity="1" stroke-width="0.5" stroke-linecap="round" stroke-linejoin="miter" stroke="rgb(0%, 0%, 0%)" stroke-opacity="1" stroke-miterlimit="10" d="M 610.234375 50.410156 L 789.765625 50.410156 L 789.765625 33.140625 L 610.234375 33.140625 Z M 610.234375 50.410156 "/>
<path fill-rule="evenodd" fill="rgb(100%, 55.000001%, 0%)" fill-opacity="1" stroke-width="0.5" stroke-linecap="round" stroke-linejoin="miter" stroke="rgb(0%, 0%, 0%)" stroke-opacity="1" stroke-miterlimit="10" d="M 611.738281 67.679688 L 788.261719 67.679688 L 788.261719 50.410156 L 611.738281 50.410156 Z M 611.738281 67.679688 "/>
<path fill-rule="evenodd" fill="rgb(100%, 55.000001%, 0%)" fill-opacity="1" stroke-width="0.5" stroke-linecap="round" stroke-linejoin="miter" stroke="rgb(0%, 0%, 0%)" stroke-opacity="1" stroke-miterlimit="10" d="M 613.246094 84.949219 L 786.753906 84.949219 L 786.753906 67.679688 L 613.246094 67.679688 Z M 613.246094 84.949219 "/>
<path fill-rule="evenodd" fill="rgb(100%, 55.000001%, 0%)" fill-opacity="1" stroke-width="0.5" stroke-linecap="round" stroke-linejoin="miter" stroke="rgb(0%, 0%, 0%)" stroke-opacity="1" stroke-miterlimit="10" d="M 614.75 102.21875 L 785.25 102.21875 L 785.25 84.949219 L 614.75 84.949219 Z M 614.75 102.21875 "/>
<path fill-rule="evenodd" fill="rgb(100%, 55.000001%, 0%)" fill-opacity="1" stroke-width="0.5" stroke-linecap="round" stroke-linejoin="miter" stroke="rgb(0%, 0%, 0%)" stroke-opacity="1" stroke-miterlimit="10" d="M 616.253906 119.492188 L 783.746094 119.492188 L 783.746094 102.21875 L 616.253906 102.21875 Z M 616.253906 119.492188 "/>
<path fill-rule="evenodd" fill="rgb(100%, 55.000001%, 0%)" fill-opacity="1" stroke-width="0.5" stroke-linecap="round" stroke-linejoin="miter" stroke="rgb(0%, 0%, 0%)" stroke-opacity="1" stroke-miterlimit="10" d="M 617.761719 136.761719 L 782.238281 136.761719 L 782.238281 119.492188 L 617.761719 119.492188 Z M 617.761719 136.761719 "/>
<path fill-rule="evenodd" fill="rgb(100%, 55.000001%, 0%)" fill-opacity="1" stroke-width="0.5" stroke-linecap="round" stroke-linejoin="miter" stroke="rgb(0%, 0%, 0%)" stroke-opacity="1" stroke-miterlimit="10" d="M 619.265625 154.03125 L 780.734375 154.03125 L 780.734375 136.761719 L 619.265625 136.761719 Z M 619.265625 154.03125 "/>
<path fill-rule="evenodd" fill="rgb(100%, 55.000001%, 0%)" fill-opacity="1" stroke-width="0.5" stroke-linecap="round" stroke-linejoin="miter" stroke="rgb(0%, 0%, 0%)" stroke-opacity="1" stroke-miterlimit="10" d="M 620.769531 171.300781 L 779.230469 171.300781 L 779.230469 154.03125 L 620.769531 154.03125 Z M 620.769531 171.300781 "/>
<path fill-rule="evenodd" fill="rgb(100%, 55.000001%, 0%)" fill-opacity="1" stroke-width="0.5" stroke-linecap="round" stroke-linejoin="miter" stroke="rgb(0%, 0%, 0%)" stroke-opacity="1" stroke-miterlimit="10" d="M 622.277344 188.574219 L 777.722656 188.574219 L 777.722656 171.300781 L 622.277344 171.300781 Z M 622.277344 188.574219 "/>
<path fill-rule="evenodd" fill="rgb(100%, 55.000001%, 0%)" fill-opacity="1" stroke-width="0.5" stroke-linecap="round" stroke-linejoin="miter" stroke="rgb(0%, 0%, 0%)" stroke-opacity="1" stroke-miterlimit="10" d="M 623.78125 205.84375 L 776.21875 205.84375 L 776.21875 188.574219 L 623.78125 188.574219 Z M 623.78125 205.84375 "/>
<path fill-rule="evenodd" fill="rgb(100%, 55.000001%, 0%)" fill-opacity="1" stroke-width="0.5" stroke-linecap="round" stroke-linejoin="miter" stroke="rgb(0%, 0%, 0%)" stroke-opacity="1" stroke-miterlimit="10" d="M 625.285156 223.113281 L 774.714844 223.113281 L 774.714844 205.84375 L 625.285156 205.84375 Z M 625.285156 223.113281 "/>
<path fill-rule="evenodd" fill="rgb(100%, 55.000001%, 0%)" fill-opacity="1" stroke-width="0.5" stroke-linecap="round" stroke-linejoin="miter" stroke="rgb(0%, 0%, 0%)" stroke-opacity="1" stroke-miterlimit="10" d="M 626.792969 240.382812 L 773.207031 240.382812 L 773.207031 223.113281 L 626.792969 223.113281 Z M 626.792969 240.382812 "/>
<path fill-rule="evenodd" fill="rgb(100%, 55.000001%, 0%)" fill-opacity="1" stroke-width="0.5" stroke-linecap="round" stroke-linejoin="miter" stroke="rgb(0%, 0%, 0%)" stroke-opacity="1" stroke-miterlimit="10" d="M 628.296875 257.65625 L 771.703125 257.65625 L 771.703125 240.382812 L 628.296875 240.382812 Z M 628.296875 257.65625 "/>
<path fill-rule="evenodd" fill="rgb(100%, 55.000001%, 0%)" fill-opacity="1" stroke-width="0.5" stroke-linecap="round" stroke-linejoin="miter" stroke="rgb(0%, 0%, 0%)" stroke-opacity="1" stroke-miterlimit="10" d="M 629.800781 274.925781 L 770.199219 274.925781 L 770.199219 257.65625 L 629.800781 257.65625 Z M 629.800781 274.925781 "/>
<path fill-rule="evenodd" fill="rgb(100%, 55.000001%, 0%)" fill-opacity="1" stroke-width="0.5" stroke-linecap="round" stroke-linejoin="miter" stroke="rgb(0%, 0%, 0%)" stroke-opacity="1" stroke-miterlimit="10" d="M 631.308594 292.195312 L 768.691406 292.195312 L 768.691406 274.925781 L 631.308594 274.925781 Z M 631.308594 292.195312 "/>
<path fill-rule="evenodd" fill="rgb(100%, 55.000001%, 0%)" fill-opacity="1" stroke-width="0.5" stroke-linecap="round" stroke-linejoin="miter" stroke="rgb(0%, 0%, 0%)" stroke-opacity="1" stroke-miterlimit="10" d="M 632.8125 309.464844 L 767.1875 309.464844 L 767.1875 292.195312 L 632.8125 292.195312 Z M 632.8125 309.464844 "/>
<path fill-rule="evenodd" fill="rgb(100%, 55.000001%, 0%)" fill-opacity="1" stroke-width="0.5" stroke-linecap="round" stroke-linejoin="miter" stroke="rgb(0%, 0%, 0%)" stroke-opacity="1" stroke-miterlimit="10" d="M 634.316406 326.738281 L 765.683594 326.738281 L 765.683594 309.464844 L 634.316406 309.464844 Z M 634.316406 326.738281 "/>
<path fill-rule="evenodd" fill="rgb(100%, 55.000001%, 0%)" fill-opacity="1" stroke-width="0.5" stroke-linecap="round" stroke-linejoin="miter" stroke="rgb(0%, 0%, 0%)" stroke-opacity="1" stroke-miterlimit="10" d="M 635.347656 329.984375 L 764.652344 329.984375 L 764.652344 326.738281 L 635.347656 326.738281 Z M 635.347656 329.984375 "/>
<path fill-rule="evenodd" fill="rgb(100%, 55.000001%, 0%)" fill-opacity="1" stroke-width="0.5" stroke-linecap="round" stroke-linejoin="miter" stroke="rgb(0%, 0%, 0%)" stroke-opacity="1" stroke-miterlimit="10" d="M 636.164062 333.09375 L 763.835938 333.09375 L 763.835938 329.984375 L 636.164062 329.984375 Z M 636.164062 333.09375 "/>
<path fill-rule="evenodd" fill="rgb(100%, 55.000001%, 0%)" fill-opacity="1" stroke-width="0.5" stroke-linecap="round" stroke-linejoin="miter" stroke="rgb(0%, 0%, 0%)" stroke-opacity="1" stroke-miterlimit="10" d="M 637.496094 335.988281 L 762.503906 335.988281 L 762.503906 333.09375 L 637.496094 333.09375 Z M 637.496094 335.988281 "/>
<path fill-rule="evenodd" fill="rgb(100%, 55.000001%, 0%)" fill-opacity="1" stroke-width="0.5" stroke-linecap="round" stroke-linejoin="miter" stroke="rgb(0%, 0%, 0%)" stroke-opacity="1" stroke-miterlimit="10" d="M 639.296875 338.582031 L 760.703125 338.582031 L 760.703125 335.988281 L 639.296875 335.988281 Z M 639.296875 338.582031 "/>
<path fill-rule="evenodd" fill="rgb(100%, 55.000001%, 0%)" fill-opacity="1" stroke-width="0.5" stroke-linecap="round" stroke-linejoin="miter" stroke="rgb(0%, 0%, 0%)" stroke-opacity="1" stroke-miterlimit="10" d="M 641.527344 340.804688 L 758.472656 340.804688 L 758.472656 338.582031 L 641.527344 338.582031 Z M 641.527344 340.804688 "/>
<path fill-rule="evenodd" fill="rgb(100%, 55.000001%, 0%)" fill-opacity="1" stroke-width="0.5" stroke-linecap="round" stroke-linejoin="miter" stroke="rgb(0%, 0%, 0%)" stroke-opacity="1" stroke-miterlimit="10" d="M 644.121094 342.601562 L 755.878906 342.601562 L 755.878906 340.804688 L 644.121094 340.804688 Z M 644.121094 342.601562 "/>
<path fill-rule="evenodd" fill="rgb(100%, 55.000001%, 0%)" fill-opacity="1" stroke-width="0.5" stroke-linecap="round" stroke-linejoin="miter" stroke="rgb(0%, 0%, 0%)" stroke-opacity="1" stroke-miterlimit="10" d="M 647.007812 343.921875 L 752.992188 343.921875 L 752.992188 342.601562 L 647.007812 342.601562 Z M 647.007812 343.921875 "/>
<path fill-rule="evenodd" fill="rgb(100%, 55.000001%, 0%)" fill-opacity="1" stroke-width="0.5" stroke-linecap="round" stroke-linejoin="miter" stroke="rgb(0%, 0%, 0%)" stroke-opacity="1" stroke-miterlimit="10" d="M 650.117188 344.730469 L 749.882812 344.730469 L 749.882812 343.921875 L 650.117188 343.921875 Z M 650.117188 344.730469 "/>
<path fill-rule="evenodd" fill="rgb(100%, 55.000001%, 0%)" fill-opacity="1" stroke-width="0.5" stroke-linecap="round" stroke-linejoin="miter" stroke="rgb(0%, 0%, 0%)" stroke-opacity="1" stroke-miterlimit="10" d="M 653.351562 345 L 746.648438 345 L 746.648438 344.730469 L 653.351562 344.730469 Z M 653.351562 345 "/>
<path fill-rule="evenodd" fill="rgb(100%, 55.000001%, 0%)" fill-opacity="1" stroke-width="0.5" stroke-linecap="round" stroke-linejoin="miter" stroke="rgb(0%, 0%, 0%)" stroke-opacity="1" stroke-miterlimit="10" d="M 680 360 L 720 360 L 720 345 L 680 345 Z M 680 360 "/>
<g fill="rgb(0%, 0%, 0%)" fill-opacity="1">
<use xlink:href="#glyph-0-0" x="85.585938" y="386"/>
<use xlink:href="#glyph-0-1" x="94.369938" y="386"/>
<use xlink:href="#glyph-0-2" x="98.497938" y="386"/>
<use xlink:href="#glyph-0-3" x="108.177938" y="386"/>
</g>
<g fill="rgb(0%, 0%, 0%)" fill-opacity="1">
<use xlink:href="#glyph-0-4" x="320.222656" y="386.039062"/>
<use xlink:href="#glyph-0-5" x="334.734656" y="386.039062"/>
<use xlink:href="#glyph-0-6" x="338.862656" y="386.039062"/>
<use xlink:href="#glyph-0-5" x="348.750656" y="386.039062"/>
<use xlink:href="#glyph-0-7" x="352.878656" y="386.039062"/>
<use xlink:href="#glyph-0-8" x="367.838656" y="386.039062"/>
<use xlink:href="#glyph-0-7" x="377.726656" y="386.039062"/>
<use xlink:href="#glyph-0-9" x="392.686656" y="386.039062"/>
<use xlink:href="#glyph-0-2" x="396.846656" y="386.039062"/>
<use xlink:href="#glyph-0-10" x="406.526656" y="386.039062"/>
<use xlink:href="#glyph-0-9" x="412.030656" y="386.039062"/>
<use xlink:href="#glyph-0-11" x="416.190656" y="386.039062"/>
<use xlink:href="#glyph-0-12" x="425.342656" y="386.039062"/>
<use xlink:href="#glyph-0-9" x="434.494656" y="386.039062"/>
<use xlink:href="#glyph-0-13" x="438.654656" y="386.039062"/>
<use xlink:href="#glyph-0-1" x="446.318656" y="386.039062"/>
<use xlink:href="#glyph-0-5" x="450.446656" y="386.039062"/>
<use xlink:href="#glyph-0-14" x="454.574656" y="386.039062"/>
<use xlink:href="#glyph-0-15" x="462.254656" y="386.039062"/>
<use xlink:href="#glyph-0-13" x="471.278656" y="386.039062"/>
</g>
<g fill="rgb(0%, 0%, 0%)" fill-opacity="1">
<use xlink:href="#glyph-0-4" x="620.222656" y="386.039062"/>
<use xlink:href="#glyph-0-5" x="634.734656" y="386.039062"/>
<use xlink:href="#glyph-0-6" x="638.862656" y="386.039062"/>
<use xlink:href="#glyph-0-5" x="648.750656" y="386.039062"/>
<use xlink:href="#glyph-0-7" x="652.878656" y="386.039062"/>
<use xlink:href="#glyph-0-8" x="667.838656" y="386.039062"/>
<use xlink:href="#glyph-0-7" x="677.726656" y="386.039062"/>
<use xlink:href="#glyph-0-9" x="692.686656" y="386.039062"/>
<use xlink:href="#glyph-0-2" x="696.846656" y="386.039062"/>
<use xlink:href="#glyph-0-10" x="706.526656" y="386.039062"/>
<use xlink:href="#glyph-0-9" x="712.030656" y="386.039062"/>
<use xlink:href="#glyph-0-16" x="716.190656" y="386.039062"/>
<use xlink:href="#glyph-0-12" x="725.342656" y="386.039062"/>
<use xlink:href="#glyph-0-9" x="734.494656" y="386.039062"/>
<use xlink:href="#glyph-0-13" x="738.654656" y="386.039062"/>
<use xlink:href="#glyph-0-1" x="746.318656" y="386.039062"/>
<use xlink:href="#glyph-0-5" x="750.446656" y="386.039062"/>
<use xlink:href="#glyph-0-14" x="754.574656" y="386.039062"/>
<use xlink:href="#glyph-0-15" x="762.254656" y="386.039062"/>
<use xlink:href="#glyph-0-13" x="771.278656" y="386.039062"/>
</g>
</svg>
